<?xml version="1.0" standalone="no"?>
<!DOCTYPE svg PUBLIC "-//W3C//DTD SVG 1.1//EN" "http://www.w3.org/Graphics/SVG/1.1/DTD/svg11.dtd" >
<svg>
<metadata>
Created by FontForge 20090622 at Thu Aug 29 12:32:29 2019
 By deploy user
Created by Fabian De Smet
</metadata>
<defs>
<font id="Butler-Medium" horiz-adv-x="508" >
  <font-face 
    font-family="Butler"
    font-weight="500"
    font-stretch="normal"
    units-per-em="1000"
    panose-1="2 7 8 3 8 7 6 2 3 3"
    ascent="735"
    descent="-265"
    x-height="462"
    cap-height="704"
    bbox="-146 -292 1073 983"
    underline-thickness="50"
    underline-position="-50"
    unicode-range="U+0020-U+FB02"
  />
<missing-glyph horiz-adv-x="507" 
d="M281 352l178 -268v538zM79 657l174 -261l173 261h-347zM-1 704h508v-704h-508v704zM224 352l-178 270v-538zM253 310l-174 -262h347z" />
    <glyph glyph-name="f_i" unicode="fi" horiz-adv-x="558" 
d="M520 8v-8h-187v8q26 8 33 28t7 65v272q0 31 -12 52.5t-38 21.5h-134v-348q0 -43 10 -64t35 -27v-8h-190v8q26 7 33 27t7 64v348h-64l-2 15h66v17q0 144 60.5 205t184.5 61q50 0 88 -21t49 -52q14 -44 -2 -71q-13 -22 -38.5 -28.5t-47.5 7.5t-28 38.5t7 46.5q14 24 39 27
q15 3 2 16q-21 22 -69 22q-140 0 -140 -231v-37h134h156v-361q0 -45 8 -66t33 -27z" />
    <glyph glyph-name="f_l" unicode="fl" horiz-adv-x="542" 
d="M528 15v-15h-186v15q26 8 32.5 25t6.5 61v538q0 53 -52 67q-17 5 -32.5 6.5t-38.5 -7t-38.5 -29.5t-27.5 -68t-12 -116v-30h107l-3 -15h-104v-348q0 -42 9.5 -60t35.5 -24v-15h-191v15q27 7 33.5 24t6.5 60v348h-64l-2 15h66v60q0 110 47.5 166.5t124.5 56.5
q60 0 106 -29l135 30v-645q0 -44 7.5 -62t33.5 -24z" />
    <glyph glyph-name=".notdef" horiz-adv-x="507" 
d="M281 352l178 -268v538zM79 657l174 -261l173 261h-347zM-1 704h508v-704h-508v704zM224 352l-178 270v-538zM253 310l-174 -262h347z" />
    <glyph glyph-name=".null" horiz-adv-x="0" 
 />
    <glyph glyph-name="nonmarkingreturn" horiz-adv-x="333" 
 />
    <glyph glyph-name="space" unicode=" " horiz-adv-x="257" 
 />
    <glyph glyph-name="exclam" unicode="!" horiz-adv-x="318" 
d="M186 206h-57l-27 539h113zM224 59q0 28 -19.5 47.5t-47.5 19.5t-47.5 -19.5t-19.5 -47.5t19.5 -48t47.5 -20t47.5 20t19.5 48z" />
    <glyph glyph-name="quotedbl" unicode="&#x22;" horiz-adv-x="519" 
d="M328 378l-31 326h115l-30 -326h-54zM131 378l-30 326h113l-28 -326h-55z" />
    <glyph glyph-name="numbersign" unicode="#" horiz-adv-x="709" 
d="M448 471h-148l-38 -164h148zM662 471h-137l-38 -164h112v-74h-129l-54 -233h-77l54 233h-148l-54 -233h-77l54 233h-124v74h141l38 164h-115v73h131l47 202h77l-46 -202h147l47 202h77l-47 -202h121v-73z" />
    <glyph glyph-name="dollar" unicode="$" horiz-adv-x="568" 
d="M288 6q77 1 108 46.5t12.5 102.5t-70.5 94l-50 32v-275zM265 452v246q-39 0 -68.5 -23t-38.5 -56.5t10.5 -74.5t68.5 -73zM397 365q99 -65 127.5 -143t-19.5 -149q-20 -24 -39.5 -38.5t-66 -29t-111.5 -14.5v-122h-23v122q-68 3 -122.5 18t-75.5 28l-21 13v192h8
q6 -37 19.5 -71t37 -70.5t63.5 -62t91 -32.5v289l-86 56q-215 137 -111 285q2 3 6 8t20.5 18.5t37 23.5t56.5 18.5t77 8.5v122h23v-122q64 -2 119 -14t78 -23l23 -11v-168h-8q-6 31 -19.5 61t-37 61.5t-64 53t-91.5 24.5v-260z" />
    <glyph glyph-name="percent" unicode="%" horiz-adv-x="992" 
d="M725 40q35 0 47.5 30.5t12.5 130.5t-13 134t-47 34q-35 0 -48 -33.5t-13 -134.5q0 -99 13 -130t48 -31zM725 384q136 0 136 -183q0 -176 -136 -176t-136 176q0 183 136 183zM217 497q0 -99 13 -130t48 -31t47.5 30.5t12.5 130.5t-13 133.5t-47 33.5q-35 0 -48 -33
t-13 -134zM414 497q0 -176 -136 -176q-137 0 -137 176q0 182 137 182q136 0 136 -182zM759 704l-456 -704h-59l456 704h59z" />
    <glyph glyph-name="ampersand" unicode="&#x26;" horiz-adv-x="810" 
d="M317 717q-41 -14 -52 -65t23 -105l72 -106q47 31 71.5 67t26.5 69t-7 61t-27 50q-22 22 -51 30t-56 -1zM207 105q27 -34 71.5 -45t90 8.5t68.5 69.5l-163 235l-50 -32q-30 -21 -47.5 -56.5t-12 -84.5t42.5 -95zM743 116h15q0 -56 -34 -88t-81 -37q-5 2 -27 0t-58 11
t-54 39l-56 82q-14 -42 -56 -76.5t-92 -49t-104.5 1t-90.5 64.5q-35 48 -36.5 96t25 86t56.5 64t65 47l50 30l-53 80q-45 62 -45.5 123.5t35 101t91.5 49.5q94 17 145 -41q17 -20 27 -47.5t10.5 -64.5t-26.5 -79.5t-80 -80.5l126 -187q42 92 115 109q41 10 67 -12
q18 -15 20.5 -38.5t-14.5 -42.5q-15 -18 -39 -20.5t-43 13.5q-18 16 -19 39q0 14 -21 7q-35 -13 -55 -60q-2 -4 -3 -7l79 -114q14 -20 34.5 -31.5t34.5 -12.5l14 -2q68 0 78 48z" />
    <glyph glyph-name="quotesingle" unicode="'" horiz-adv-x="258" 
d="M105 376l-30 328h114l-29 -328h-55z" />
    <glyph glyph-name="parenleft" unicode="(" horiz-adv-x="325" 
d="M313 745l13 -12q-50 -59 -82 -131t-43 -148.5t-13.5 -113t-2.5 -89.5q0 -319 139 -444l-13 -13q-64 36 -111 92t-72.5 119.5t-37 125.5t-11.5 123t12 124t37.5 130t73 129.5t111.5 107.5z" />
    <glyph glyph-name="parenright" unicode=")" horiz-adv-x="329" 
d="M-2 733l13 12q64 -45 111.5 -107.5t73 -129.5t37.5 -130t12 -124t-11.5 -123t-37 -125.5t-72.5 -119.5t-111 -92l-13 13q139 125 139 444q0 53 -2.5 89.5t-13.5 113t-43 148.5t-82 131z" />
    <glyph glyph-name="asterisk" unicode="*" horiz-adv-x="551" 
d="M483 519l-182 -29l131 -129l-75 -55l-83 165l-84 -165l-74 55l131 129l-183 29l29 87l164 -84l-29 182h92l-29 -182l164 84z" />
    <glyph glyph-name="plus" unicode="+" horiz-adv-x="715" 
d="M657 350v-80h-260v-270h-81v270h-260v80h260v269h81v-269h260z" />
    <glyph glyph-name="comma" unicode="," horiz-adv-x="254" 
d="M89 -129l-9 11q52 38 58 87q2 23 -8 24q-31 4 -48 21q-20 20 -20.5 49t19.5 50q21 21 50.5 21t49.5 -21q20 -20 21.5 -52t-8.5 -61t-27 -55q-30 -48 -78 -74z" />
    <glyph glyph-name="hyphen" unicode="-" horiz-adv-x="444" 
d="M379 215h-315v80h315v-80z" />
    <glyph glyph-name="period" unicode="." horiz-adv-x="252" 
d="M127 -5q-30 0 -51 21t-21 51t21 51t51 21q29 0 50.5 -21t21.5 -51t-21.5 -51t-50.5 -21z" />
    <glyph glyph-name="slash" unicode="/" horiz-adv-x="420" 
d="M403 725l-308 -746h-81l308 746h81z" />
    <glyph glyph-name="zero" unicode="0" horiz-adv-x="619" 
d="M450 346q0 135 -18 214.5t-47.5 108.5t-75.5 29q-48 0 -77.5 -29t-47 -108.5t-17.5 -214.5q0 -134 18 -211t47.5 -103t76.5 -26q49 0 78 26.5t46 102.5t17 211zM583 346q0 -355 -274 -355q-275 0 -275 355q0 367 275 367q274 0 274 -367z" />
    <glyph glyph-name="one" unicode="1" horiz-adv-x="405" 
d="M344 15v-15h-273v15q19 0 31.5 2t27 9t22 24t7.5 43v454q0 29 -11.5 39.5t-28.5 5t-29.5 -12.5t-22.5 -15l-9 14l174 135h33v-620q0 -22 5.5 -37.5t12 -23.5t19 -12t20.5 -4.5t22 -0.5z" />
    <glyph glyph-name="two" unicode="2" horiz-adv-x="487" 
d="M437 165h14l-45 -165h-367l224 332q81 129 33 215q-31 57 -98 65q-70 9 -115 -41q-18 -21 -27 -50l-15 4q5 53 26 92t48 56.5t53.5 27.5t44.5 11l18 1q74 0 122.5 -49t48.5 -118q0 -46 -27 -94t-94 -134q-22 -28 -59 -80.5l-63 -91.5l-26 -38h212q61 0 92 57z" />
    <glyph glyph-name="three" unicode="3" horiz-adv-x="514" 
d="M56 44q-29 26 -17 68q8 26 32 39t50 5t39 -32t5 -50q-7 -27 -29 -36q-8 -4 8 -14q27 -18 86 -18q73 0 103.5 48.5t23.5 127.5q-2 22 -11 45t-28.5 50t-59 46.5t-92.5 25.5v16q57 14 91.5 45.5t42 67t-3 70.5t-37.5 58t-67.5 25t-77 -20t-49.5 -63l-15 3q4 45 24.5 78.5
t43 49t51.5 24t41 9.5t21 1q44 0 83.5 -20t61.5 -54t27.5 -74.5t-18 -86.5t-75.5 -85q70 -26 110.5 -73t42.5 -99q3 -63 -18.5 -110t-58.5 -72t-76 -36.5t-80 -11.5q-109 0 -174 53z" />
    <glyph glyph-name="four" unicode="4" horiz-adv-x="538" 
d="M278 261v297l-169 -250q-15 -21 -15.5 -32t6.5 -13t22 -2h156zM500 200h-100v-67q0 -42 6 -67.5t19 -35.5t24 -12.5t31 -2.5v-15h-282v15q20 0 31 2.5t24 12.5t19 34.5t6 63.5v72h-250v15l329 496l43 -7v-443h100v-61z" />
    <glyph glyph-name="five" unicode="5" horiz-adv-x="535" 
d="M483 232q4 -79 -33 -135.5t-94 -81t-127 -24.5q-98 0 -160 52q-29 29 -19 69q8 26 32.5 39.5t51.5 6.5q26 -7 39.5 -31.5t5.5 -51.5q-6 -26 -30 -37q-11 -5 4 -16q22 -16 76 -16q95 0 140 58.5t23 133.5q-6 21 -20 40.5t-40 42t-63.5 35t-92 18t-124.5 -8.5l67 379h346
l-35 -112h-313l-29 -161q106 17 179.5 7.5t121 -44t70 -75.5t24.5 -87z" />
    <glyph glyph-name="six" unicode="6" horiz-adv-x="563" 
d="M401 199q0 100 -29.5 149t-75.5 49t-84 -27t-38 -72q0 -155 26 -223.5t87 -68.5q60 0 87 41t27 152zM524 218q0 -112 -64 -169.5t-173 -57.5q-123 0 -184 86.5t-61 240.5q0 172 83 283.5t204 111.5q97 0 135 -65q8 -14 7 -33.5t-11 -35.5q-16 -22 -42.5 -27t-49.5 11
q-22 15 -26.5 42t11.5 49q17 24 39 25q8 1 -4 8q-16 10 -52 11q-34 1 -62 -17t-51 -58t-36 -112.5t-13 -172.5q38 97 163 97q98 0 142.5 -63t44.5 -154z" />
    <glyph glyph-name="seven" unicode="7" horiz-adv-x="553" 
d="M67 704h451l-64 -108q-58 -103 -92 -228t-42.5 -207t-8.5 -161h-123q5 144 58 279t193 317h-284q-66 0 -95 -58h-15z" />
    <glyph glyph-name="eight" unicode="8" horiz-adv-x="552" 
d="M394 553q-1 79 -36 112t-87 33q-44 0 -74.5 -30t-30.5 -82q0 -56 38 -95.5t122 -72.5q30 13 49.5 48.5t18.5 86.5zM284 -9q-248 0 -248 165q0 61 50.5 113.5t111.5 69.5q-132 81 -132 191q0 88 58.5 135.5t146.5 47.5q91 0 145.5 -40.5t54.5 -110.5q0 -48 -35 -94.5
t-92 -59.5q77 -37 126 -92.5t49 -119.5q0 -106 -64 -155.5t-171 -49.5zM254 308q-23 12 -36 20q-32 -15 -60 -56t-28 -112q0 -72 42 -113t112 -41q51 0 89 33t37 99q-1 54 -41.5 93t-114.5 77z" />
    <glyph glyph-name="nine" unicode="9" horiz-adv-x="555" 
d="M160 507q0 -100 29.5 -149.5t75.5 -49.5q45 0 83 28t38 74q0 152 -25.5 220t-86.5 68q-59 0 -86.5 -41.5t-27.5 -149.5zM37 488q0 110 64.5 167.5t172.5 57.5q123 0 183 -83.5t60 -237.5q0 -191 -71 -296t-211 -105q-104 0 -144 68q-8 14 -7 33.5t11 35.5q16 22 43 27
t49 -11q22 -15 26.5 -42t-11.5 -49q-17 -24 -40 -25q-7 -1 7 -9q21 -12 58 -13q95 -2 126.5 71.5t32.5 290.5q-41 -98 -162 -98q-98 0 -142.5 63.5t-44.5 154.5z" />
    <glyph glyph-name="colon" unicode=":" horiz-adv-x="252" 
d="M127 304q-31 0 -52 21.5t-21 51.5t21 51.5t52 21.5q29 0 51 -21.5t22 -51.5t-22 -51.5t-51 -21.5zM127 16q-31 0 -52 21t-21 51q0 31 21 52.5t52 21.5q29 0 51 -22t22 -52t-21.5 -51t-51.5 -21z" />
    <glyph glyph-name="semicolon" unicode=";" horiz-adv-x="251" 
d="M126 303q-30 0 -51 21.5t-21 52.5q0 30 21 51.5t51 21.5q31 0 52 -21.5t21 -51.5q0 -31 -21 -52.5t-52 -21.5zM84 -104q48 26 78 74q17 26 27 55t8.5 61t-21.5 52q-20 21 -49.5 21t-50.5 -21q-20 -21 -19.5 -50t20.5 -49q17 -17 48 -21q13 -2 6 -32q-10 -45 -56 -79z" />
    <glyph glyph-name="less" unicode="&#x3c;" horiz-adv-x="600" 
d="M170 266l383 -201v-81l-507 260v43l507 260v-82z" />
    <glyph glyph-name="equal" unicode="=" horiz-adv-x="613" 
d="M567 344h-511v71h511v-71zM567 119h-511v71h511v-71z" />
    <glyph glyph-name="greater" unicode="&#x3e;" horiz-adv-x="600" 
d="M47 65l383 201l-383 199v82l507 -260v-43l-507 -260v81z" />
    <glyph glyph-name="question" unicode="?" horiz-adv-x="584" 
d="M348 69q0 -31 -22 -52.5t-53 -21.5t-52 21.5t-21 52.5t21 52.5t52 21.5t53 -21.5t22 -52.5zM350 345q-39 -13 -59 -45.5t-16 -77.5l-23 -4q-16 101 52 158q39 33 56.5 74.5t11.5 114.5q-8 94 -69.5 126t-131.5 5q-31 -13 -30 -34q0 -10 9 -11q22 -3 37 -24q14 -20 10 -45
t-24 -39t-45 -9t-40 26q-16 23 -6 61q6 22 26.5 47.5t52.5 39.5q82 32 156 27t126 -50.5t55 -115.5q2 -51 -12 -92.5t-39 -67.5t-48.5 -41t-48.5 -23z" />
    <glyph glyph-name="at" unicode="@" horiz-adv-x="880" 
d="M515 81l16.5 76.5l20.5 95.5q2 11 3 26.5t-1 39t-14 39.5t-34 16q-46 0 -82.5 -48.5t-49.5 -119.5q-15 -78 8 -117.5t63 -43.5q20 -2 37.5 7t25.5 19zM525 615q138 -6 228.5 -105t73.5 -266q-6 -63 -28 -111.5t-49.5 -74t-62.5 -41.5t-61.5 -20.5t-52.5 -4.5
q-33 0 -49.5 18.5t-12.5 43.5q-8 -11 -21 -23t-44.5 -25.5t-66.5 -13.5q-60 0 -87.5 53.5t-19.5 119.5q3 27 11.5 56t26 60.5t41 56t59.5 40t79 15.5q10 0 19.5 -1.5t16.5 -3.5t13.5 -5t11 -6.5l8.5 -6.5t7 -6t4.5 -5.5t2.5 -4.5l1 -1l5 26l84 -1l-59 -299q-6 -15 0 -32.5
t28 -17.5q43 0 93.5 56t56.5 163q2 38 -2 74.5t-19 78.5t-41 73.5t-73.5 55t-110.5 28.5q-84 6 -155 -22t-118.5 -79.5t-77.5 -116.5t-39 -136q-1 -7 -2.5 -20t-1 -49.5t6.5 -70.5t25 -76.5t49.5 -74.5t85 -56t126.5 -30q52 -4 103 9.5t73.5 26.5t29.5 20l9 -13
q-3 -3 -8.5 -8t-26.5 -18t-46 -23t-66.5 -18t-87.5 -8q-48 0 -96.5 9.5t-102 37t-93 69t-64 111.5t-20.5 160q4 101 47.5 185.5t111.5 139t153.5 83t174.5 25.5z" />
    <glyph glyph-name="A" unicode="A" horiz-adv-x="698" 
d="M172 220h239l-124 312zM683 15v-15h-257v15q70 0 23 110l-32 80h-248q-6 -16 -9.5 -29t-8.5 -39t-2 -45t11.5 -38.5t32 -29.5t58.5 -9v-15h-235v15q16 0 25 4.5t26.5 24.5t41 70t56.5 134l171 456h13l251 -612q5 -13 10 -23.5t11 -18t9 -13.5t9.5 -9.5t8.5 -6t9 -3.5
t8 -1.5t9 -0.5z" />
    <glyph glyph-name="B" unicode="B" horiz-adv-x="615" 
d="M261 689h-42v-325h50q25 0 45 6t40.5 22.5t32 53t11.5 89.5q0 42 -9.5 72.5t-22.5 46t-34 24t-35.5 10t-35.5 1.5zM568 179q0 -37 -9 -65t-22 -46.5t-37.5 -31.5t-46 -20t-59 -11t-64.5 -4.5t-72 -0.5h-221v9q58 0 58 119v448q0 120 -58 120v8h221q39 0 59 -0.5t53 -3.5
t50.5 -9.5t40 -19t33.5 -30.5t19 -45t8 -63q0 -43 -16.5 -76t-38.5 -50.5t-48.5 -28.5t-43.5 -14t-26 -3q25 0 48 -2.5t56.5 -13t57 -28.5t41 -54t17.5 -84zM439 184q0 46 -11.5 78.5t-27 49t-41.5 25.5t-44 10.5t-46 1.5h-50v-334h42q27 0 39 0.5t35.5 3.5t34.5 9t27 18
t23.5 29.5t13 45t5.5 63.5z" />
    <glyph glyph-name="C" unicode="C" horiz-adv-x="681" 
d="M610 209h15l13 -156q-54 -36 -110 -49t-140 -13q-157 0 -252 100.5t-95 260.5t95 260.5t252 100.5q86 0 146 -12.5t104 -48.5l-13 -156h-15q-57 202 -222 202q-44 0 -76.5 -14t-60 -50t-42 -107t-14.5 -175q0 -85 10.5 -147.5t27 -100t42.5 -60t52.5 -30.5t60.5 -8
q79 0 143.5 54.5t78.5 148.5z" />
    <glyph glyph-name="D" unicode="D" horiz-adv-x="735" 
d="M541 350q0 91 -18 156.5t-43 100t-63.5 54t-68 24t-67.5 4.5h-44v-674h44q27 0 47 1.5t49 8.5t49.5 20t43.5 38t37.5 59.5t24 87.5t9.5 120zM689 350q0 -86 -24 -150.5t-61.5 -102t-93.5 -60t-109.5 -30t-119.5 -7.5h-240v15q32 0 51.5 31t19.5 82v448q0 48 -19.5 80.5
t-51.5 32.5v15h240q408 0 408 -354z" />
    <glyph glyph-name="E" unicode="E" horiz-adv-x="625" 
d="M547 213h15v-213h-533v15q56 0 56 112v455q0 107 -56 107v15h520v-185h-15q-4 40 -23 71t-49 48.5t-58.5 29t-63.5 15.5t-51.5 5t-34.5 1h-45v-326h50q10 0 21 0.5t35.5 6t42.5 15t34 30.5t18 50h15v-220h-15q-2 29 -18 50t-34 31t-43 15.5t-35.5 6t-20.5 0.5h-50v-333
h41q21 0 36 1t52 5.5t66 17.5t60.5 33.5t53 57t29.5 83.5z" />
    <glyph glyph-name="F" unicode="F" horiz-adv-x="573" 
d="M27 704h528v-185h-15q-25 170 -289 170h-44v-325h49q10 0 16.5 0.5t27 2.5t36.5 8.5t34 17t29.5 29t14.5 43.5h15v-220h-15q-4 30 -21 51t-35 30.5t-44.5 14.5t-36 5.5t-21.5 0.5h-49v-218q0 -72 20.5 -93t60.5 -21v-15h-261v15q56 0 56 112v455q0 107 -56 107v15z" />
    <glyph glyph-name="G" unicode="G" horiz-adv-x="730" 
d="M446 280h259v-15q-32 0 -44.5 -13.5t-18 -60t-5.5 -158.5q-109 -42 -257 -42q-157 0 -249 103t-92 258t92 258t249 103q170 0 253 -55l-7 -166h-28q-16 115 -69.5 160.5t-148.5 45.5q-45 0 -77.5 -16t-57.5 -53.5t-37.5 -106.5t-12.5 -170t13 -170t38 -106.5t57.5 -53.5
t76.5 -16q89 0 119 22t30 90q0 70 -9 102t-23.5 38.5t-50.5 6.5v15z" />
    <glyph glyph-name="H" unicode="H" horiz-adv-x="634" 
d="M567 563v-427q0 -76 5 -90q8 -22 42 -31v-15h-192v15q19 7 22.5 28t3.5 93v192h-258v-192v-17q0 -62 3.5 -79.5t22.5 -24.5v-15h-193v15q15 4 24 9.5t14 10t7 19t2.5 24t0.5 37.5v21v427q0 32 -0.5 45.5t-2.5 31.5t-7 25.5t-14.5 14t-23.5 9.5v15h193v-15
q-19 -6 -22.5 -28t-3.5 -98v-216h258v216v16q0 63 -4 83.5t-22 26.5v15h192v-15q-33 -6 -40 -29.5t-7 -96.5z" />
    <glyph glyph-name="I" unicode="I" horiz-adv-x="363" 
d="M47 704h279v-15q-78 0 -78 -84v-491q0 -48 22 -73.5t56 -25.5v-15h-279v15q34 0 56 25t22 74v491q0 84 -78 84v15z" />
    <glyph glyph-name="J" unicode="J" horiz-adv-x="418" 
d="M90 704h287v-15q-36 0 -59.5 -23t-23.5 -69v-415q0 -306 -289 -349l-4 15q167 60 167 328v299q0 147 -11 180.5t-67 33.5v15z" />
    <glyph glyph-name="K" unicode="K" horiz-adv-x="770" 
d="M757 15v-15h-132q-41 0 -65.5 5.5t-53 30t-49 52l-67.5 93.5l-106 146l132 160l22.5 27t29 39t25.5 47t8.5 42t-18 33.5t-58.5 13.5v15h303v-15q-32 0 -55 -7t-63 -33.5t-96.5 -88t-134.5 -161.5l242 -324q45 -60 136 -60zM38 704h273v-15q-39 0 -60.5 -17t-21.5 -67
v-491q0 -99 71 -99v-15h-262v15q67 0 67 99v491q0 45 -16.5 64.5t-50.5 19.5v15z" />
    <glyph glyph-name="L" unicode="L" horiz-adv-x="640" 
d="M564 217h14v-217h-533v15q63 0 63 109v478q0 87 -71 87v15h277v-15q-83 0 -83 -89v-585h36q23 0 40 1t54 6t66 18.5t59.5 34t51 57.5t26.5 85z" />
    <glyph glyph-name="M" unicode="M" horiz-adv-x="949" 
d="M845 119q0 -53 24 -78.5t60 -25.5v-15h-279v15q72 0 72 104v542l-253 -670h-15l-280 606v-346q0 -32 3.5 -63t15.5 -75t41 -71t73 -27v-15h-293v15q47 0 79 27t45 71t17 75.5t4 62.5v370q-13 23 -28 37.5t-34 20.5t-25.5 7.5t-24.5 2.5v15h226l250 -537l199 537h200v-15
q-35 0 -56 -21.5t-21 -66.5v-482z" />
    <glyph glyph-name="N" unicode="N" horiz-adv-x="822" 
d="M508 704h294v-15q-145 1 -145 -236v-453h-43l-431 549v-296q0 -238 134 -238v-15h-296v15q30 0 54 11.5t39.5 27.5t26 41t16 45t8 46.5t3 38.5t0.5 28v312l-40 51q-15 19 -29.5 33t-23.5 21t-21.5 11.5t-16 5.5t-15.5 1l-13 1v15h215l418 -527v276q0 19 -1 34t-4 47
t-12 55.5t-22.5 48t-38 38t-56.5 13.5v15z" />
    <glyph glyph-name="O" unicode="O" horiz-adv-x="755" 
d="M566 347q0 195 -47.5 273t-142.5 78q-96 0 -144 -78t-48 -273q0 -101 13 -169t39 -105t59.5 -52t80.5 -15q63 0 102.5 27t63.5 104t24 210zM711 347q0 -156 -88 -256t-247 -100t-247 100t-88 256t88.5 261t246.5 105t246.5 -105t88.5 -261z" />
    <glyph glyph-name="P" unicode="P" horiz-adv-x="619" 
d="M218 316h27q41 0 64 2t52.5 11.5t45 28.5t26.5 55t11 89t-11.5 90t-26.5 55.5t-45.5 28.5t-52.5 11.5t-63 1.5h-27v-373zM218 301v-164q0 -42 8.5 -68t26.5 -37t33.5 -14t40.5 -3v-15h-297v15q66 0 66 121v449q0 104 -68 104v15h217q65 0 112 -4.5t91.5 -17t72 -35
t44 -59t16.5 -86.5t-16.5 -86.5t-44 -58.5t-72 -34.5t-91.5 -17t-112 -4.5h-27z" />
    <glyph glyph-name="Q" unicode="Q" horiz-adv-x="751" 
d="M566 347q0 195 -47.5 273t-142.5 78q-96 0 -144 -78t-48 -273q0 -101 13 -169t39 -105t59.5 -52t80.5 -15q63 0 102.5 27t63.5 104t24 210zM711 347q0 -156 -88 -256t-247 -100t-247 100t-88 256t88.5 261t246.5 105t246.5 -105t88.5 -261zM426 -66l161 -56q22 -7 43 -8
t34 1t29 10t20.5 11t16.5 12l11 -11l-91 -77q-38 -31 -84 -35t-97.5 11t-140.5 53l-82 35q-70 30 -141 -22l-12 12q46 38 97 59t91 23t74 -1.5t53 -10.5z" />
    <glyph glyph-name="R" unicode="R" horiz-adv-x="687" 
d="M431 513q0 37 -5.5 65.5t-13 47t-24 31.5t-28 19t-36.5 9t-38 3.5t-43 0.5h-31v-352h31q26 0 39 0.5t35 2.5t33 6.5t26.5 12.5t23.5 21t16 31t11.5 44t3.5 58zM680 15v-15h-84h-45.5t-34 3.5t-26 4.5t-18.5 12.5t-15 17t-12 28.5t-13 36.5t-14 51.5l-19 64
q-10 36 -31 59.5t-46.5 32t-38 10.5t-24.5 2h-47v-209q0 -98 70 -98v-15h-258v15q67 0 67 104v487q0 45 -16.5 64t-50.5 19v15h219q65 0 110.5 -4t89 -15.5t69 -32t41 -55.5t15.5 -84q0 -91 -49.5 -132.5t-141.5 -49.5q28 1 51 -6.5t49 -29t49 -68.5t41 -119q9 -35 33 -57
t43 -28.5t37 -7.5z" />
    <glyph glyph-name="S" unicode="S" horiz-adv-x="586" 
d="M505 73q-2 -3 -6 -8.5t-20 -20t-37 -25t-58.5 -19.5t-81.5 -9q-50 0 -94.5 6t-73 15t-49.5 17.5t-30 14.5l-9 6v192h15q7 -41 20.5 -76.5t40 -74.5t72.5 -62t108 -23t93 42.5t16 101t-73 99.5l-159 102q-215 137 -111 285q2 3 6 8.5t20.5 18.5t37 23t56.5 18.5t78 8.5
q70 0 130.5 -12t85.5 -24l26 -12v-168h-15q-6 34 -19 64.5t-38 63.5t-68.5 53t-101.5 20q-40 0 -69.5 -23t-39 -56t10 -74.5t69.5 -73.5l160 -105q99 -66 127.5 -143.5t-19.5 -149.5z" />
    <glyph glyph-name="T" unicode="T" horiz-adv-x="676" 
d="M19 704h635v-189h-15q-2 48 -23.5 83.5t-48 52t-59.5 26t-48 11t-24 1.5h-39v-580q0 -47 22.5 -70.5t56.5 -23.5v-15h-280v15q34 0 56.5 23.5t22.5 70.5v580h-39q-9 0 -20.5 -1t-37 -5.5t-47.5 -16.5t-44.5 -29.5t-37 -49.5t-15.5 -72h-15v189z" />
    <glyph glyph-name="U" unicode="U" horiz-adv-x="736" 
d="M332 -9q-103 0 -171.5 67t-68.5 185v359q0 87 -75 87v15h284v-15q-39 0 -63 -18.5t-24 -69.5v-366q0 -89 49 -140.5t127 -51.5q71 0 121.5 52t50.5 143v284q0 22 -1 36.5t-7.5 42t-18.5 44.5t-38 30.5t-62 13.5v15h281v-15q-40 0 -68.5 -13.5t-41.5 -30t-20.5 -44.5
t-8 -42t-0.5 -37v-284q0 -70 -22.5 -121t-60.5 -77t-78 -37.5t-84 -11.5z" />
    <glyph glyph-name="V" unicode="V" horiz-adv-x="761" 
d="M475 704h265v-15q-27 0 -40.5 -4t-36.5 -25t-49 -72t-61 -138l-176 -450h-16l-249 612q-11 27 -23 44t-25.5 23.5t-22.5 8t-24 1.5v15h294v-15q-23 0 -37 -10.5t-17.5 -24t-3 -30.5t2.5 -25l3 -12l165 -429l115 296q28 87 31 126q7 109 -95 109v15z" />
    <glyph glyph-name="W" unicode="W" horiz-adv-x="1087" 
d="M798 704h275v-15q-34 0 -58.5 -14t-59 -68t-76.5 -157l-169 -450h-15l-173 439l-156 -439h-15l-244 610q-11 27 -22.5 44t-25 24t-23 9t-23.5 2v15h294v-15q-25 0 -39.5 -10t-18 -24t-2.5 -30t4 -25l4 -12l158 -416l101 289l-55 149q-13 35 -31 54t-30.5 22t-31.5 3v15
h294v-15q-29 0 -44.5 -12.5t-15.5 -34t1.5 -30.5t5.5 -23v-1l153 -420l104 286q1 2 7.5 23.5t10 34t8.5 37.5t5 41t-4.5 36.5t-15 33t-30 21t-47.5 8.5v15z" />
    <glyph glyph-name="X" unicode="X" horiz-adv-x="786" 
d="M647 100q37 -53 63 -68.5t57 -16.5v-15h-294v15q19 4 27 16t6.5 25t-9 30t-12.5 25.5t-10 15.5l-110 166l-55 -78q-3 -6 -16.5 -28.5t-20.5 -37l-17 -37t-9.5 -37.5t5.5 -30t24 -22.5t50 -7.5v-15h-279v15q18 0 26.5 1t32.5 11.5t47 31t61 63.5t83 106l57 80l-207 295
q-28 38 -52.5 58.5t-38.5 24t-33 3.5v15h314v-15q-22 0 -34 -12t-8 -39t29 -64l103 -152l53 75q2 4 11 19.5t14 25l13.5 27t11.5 29t5.5 27t-2 26t-13 20t-26 14t-42.5 4.5v15h303v-15q-24 0 -40.5 -3.5t-50 -20.5t-77 -62.5t-95.5 -118.5l-55 -77z" />
    <glyph glyph-name="Y" unicode="Y" horiz-adv-x="732" 
d="M439 704h279v-15q-16 0 -26.5 -1.5t-34 -13t-45 -32.5t-52.5 -65.5t-63 -107.5l-71 -148v-204q0 -53 22.5 -77t57.5 -24v-16h-279v16q35 0 57.5 24t22.5 77v165l-192 330q-20 35 -41.5 53.5t-33 21t-31.5 3.5v14h288v-14q-12 0 -19 -0.5t-19 -6.5t-14.5 -16.5t4 -33.5
t25.5 -56l144 -240l72 148q8 16 15.5 35t14 51t3.5 56.5t-24 43t-60 18.5v15z" />
    <glyph glyph-name="Z" unicode="Z" horiz-adv-x="581" 
d="M191 15h36q125 0 202 65.5t98 152.5h17l-25 -233h-495l388 689h-48q-120 0 -196.5 -48t-100.5 -139h-19l18 202h489z" />
    <glyph glyph-name="bracketleft" unicode="[" horiz-adv-x="321" 
d="M113 735h193v-15q-26 0 -40 -1.5t-32 -9t-26 -26t-8 -48.5v-690q0 -26 8.5 -42.5t26 -23t32.5 -8.5t39 -2v-15h-193v881z" />
    <glyph glyph-name="backslash" unicode="\" horiz-adv-x="423" 
d="M325 -19l-311 753h80l311 -753h-80z" />
    <glyph glyph-name="bracketright" unicode="]" horiz-adv-x="320" 
d="M11 735h193v-881h-193v15q24 0 39 2t32.5 8.5t26 23t8.5 42.5v690q0 30 -8 48.5t-26 26t-32 9t-40 1.5v15z" />
    <glyph glyph-name="asciicircum" unicode="^" horiz-adv-x="569" 
d="M293 704l182 -328h-37l-157 181l-154 -181h-38l181 328h23z" />
    <glyph glyph-name="underscore" unicode="_" horiz-adv-x="560" 
d="M0 -73h560v-53h-560v53z" />
    <glyph glyph-name="grave" unicode="`" horiz-adv-x="337" 
d="M100 720l173 -163h-29l-240 134z" />
    <glyph glyph-name="a" unicode="a" 
d="M298 241q-148 -33 -148 -125q0 -11 4 -25.5t22 -30.5t46 -16q55 0 76 55v142zM481 66l15 -6q-6 -26 -35 -47.5t-70 -21.5q-3 0 -9 0.5t-20.5 5t-26.5 12t-22.5 24.5t-13.5 41q-11 -35 -51 -59t-92 -24q-5 0 -12.5 0.5t-27.5 6t-35 15t-27.5 30.5t-12.5 50q0 30 10.5 51.5
t25 36t49 27.5t63 21.5t85.5 22.5l24 6v60q0 78 -36.5 113.5t-92.5 8.5q-34 -17 -36 -33q-1 -4 2 -4q21 -3 34 -20t9 -38t-21 -34q-17 -12 -38.5 -8.5t-33.5 20.5q-19 28 -4 55q25 45 78 73q20 10 43.5 15t37.5 5h14q85 0 118.5 -51.5t33.5 -148.5v-160q0 -3 0.5 -7.5
t3 -15.5t6.5 -20t14 -16t23 -7q22 0 28 21z" />
    <glyph glyph-name="b" unicode="b" horiz-adv-x="572" 
d="M409 215q0 116 -32 167.5t-97 51.5q-51 0 -80.5 -36t-29.5 -93v-139q0 -81 35 -120.5t86 -39.5q118 0 118 209zM533 226q0 -114 -66.5 -174.5t-173.5 -60.5q-91 0 -143 50q-36 -32 -70 -40q-15 -4 -15 4v630q0 26 -10.5 39t-40.5 21v15l156 32v-353q22 40 66 61t86 21
q93 0 152 -67.5t59 -177.5z" />
    <glyph glyph-name="c" unicode="c" horiz-adv-x="491" 
d="M444 128l12 -7q-13 -48 -61 -89t-131 -41q-91 0 -155 71t-64 170q0 95 68 167t183 72q89 0 134 -52q24 -29 10 -58q-8 -21 -29.5 -31t-43.5 -2t-30.5 29.5t-0.5 42.5q8 23 29 31q8 3 -8 12q-23 13 -61 13q-18 0 -38.5 -8.5t-45.5 -28.5t-41 -65t-16 -108q0 -84 38.5 -129
t97.5 -54q44 -6 90 15t63 50z" />
    <glyph glyph-name="d" unicode="d" horiz-adv-x="566" 
d="M396 142v158q0 78 -35.5 117t-84.5 39q-119 0 -119 -207q0 -118 31 -172t95 -54q50 0 81.5 33t31.5 86zM552 27v-15l-128 -20q-12 -2 -19 2.5t-8 9.5l-1 6v58q-22 -38 -65.5 -57.5t-84.5 -19.5q-94 0 -153 68t-59 178q0 115 66.5 174.5t173.5 59.5q69 0 122 -33v199
q0 26 -10 38t-41 20v15l156 32v-654q0 -36 10 -47.5t41 -13.5z" />
    <glyph glyph-name="e" unicode="e" horiz-adv-x="507" 
d="M148 255h214q0 96 -31 148.5t-73 52.5q-44 0 -77 -59.5t-33 -141.5zM436 127l14 -7q-13 -47 -62.5 -88t-134.5 -41q-93 0 -155 70.5t-62 166.5q0 107 63.5 175t162.5 68q204 0 204 -231h-318q4 -83 40 -127t93 -53q45 -7 92 12.5t63 54.5z" />
    <glyph glyph-name="f" unicode="f" horiz-adv-x="315" 
d="M356 639q-10 -20 -31 -28t-41 1q-21 10 -28.5 30.5t1.5 41.5q11 21 31 26q10 2 0 10q-12 10 -36 10q-23 0 -37.5 -21.5t-23 -82t-8.5 -164.5h110l-3 -15h-107v-348q0 -42 9.5 -60t35.5 -24v-15h-190v15q26 6 32.5 23.5t6.5 60.5v348h-64l-1 15h65q0 162 40.5 222
t133.5 60q33 0 60.5 -14.5t37.5 -29.5q20 -29 7 -61z" />
    <glyph glyph-name="g" unicode="g" horiz-adv-x="557" 
d="M345 309q0 136 -89 136q-42 0 -64.5 -29t-22.5 -107q0 -137 87 -137q89 0 89 137zM536 383q-17 -14 -37.5 -12.5t-34.5 17.5q-14 18 -10 37q1 8 -16 1q-17 -6 -28 -21q37 -39 37 -96q0 -63 -52 -107.5t-139 -44.5q-58 0 -94 16q-14 -4 -27.5 -20.5t-18.5 -35t11 -33
t55 -14.5h130q29 0 47 -1t46.5 -9t44.5 -22t26 -42.5t5 -68.5q0 -3 -1 -9t-7.5 -23t-16.5 -33.5t-32.5 -37t-51.5 -37.5q-104 -57 -211 -51.5t-137 65.5q-25 49 1.5 101t77.5 78q-48 22 -48 80q0 4 0.5 10t5 23t13 31.5t27.5 30.5t46 25q-37 16 -58.5 52t-21.5 77
q0 63 51.5 107t137.5 44q92 0 143 -45q33 49 92 57q30 5 51 -17q13 -17 11.5 -37.5t-17.5 -34.5zM98 -169q40 -48 118 -59t148 28q32 20 48 46.5t16 43.5v16q0 2 -1 5.5t-6.5 12.5t-13.5 16t-25 12.5t-39 5.5h-138q-54 0 -86 13q-15 -9 -25.5 -20t-15 -21t-6.5 -21
t-0.5 -20.5t4.5 -18.5t7 -16t7.5 -12.5t5.5 -7.5z" />
    <glyph glyph-name="h" unicode="h" horiz-adv-x="523" 
d="M506 15v-15h-187v15q26 8 33 28t7 65v201q0 99 -94 99q-27 0 -52.5 -20t-40.5 -50v-230q0 -45 8 -65.5t33 -26.5v-16h-187v16q26 8 33 28t7 64v526q0 26 -9.5 37.5t-40.5 19.5v15l156 36v-382q14 42 63.5 76.5t97.5 34.5q65 0 98.5 -36t33.5 -122v-205q0 -45 8 -66
t33 -27z" />
    <glyph glyph-name="i" unicode="i" horiz-adv-x="263" 
d="M121 553q-25 0 -42 17t-17 42t17 42.5t42 17.5t43 -17.5t18 -42.5t-18 -42t-43 -17zM225 15v-15h-186v15q26 8 33 28t7 64v250q0 26 -10.5 39t-40.5 26v15l156 34v-364q0 -45 8 -65t33 -27z" />
    <glyph glyph-name="j" unicode="j" horiz-adv-x="261" 
d="M122 553q-24 0 -41.5 17t-17.5 42t17.5 42.5t41.5 17.5q25 0 43 -17.5t18 -42.5t-18 -42t-43 -17zM79 27v326q0 27 -10 42t-40 27v15l155 34v-421q0 -132 -46.5 -194.5t-129.5 -83.5v15q25 7 41 41t21.5 82t7 72.5t1.5 44.5z" />
    <glyph glyph-name="k" unicode="k" horiz-adv-x="536" 
d="M523 15v-15h-115q-35 0 -56.5 10.5t-38.5 30.5t-57 77l-66 90l94 100l10.5 11l22.5 25.5t24 34.5t12 33t-10 26.5t-45 8.5v15h234v-15q-108 -3 -259 -179q49 -69 89.5 -121t55.5 -69l16 -18q32 -42 89 -45zM207 15v-15h-187v15q26 8 33 28t7 64v527q0 27 -10 40t-40 21
v15l156 32v-635q0 -45 8 -65.5t33 -26.5z" />
    <glyph glyph-name="l" unicode="l" horiz-adv-x="246" 
d="M220 15v-15h-187v15q26 8 33 28t7 64v527q0 27 -10 40t-40 21v15l156 32v-635q0 -45 8 -65.5t33 -26.5z" />
    <glyph glyph-name="m" unicode="m" horiz-adv-x="778" 
d="M756 15v-15h-187v15q26 8 33 28t7 64v205q0 98 -82 98q-32 0 -59.5 -28.5t-27.5 -57.5v-13l1 -204q0 -45 8 -65.5t33 -26.5v-15h-187v15q26 8 33 28t7 64v205q0 98 -81 98q-31 0 -58 -28t-30 -56v-220q0 -44 8 -64t33 -27v-15h-186v15q26 8 32.5 27t6.5 64v247
q0 27 -10 42t-40 27v15l156 34v-103q19 44 60 73.5t87 29.5q107 0 126 -107q15 46 57.5 76.5t89.5 30.5q64 0 96.5 -35t32.5 -121v-208q0 -45 8 -65.5t33 -26.5z" />
    <glyph glyph-name="n" unicode="n" horiz-adv-x="519" 
d="M499 15v-15h-187v15q26 8 33 28t7 64v205q0 44 -24.5 71t-67.5 27q-33 0 -62 -27t-32 -57v-220q0 -44 8 -64t33 -27v-15h-186v15q26 8 32.5 27t6.5 64v252q0 26 -9.5 38.5t-40.5 25.5v15l156 34v-106q16 44 64 75t96 31q64 0 98 -35t34 -121v-208q0 -45 8 -65.5t33 -26.5
z" />
    <glyph glyph-name="o" unicode="o" horiz-adv-x="548" 
d="M384 231q0 131 -25 178t-84 47q-39 0 -61.5 -18t-35 -68t-12.5 -139t12.5 -139t35 -68t61.5 -18q59 0 84 47t25 178zM510 231q0 -103 -62.5 -171.5t-172.5 -68.5t-172 68.5t-62 171.5t62 171.5t172 68.5q111 0 173 -68.5t62 -171.5z" />
    <glyph glyph-name="p" unicode="p" horiz-adv-x="579" 
d="M410 215q0 117 -32.5 169.5t-97.5 52.5q-46 0 -74.5 -31t-33.5 -81v-185q5 -68 38.5 -101t80.5 -33q119 0 119 209zM533 227q0 -114 -66.5 -175t-173.5 -61q-71 0 -121 34v-189q0 -44 7.5 -62t33.5 -24v-15h-187v15q26 8 33 25.5t7 60.5v531q0 26 -9.5 36.5t-40.5 18.5
v15l156 34v-79q21 39 64.5 59t85.5 20q93 0 152 -67t59 -177z" />
    <glyph glyph-name="q" unicode="q" horiz-adv-x="571" 
d="M395 132v171q-1 78 -32.5 115.5t-79.5 37.5q-118 0 -118 -206q0 -235 125 -235q48 0 75.5 32.5t29.5 84.5zM542 -250v-15h-186v15q26 8 32.5 25.5t6.5 60.5v210q-24 -27 -61.5 -41t-71.5 -14q-94 0 -153 68.5t-59 178.5q0 114 66 173.5t174 59.5q79 0 129 -39
q32 30 67 35q15 2 15 -6v-625q0 -44 7.5 -62t33.5 -24z" />
    <glyph glyph-name="r" unicode="r" horiz-adv-x="397" 
d="M297 467q41 10 69 -16q19 -19 19 -45.5t-19 -45.5t-45.5 -19.5t-46.5 18.5q-19 20 -17 44q1 10 -20 1q-39 -18 -66 -67v-229q0 -45 7.5 -65.5t33.5 -27.5v-15h-188v15q26 8 33 28t7 65v250q0 26 -10 39.5t-40 24.5v15l157 34v-108q51 85 126 104z" />
    <glyph glyph-name="s" unicode="s" horiz-adv-x="435" 
d="M358 43q-4 -6 -12.5 -14.5t-43 -23t-77.5 -14.5q-54 0 -98.5 10.5t-62.5 21.5l-17 11v131h15q4 -21 9 -37.5t17.5 -41t28.5 -40.5t44.5 -28t63.5 -12q42 0 59 26.5t3.5 62t-50.5 59.5l-101 61q-147 94 -73 202q4 6 12.5 15t43 24t79.5 15q51 0 92 -7.5t56 -15.5l16 -8
v-117h-15q-28 133 -149 133q-39 0 -57.5 -23t-7 -57t53.5 -60l101 -63q68 -42 87.5 -99.5t-17.5 -110.5z" />
    <glyph glyph-name="t" unicode="t" horiz-adv-x="335" 
d="M311 90l13 -8q-14 -36 -51 -63.5t-82 -27.5q-61 0 -91 33.5t-30 119.5v303h-50l-3 15h53v138l106 17v-155h119l-4 -15h-115v-300q0 -96 75 -96q20 0 36.5 12t23.5 27z" />
    <glyph glyph-name="u" unicode="u" horiz-adv-x="543" 
d="M523 29v-14l-131 -23q-12 -2 -18.5 2.5t-7.5 9.5v5v86q-16 -41 -63.5 -72.5t-96.5 -31.5q-63 0 -98.5 33.5t-35.5 118.5v219q0 50 -7 60.5t-49 14.5v15l161 19v-325q0 -94 94 -94q28 0 54.5 20t40.5 51v239q0 53 -6 62q-8 10 -41 13v15l153 19v-383q0 -35 9.5 -45
t41.5 -14z" />
    <glyph glyph-name="v" unicode="v" horiz-adv-x="518" 
d="M323 462h194v-14q-15 0 -25 -3t-26.5 -15t-34.5 -43t-39 -81l-122 -315h-13l-188 405q-11 23 -25.5 35.5t-22 14t-21.5 2.5v14h222v-14q-27 0 -33.5 -18t1.5 -36l7 -19l112 -241l66 171q2 6 5.5 15.5t7.5 34t1 43.5t-19 34.5t-47 15.5v14z" />
    <glyph glyph-name="w" unicode="w" horiz-adv-x="786" 
d="M590 462h187v-14q-12 0 -21.5 -3.5t-25.5 -15t-33.5 -42.5t-34.5 -79l-116 -317h-13l-140 313l-113 -313h-14l-183 409q-22 45 -64 48v14h214v-14q-26 0 -32.5 -16t-0.5 -32l7 -15l110 -247l68 186l-35 76q-22 46 -62 48v14h215v-14q-28 0 -35.5 -16t-0.5 -32l7 -16
l109 -246l63 175q2 5 5 14.5t5.5 32.5t-0.5 41t-19.5 32.5t-46.5 14.5v14z" />
    <glyph glyph-name="x" unicode="x" horiz-adv-x="529" 
d="M432 61q32 -46 90 -46v-15h-223v15q14 0 19 7t2.5 17.5t-7.5 21t-10 17.5l-5 7l-67 101l-38 -55q-77 -116 36 -116v-15h-214v15q14 0 23.5 2t31 12t50 39t62.5 75l40 56l-139 206q-17 21 -32.5 30.5t-20 10t-21.5 1.5v15h221v-15q-14 0 -22 -5.5t-6.5 -21t18.5 -39.5
l63 -95l34 45q40 65 29 91q-11 25 -60 25v15h220v-15q-39 -2 -64 -15q-53 -29 -116 -113l-35 -46z" />
    <glyph glyph-name="y" unicode="y" horiz-adv-x="536" 
d="M325 462h195v-14q-14 0 -24.5 -4t-27 -17.5t-36 -48t-41.5 -88.5l-154 -413q-26 -69 -69 -102q-12 -10 -32 -13t-36 4q-23 10 -32 34t1 47q11 23 34.5 32t46.5 -1t30 -36q4 -13 19 0q14 12 23 37l42 115l-188 409q-18 42 -67 45v14h221v-14q-26 0 -33 -17t-1 -33l6 -17
l115 -246l60 158q1 3 3 8.5t6.5 22t6.5 31t1 32.5t-7.5 31t-22 21.5t-39.5 8.5v14z" />
    <glyph glyph-name="z" unicode="z" horiz-adv-x="448" 
d="M409 462l-245 -447q184 0 214 137h15l-9 -152h-355l259 447q-100 0 -153.5 -28.5t-67.5 -88.5h-15l5 132h352z" />
    <glyph glyph-name="braceleft" unicode="{" horiz-adv-x="329" 
d="M272 -150v-14q-144 20 -144 167v117q0 22 -1.5 40t-3 31.5t-5.5 25l-6.5 19t-9 13.5t-9.5 9t-10.5 6t-10.5 4t-12 2.5t-11 2.5v13q2 1 12 3.5t13 4t11.5 5t12 8.5l9.5 13.5t9 20t6 27t4.5 36.5t1.5 47v117q0 147 144 167v-14q-33 -12 -48.5 -45.5t-15.5 -107.5v-144
q0 -76 -35 -110t-87 -34q122 0 122 -133v-144q0 -74 15.5 -108t48.5 -45z" />
    <glyph glyph-name="bar" unicode="|" horiz-adv-x="214" 
d="M73 -164v899h67v-899h-67z" />
    <glyph glyph-name="braceright" unicode="}" horiz-adv-x="327" 
d="M53 -164v14q33 11 48.5 45t15.5 108v144q0 133 122 133q-52 0 -87 34t-35 110v144q0 74 -15.5 107.5t-48.5 45.5v14q144 -20 144 -167v-117q0 -26 1.5 -47t4.5 -36.5t6 -27t9 -20l9.5 -13.5t12 -8.5t11.5 -5t13 -4t12 -3.5v-13q-2 -1 -11 -2.5t-12 -2.5t-10.5 -4
t-10.5 -6t-9.5 -9t-9 -13.5l-6.5 -19t-5.5 -25t-3 -31.5t-1.5 -40v-117q0 -147 -144 -167z" />
    <glyph glyph-name="asciitilde" unicode="~" horiz-adv-x="589" 
d="M343 204l-117 43q-20 5 -48.5 6t-60 -12.5t-43.5 -39.5l-13 5q18 46 44.5 75t51.5 38t46.5 11.5t34.5 -0.5l14 -4l117 -43q20 -5 48 -6t59 13.5t43 39.5l12 -5q-19 -46 -45 -75t-50 -38t-45.5 -12t-34.5 0z" />
    <glyph glyph-name="uni007F" horiz-adv-x="0" 
 />
    <glyph glyph-name="uni00A0" unicode="&#xa0;" horiz-adv-x="257" 
 />
    <glyph glyph-name="exclamdown" unicode="&#xa1;" horiz-adv-x="302" 
d="M124 356h56l27 -531h-111zM153 569q28 0 47 -19.5t19 -46.5q0 -28 -19 -47.5t-47 -19.5t-47.5 19.5t-19.5 47.5q0 27 19.5 46.5t47.5 19.5z" />
    <glyph glyph-name="cent" unicode="&#xa2;" horiz-adv-x="524" 
d="M185 246q0 -80 34.5 -124.5t88.5 -57.5v391q-46 -9 -84.5 -57.5t-38.5 -151.5zM474 128l12 -7q-11 -44 -51.5 -83.5t-108.5 -46.5v-109h-18v109q-108 1 -170.5 69.5t-62.5 170.5q0 59 26 111t80.5 88.5t126.5 40.5v122h18v-122q91 0 134 -53q24 -28 10 -58
q-8 -21 -30 -31t-43 -1q-22 8 -31 29.5t0 42.5q7 21 29 30q8 3 -8 12q-23 14 -61 14v-395q44 -4 88 17.5t60 49.5z" />
    <glyph glyph-name="sterling" unicode="&#xa3;" horiz-adv-x="659" 
d="M283 84q-59 37 -95 52q-65 28 -106 -0.5t-30 -67.5q17 -62 88 -62q99 0 143 78zM251 169q37 -14 44 -19q3 50 -46 127q-5 7 -25.5 38.5t-29.5 46.5h-94v15h87q-33 71 -39 133t10.5 103.5t47 72t69 44t79 13.5t74.5 -15q68 -29 89 -86q12 -35 -18 -65q-19 -18 -45.5 -17.5
t-45.5 19.5t-18 45.5t20 44.5q16 16 45 16q13 -1 -2 13q-13 12 -30 17q-32 9 -61.5 9.5t-52.5 -9t-39 -28t-22 -48t-1.5 -67t24 -87.5t52.5 -108h180v-15h-171l30 -41q59 -96 7 -196q8 -5 28.5 -13.5t37.5 -14.5l17 -6q51 -17 95.5 -3t50.5 47l15 -3q0 -38 -14 -67
t-34.5 -43t-35 -20.5t-21.5 -7.5q-69 -8 -187 66q-57 -69 -180 -69q-7 0 -18 2t-29 8.5t-34 22.5t-24 40q-6 12 -2.5 28.5t9 34t23.5 32t41 23t60.5 6t83.5 -18.5z" />
    <glyph glyph-name="currency" unicode="&#xa4;" horiz-adv-x="588" 
d="M175 460q-48 -46 -48 -115t48 -115q48 -48 115 -48q68 0 114 48q48 48 48 115q0 66 -47 115q-48 48 -115 48t-115 -48zM479 205l83 -82l-50 -50l-82 82q-62 -46 -140 -46t-141 46l-81 -82l-50 50l82 82q-46 63 -46 140q0 78 46 140l-82 82l50 50l81 -82q61 46 141 46
t140 -46l82 82l50 -50l-83 -82q46 -60 46 -140q0 -79 -46 -140z" />
    <glyph glyph-name="yen" unicode="&#xa5;" horiz-adv-x="661" 
d="M406 689v15h279v-15q-20 0 -35.5 -4.5t-45 -22.5t-65.5 -67t-75 -126l-71 -146h168v-16h-168v-70h168v-16h-168v-105q0 -52 22.5 -76.5t57.5 -24.5v-15h-280v15q35 0 57.5 24.5t22.5 76.5v105h-189v16h189v45l-15 25h-174v16h166l-169 288q-20 36 -41 54.5t-32.5 21
t-31.5 3.5v14h287v-14q-12 0 -19 -0.5t-18.5 -6.5t-14.5 -17t3.5 -34t25.5 -56l144 -238l71 146q6 13 12 28t14 40.5t8.5 47.5t-4.5 43t-25.5 33.5t-53.5 12.5z" />
    <glyph glyph-name="brokenbar" unicode="&#xa6;" horiz-adv-x="212" 
d="M141 735v-375h-70v375h70zM141 186v-377h-70v377h70z" />
    <glyph glyph-name="section" unicode="&#xa7;" horiz-adv-x="545" 
d="M189 394q-36 -24 -55.5 -47t-21 -44t3.5 -39t23 -36.5t33.5 -31.5t38.5 -28l47 -30l49 -31t24 -15q20 -12 35 -25q35 25 53.5 49t19 45.5t-5 39.5t-24.5 36.5t-34.5 31t-38.5 27.5q-18 13 -46.5 31.5l-50 32t-24.5 15.5q-25 18 -26 19zM379 55q78 -71 67 -164
q-4 -42 -22 -72.5t-42.5 -44t-52.5 -22t-53.5 -7t-45.5 1.5q-38 3 -68 20.5t-41 35.5q-19 31 -2 59q11 21 33.5 27t44.5 -5q20 -11 26.5 -34t-5.5 -43q-12 -22 -37 -25q-7 -1 8 -8q18 -9 40 -12q54 -7 91 17.5t42 73.5q6 40 -10 70.5t-65 64.5l-126 83q-45 30 -72 68
t-33.5 82t23 93t96.5 92q-78 71 -68 168q17 160 210 145q38 -3 68 -21t41 -36q19 -30 3 -59q-12 -21 -34.5 -27t-43.5 5q-20 12 -26.5 34.5t4.5 42.5q12 20 29 23q9 2 -5 11q-12 8 -33 11q-59 5 -97.5 -18.5t-43.5 -72.5q-5 -39 13.5 -71t68.5 -65l125 -82q45 -29 73 -68.5
t35.5 -84.5t-21.5 -94.5t-94 -91.5z" />
    <glyph glyph-name="dieresis" unicode="&#xa8;" horiz-adv-x="263" 
d="M166 645q0 22 15.5 37.5t36.5 15.5q22 0 38 -15.5t16 -37.5t-15.5 -37t-38.5 -15q-21 0 -36.5 15t-15.5 37zM-8 645q0 22 15.5 37.5t37.5 15.5t37 -15.5t15 -37.5t-15 -37t-37 -15t-37.5 15t-15.5 37z" />
    <glyph glyph-name="copyright" unicode="&#xa9;" horiz-adv-x="808" 
d="M522 276h14l5 -86q-52 -35 -138 -35q-89 0 -142.5 57t-53.5 147t53.5 146.5t142.5 56.5q96 0 138 -34l-5 -86h-14q-14 106 -119 106q-109 0 -109 -189q0 -190 109 -190q105 0 119 107zM775 368q0 -154 -109 -263t-263 -109q-155 0 -264 109t-109 263q0 155 109 264
t264 109q154 0 263 -109.5t109 -263.5zM710 368q0 127 -90.5 218.5t-216.5 91.5q-127 0 -218 -91t-91 -219q0 -127 91 -218t218 -91q126 0 216.5 91t90.5 218z" />
    <glyph glyph-name="ordfeminine" unicode="&#xaa;" horiz-adv-x="300" 
d="M155 579q-78 -18 -78 -61q0 -6 2.5 -13t12 -15t24.5 -8t25.5 11t13.5 24v62zM248 493l11 -4q-3 -14 -17 -25t-37 -11h-5t-11 2.5t-14.5 6t-12 11.5t-6.5 19q-5 -16 -26.5 -27.5t-48.5 -11.5q-7 0 -17 1.5t-26.5 14.5t-16.5 37q0 37 26 52.5t99 33.5q6 1 9 2v30
q0 40 -19.5 56t-49.5 3q-16 -8 -16 -15q11 0 18 -10q13 -20 -7 -37q-22 -14 -37 6q-10 13 -2 28q9 24 39 39q11 5 23.5 7.5t19.5 2.5h8q44 0 62 -27t18 -77v-84q0 -4 0.5 -10t6.5 -15.5t17 -9.5q10 0 12 12z" />
    <glyph glyph-name="guillemotleft" unicode="&#xab;" horiz-adv-x="610" 
d="M522 505v-33l-135 -206l135 -201v-32l-231 233zM318 505v-33l-136 -206l136 -201v-32l-231 233z" />
    <glyph glyph-name="logicalnot" unicode="&#xac;" horiz-adv-x="648" 
d="M41 394h560v-314h-72v243h-488v71z" />
    <glyph glyph-name="uni00AD" unicode="&#xad;" horiz-adv-x="444" 
d="M379 215h-315v80h315v-80z" />
    <glyph glyph-name="registered" unicode="&#xae;" horiz-adv-x="811" 
d="M469 460q0 26 -6 44t-13 27t-23.5 13t-26 4.5t-32.5 0.5h-17v-181h17q22 0 33 0.5t26.5 5.5t23 14t13 27t5.5 45zM775 369q0 -154 -109 -263t-263 -109t-263.5 109t-109.5 263q0 155 109 264t264 109q154 0 263 -109.5t109 -263.5zM710 369q0 128 -90 218.5t-217 90.5
t-217.5 -90.5t-90.5 -218.5q0 -127 90.5 -217t217.5 -90t217 90t90 217zM604 196v-14h-46q-15 0 -22 0.5t-17 0.5t-14 3t-9.5 4t-8.5 8t-6.5 10t-6 15.5t-5.5 19.5t-7.5 25.5t-8.5 31.5q-7 25 -26 38.5t-35 14.5l-15 1h-26v-105q0 -53 37 -53v-14h-139v14q37 0 37 57v257
q0 24 -8.5 31.5t-28.5 7.5v14h119q91 0 133 -20t42 -83q0 -49 -26.5 -71.5t-76.5 -27.5q32 2 58.5 -23.5t44.5 -98.5q10 -43 61 -43z" />
    <glyph glyph-name="macron" unicode="&#xaf;" horiz-adv-x="360" 
d="M377 591h-393v60h393v-60z" />
    <glyph glyph-name="degree" unicode="&#xb0;" horiz-adv-x="381" 
d="M93 607q0 -39 27.5 -66.5t67.5 -27.5q38 0 65.5 27.5t27.5 66.5q0 38 -27.5 65.5t-65.5 27.5q-40 0 -67.5 -27.5t-27.5 -65.5zM57 607q0 54 38.5 92t91.5 38t91.5 -38t38.5 -92q0 -53 -38.5 -91t-91.5 -38t-91.5 38t-38.5 91z" />
    <glyph glyph-name="plusminus" unicode="&#xb1;" horiz-adv-x="608" 
d="M335 373h225v-71h-225v-162h-71v162h-223v71h223v162h71v-162zM41 0v71h519v-71h-519z" />
    <glyph glyph-name="twosuperior" unicode="&#xb2;" horiz-adv-x="266" 
d="M206 454h13l-20 -75h-168l103 152q43 68 10 108q-23 27 -59 18q-31 -8 -41 -41l-14 3q3 39 25.5 60t42.5 23l21 2q34 0 56.5 -22t22.5 -53q0 -36 -51 -104l-66 -96h83q27 0 42 25z" />
    <glyph glyph-name="threesuperior" unicode="&#xb3;" horiz-adv-x="271" 
d="M231 480q2 -54 -33 -80.5t-75 -26.5q-46 0 -78 26q-13 12 -8 31q3 12 14 18t23 3q12 -4 18 -15t3 -23q-5 -13 -14 -17q-5 -1 4 -4q12 -5 38 -5q31 0 47 22.5t11 54.5q-9 62 -86 70v15q34 8 50 28.5t12.5 42t-20.5 35.5q-19 17 -46 9t-36 -36l-15 2q2 21 11.5 36t20 22
t24 11t19 4.5t9.5 0.5q25 0 46 -14.5t30 -36t0 -48t-37 -48.5q32 -9 49 -30.5t19 -46.5z" />
    <glyph glyph-name="acute" unicode="&#xb4;" horiz-adv-x="360" 
d="M87 558l173 163l96 -29l-240 -134h-29z" />
    <glyph glyph-name="mu" unicode="&#xb5;" horiz-adv-x="539" 
d="M518 29v-15l-131 -22q-12 -2 -18.5 2t-6.5 10l-1 5v86q-17 -48 -75 -80t-114 -17v-161q0 -36 10 -48.5t42 -15.5v-15l-130 -22q-12 -2 -19 2t-7 10l-1 5v609q0 49 -7 60t-49 15v15l161 19v-329q3 -90 94 -90q28 0 54.5 20t40.5 51v239q0 53 -6 62q-8 10 -41 13v15l153 19
v-384q0 -35 9 -44.5t42 -13.5z" />
    <glyph glyph-name="paragraph" unicode="&#xb6;" horiz-adv-x="643" 
d="M482 559v-673q0 -60 20 -98t55 -38v-15h-139v969h146v-15q-36 0 -59 -38t-23 -92zM288 704h64v-969h-189v15q21 0 40 5t39.5 17t32.5 39t12 66v423q-56 0 -97.5 8.5t-78 29t-55.5 61.5t-19 101q0 202 250 204h1z" />
    <glyph glyph-name="periodcentered" unicode="&#xb7;" horiz-adv-x="260" 
d="M132 246q-22 0 -38 15.5t-16 37.5t16 37.5t38 15.5t37.5 -15.5t15.5 -37.5t-15.5 -37.5t-37.5 -15.5z" />
    <glyph glyph-name="cedilla" unicode="&#xb8;" horiz-adv-x="272" 
d="M116 -4h15l-21 -60q64 15 97.5 -13t28.5 -71q-4 -32 -24 -51.5t-39.5 -25t-40.5 -5.5q-43 0 -68 21q-13 11 -8 28q3 11 13 16.5t21 2.5q11 -4 17 -13.5t3 -20.5q-2 -9 -9 -12q-1 -1 0.5 -3t9.5 -4t21 -2q25 0 40 15.5t15 40.5q0 26 -25 52.5t-77 16.5z" />
    <glyph glyph-name="onesuperior" unicode="&#xb9;" horiz-adv-x="221" 
d="M139 433q0 -38 38 -38v-15h-132v15q43 0 43 38v186q0 12 -5 17t-11.5 3t-12.5 -4.5t-9 -5.5l-11 15l85 61h15v-272z" />
    <glyph glyph-name="ordmasculine" unicode="&#xba;" horiz-adv-x="327" 
d="M162 388q33 0 49.5 30t16.5 119t-17.5 122t-48.5 33q-32 0 -49.5 -33t-17.5 -122q0 -88 17.5 -118.5t49.5 -30.5zM162 707q128 0 128 -170q0 -164 -128 -164q-129 0 -129 164q0 170 129 170z" />
    <glyph glyph-name="guillemotright" unicode="&#xbb;" horiz-adv-x="609" 
d="M84 472v33l231 -239l-231 -233v32l135 201zM288 472v33l231 -239l-231 -233v32l136 201z" />
    <glyph glyph-name="onequarter" unicode="&#xbc;" horiz-adv-x="642" 
d="M453 136v144l-80 -119q-9 -19 -7 -22t14 -3h73zM570 708h58l-557 -672h-57zM222 389v-14h-137v14q13 0 21 2t15.5 11t7.5 27v227q0 13 -5 17.5t-12.5 2.5t-13.5 -5.5t-11 -7.5l-9 13l88 70h17v-317q0 -14 3.5 -23t10 -12t11.5 -4t14 -1zM569 105h-52v-30q0 -28 6.5 -42
t13.5 -16.5t21 -2.5v-14h-146v14q13 0 20.5 2.5t14 16t6.5 40.5v32h-130v8l170 254l24 -3v-228h52v-31z" />
    <glyph glyph-name="onehalf" unicode="&#xbd;" horiz-adv-x="647" 
d="M593 86h14l-24 -86h-191l116 174q49 78 12 122q-25 30 -64 21q-37 -8 -49 -47l-14 4q4 44 28.5 68.5t47.5 27.5l23 2q39 0 64 -25.5t25 -61.5q0 -24 -13.5 -50t-46.5 -68l-75 -110h96q35 0 51 29zM570 708h58l-557 -672h-57zM222 389v-14h-137v14q13 0 21 2t15.5 11
t7.5 27v227q0 13 -5 17.5t-12.5 2.5t-13.5 -5.5t-11 -7.5l-9 13l88 70h17v-317q0 -14 3.5 -23t10 -12t11.5 -4t14 -1z" />
    <glyph glyph-name="threequarters" unicode="&#xbe;" horiz-adv-x="643" 
d="M453 136v144l-80 -119q-9 -19 -7 -22t14 -3h73zM570 708h58l-557 -672h-57zM147 372q-55 0 -89 29q-16 14 -10 34q4 14 16.5 21.5t25.5 2.5q14 -4 21.5 -17t2.5 -26q-4 -13 -13 -17q-5 -1 4 -6q13 -7 42 -7q38 0 53.5 25t10.5 64q-9 75 -97 83v13q39 9 57 32.5t14 48
t-23 39.5q-21 18 -52 8.5t-41 -41.5l-15 5q2 23 12.5 40t22 25t26.5 12.5t21 5t10 0.5q40 0 67 -26.5t23 -66t-47 -71.5q36 -9 56.5 -35t22.5 -54q1 -34 -11 -59t-31.5 -37.5t-39.5 -18.5t-39 -6zM569 105h-52v-30q0 -28 6.5 -42t13.5 -16.5t21 -2.5v-14h-146v14
q13 0 20.5 2.5t14 16t6.5 40.5v32h-130v8l170 254l24 -3v-228h52v-31z" />
    <glyph glyph-name="questiondown" unicode="&#xbf;" horiz-adv-x="596" 
d="M252 399q0 31 21.5 53t52.5 22t52.5 -22t21.5 -53t-21.5 -52t-52.5 -21t-52.5 21t-21.5 52zM249 124q40 13 60 46t16 78l23 3q15 -100 -53 -158q-39 -33 -56.5 -74.5t-11.5 -114.5q6 -63 40 -100t77 -39.5t87 11.5q33 13 27 34q-2 7 -8 8q-22 3 -37 24q-14 20 -10 45.5
t24 39.5t45 8.5t39 -25.5q17 -23 7 -62q-6 -20 -27.5 -45.5t-54.5 -39.5q-83 -33 -156.5 -26.5t-124.5 52t-54 111.5q-2 51 12 93t39 67.5t48.5 40.5t48.5 23z" />
    <glyph glyph-name="Agrave" unicode="&#xc0;" horiz-adv-x="698" 
d="M411 220h-239l115 312zM683 15q-1 0 -7.5 0.5t-8.5 0.5t-7.5 1t-8 2.5t-8 4.5t-8 7t-8 9.5t-9 13t-8.5 17t-10 21.5l-251 612h-13l-171 -456q-33 -84 -56.5 -134t-41 -70t-26.5 -24.5t-25 -4.5v-15h235v15q-35 -1 -58.5 9t-32 29.5t-11.5 38.5t2 45t8.5 39t9.5 29h248
l32 -80q47 -110 -23 -110v-15h257v15zM305 898l173 -163h-29l-240 134z" />
    <glyph glyph-name="Aacute" unicode="&#xc1;" horiz-adv-x="698" 
d="M172 220h239l-124 312zM683 15v-15h-257v15q70 0 23 110l-32 80h-248q-6 -16 -9.5 -29t-8.5 -39t-2 -45t11.5 -38.5t32 -29.5t58.5 -9v-15h-235v15q16 0 25 4.5t26.5 24.5t41 70t56.5 134l171 456h13l251 -612q5 -13 10 -23.5t11 -18t9 -13.5t9.5 -9.5t8.5 -6t9 -3.5
t8 -1.5t9 -0.5zM219 735l173 163l96 -29l-240 -134h-29z" />
    <glyph glyph-name="Acircumflex" unicode="&#xc2;" horiz-adv-x="698" 
d="M411 220h-239l115 312zM683 15q-1 0 -7.5 0.5t-8.5 0.5t-7.5 1t-8 2.5t-8 4.5t-8 7t-8 9.5t-9 13t-8.5 17t-10 21.5l-251 612h-13l-171 -456q-33 -84 -56.5 -134t-41 -70t-26.5 -24.5t-25 -4.5v-15h235v15q-35 -1 -58.5 9t-32 29.5t-11.5 38.5t2 45t8.5 39t9.5 29h248
l32 -80q47 -110 -23 -110v-15h257v15zM462 735l-118 89l-119 -89h-30l149 187l149 -187h-31z" />
    <glyph glyph-name="Atilde" unicode="&#xc3;" horiz-adv-x="698" 
d="M389 758l-117 44q-20 4 -48 5t-59 -12.5t-43 -39.5l-12 5q18 46 44.5 75t50.5 38t45.5 12t34.5 -1l13 -3l117 -43q20 -5 48.5 -5.5t59 14.5t42.5 40l12 -7q-18 -46 -44.5 -75t-50.5 -38.5t-45.5 -12t-34.5 0.5zM172 220h239l-124 312zM683 15v-15h-257v15q70 0 23 110
l-32 80h-248q-6 -16 -9.5 -29t-8.5 -39t-2 -45t11.5 -38.5t32 -29.5t58.5 -9v-15h-235v15q16 0 25 4.5t26.5 24.5t41 70t56.5 134l171 456h13l251 -612q5 -13 10 -23.5t11 -18t9 -13.5t9.5 -9.5t8.5 -6t9 -3.5t8 -1.5t9 -0.5z" />
    <glyph glyph-name="Adieresis" unicode="&#xc4;" horiz-adv-x="698" 
d="M378 830q0 22 15 37.5t37 15.5t38 -15.5t16 -37.5t-16 -37t-38 -15t-37 15t-15 37zM204 830q0 22 15.5 37.5t36.5 15.5q22 0 37.5 -15.5t15.5 -37.5t-15.5 -37t-37.5 -15q-21 0 -36.5 15t-15.5 37zM172 220h239l-124 312zM683 15v-15h-257v15q70 0 23 110l-32 80h-248
q-6 -16 -9.5 -29t-8.5 -39t-2 -45t11.5 -38.5t32 -29.5t58.5 -9v-15h-235v15q16 0 25 4.5t26.5 24.5t41 70t56.5 134l171 456h13l251 -612q5 -13 10 -23.5t11 -18t9 -13.5t9.5 -9.5t8.5 -6t9 -3.5t8 -1.5t9 -0.5z" />
    <glyph glyph-name="Aring" unicode="&#xc5;" horiz-adv-x="698" 
d="M281 880q0 -26 18.5 -44t43.5 -18q26 0 44.5 18t18.5 44t-18.5 44.5t-44.5 18.5t-44 -18.5t-18 -44.5zM242 880q0 42 29.5 72.5t71.5 30.5q43 0 73 -30.5t30 -72.5t-30 -72t-73 -30q-42 0 -71.5 30t-29.5 72zM172 220h239l-124 312zM683 15v-15h-257v15q70 0 23 110
l-32 80h-248q-6 -16 -9.5 -29t-8.5 -39t-2 -45t11.5 -38.5t32 -29.5t58.5 -9v-15h-235v15q16 0 25 4.5t26.5 24.5t41 70t56.5 134l171 456h13l251 -612q5 -13 10 -23.5t11 -18t9 -13.5t9.5 -9.5t8.5 -6t9 -3.5t8 -1.5t9 -0.5z" />
    <glyph glyph-name="AE" unicode="&#xc6;" horiz-adv-x="970" 
d="M235 254h214v328q0 30 -3 46zM892 212h14v-212h-527v15q36 0 53 22.5t17 89.5v112h-220q-33 -61 -47 -105t-12.5 -66.5t16.5 -35t29.5 -15t37.5 -2.5v-15h-243v15q15 1 29.5 9t39.5 31.5t62 78t84 136.5l214 381q-7 17 -19 26t-23 10.5t-30 1.5v15h526v-185h-15
q-3 35 -18 63t-34 45.5t-46.5 30t-49.5 18.5t-49.5 9t-39.5 3.5t-27 0.5h-41v-327h46q11 0 19 0.5t31 5.5t38.5 14.5t30 30.5t16.5 51h15v-219h-15q-2 30 -16.5 51t-30 30.5t-38.5 14.5t-31 5.5t-19 0.5h-46v-332h36q17 0 29 0.5t41 4t51 10t51.5 21.5t50 35t37.5 52.5
t23 73.5z" />
    <glyph glyph-name="Ccedilla" unicode="&#xc7;" horiz-adv-x="681" 
d="M373 -9q-150 4 -241 104.5t-91 256.5q0 160 95 260.5t252 100.5q86 0 146 -12.5t104 -48.5l-13 -156h-15q-57 202 -222 202q-44 0 -76.5 -14t-60 -50t-42 -107t-14.5 -175q0 -85 10.5 -147.5t27 -100t42.5 -60t52.5 -30.5t60.5 -8q79 0 143.5 54.5t78.5 148.5h15l13 -156
q-54 -36 -110 -49t-140 -13l-19 -56q64 15 97.5 -13t28.5 -71q-4 -32 -24 -51.5t-39.5 -25t-40.5 -5.5q-43 0 -68 21q-13 11 -8 28q3 11 13 16.5t21 2.5q25 -8 20 -34q-3 -9 -9 -12q-1 -1 0.5 -3.5t9.5 -4t21 -1.5q25 0 40.5 15.5t14.5 40.5q0 26 -25 52.5t-77 16.5z" />
    <glyph glyph-name="Egrave" unicode="&#xc8;" horiz-adv-x="625" 
d="M562 213h-15q-8 -47 -29.5 -83.5t-53 -57t-60.5 -33.5t-66 -17.5t-52 -5.5t-36 -1h-41v333h50q10 0 20.5 -0.5t35.5 -6t43 -15.5t34 -31t18 -50h15v220h-15q-2 -29 -18 -50t-34 -30.5t-42.5 -15t-35.5 -6t-21 -0.5h-50v326h45q18 0 34.5 -1t51.5 -5t63.5 -15.5t58.5 -29
t49 -48.5t23 -71h15v185h-520v-15q56 0 56 -107v-455q0 -112 -56 -112v-15h533v213zM259 898l173 -163h-29l-240 134z" />
    <glyph glyph-name="Eacute" unicode="&#xc9;" horiz-adv-x="625" 
d="M547 213h15v-213h-533v15q56 0 56 112v455q0 107 -56 107v15h520v-185h-15q-4 40 -23 71t-49 48.5t-58.5 29t-63.5 15.5t-51.5 5t-34.5 1h-45v-326h50q10 0 21 0.5t35.5 6t42.5 15t34 30.5t18 50h15v-220h-15q-2 29 -18 50t-34 31t-43 15.5t-35.5 6t-20.5 0.5h-50v-333
h41q21 0 36 1t52 5.5t66 17.5t60.5 33.5t53 57t29.5 83.5zM148 735l173 163l96 -29l-240 -134h-29z" />
    <glyph glyph-name="Ecircumflex" unicode="&#xca;" horiz-adv-x="625" 
d="M562 213h-15q-8 -47 -29.5 -83.5t-53 -57t-60.5 -33.5t-66 -17.5t-52 -5.5t-36 -1h-41v333h50q10 0 20.5 -0.5t35.5 -6t43 -15.5t34 -31t18 -50h15v220h-15q-2 -29 -18 -50t-34 -30.5t-42.5 -15t-35.5 -6t-21 -0.5h-50v326h45q18 0 34.5 -1t51.5 -5t63.5 -15.5t58.5 -29
t49 -48.5t23 -71h15v185h-520v-15q56 0 56 -107v-455q0 -112 -56 -112v-15h533v213zM410 735l-118 89l-119 -89h-30l149 187l149 -187h-31z" />
    <glyph glyph-name="Edieresis" unicode="&#xcb;" horiz-adv-x="625" 
d="M328 830q0 22 15.5 37.5t37.5 15.5t37.5 -15.5t15.5 -37.5t-15.5 -37t-37.5 -15t-37.5 15t-15.5 37zM154 830q0 22 15.5 37.5t37.5 15.5t37.5 -15.5t15.5 -37.5t-15.5 -37t-37.5 -15t-37.5 15t-15.5 37zM547 213h15v-213h-533v15q56 0 56 112v455q0 107 -56 107v15h520
v-185h-15q-4 40 -23 71t-49 48.5t-58.5 29t-63.5 15.5t-51.5 5t-34.5 1h-45v-326h50q10 0 21 0.5t35.5 6t42.5 15t34 30.5t18 50h15v-220h-15q-2 29 -18 50t-34 31t-43 15.5t-35.5 6t-20.5 0.5h-50v-333h41q21 0 36 1t52 5.5t66 17.5t60.5 33.5t53 57t29.5 83.5z" />
    <glyph glyph-name="Igrave" unicode="&#xcc;" horiz-adv-x="361" 
d="M44 689v15h279v-15q-78 0 -78 -84v-490q0 -49 22 -74.5t56 -25.5v-15h-279v15q34 0 56 25.5t22 74.5v490q0 84 -78 84zM141 898l173 -163h-29l-240 134z" />
    <glyph glyph-name="Iacute" unicode="&#xcd;" horiz-adv-x="361" 
d="M44 689v15h279v-15q-78 0 -78 -84v-490q0 -49 22 -74.5t56 -25.5v-15h-279v15q34 0 56 25.5t22 74.5v490q0 84 -78 84zM46 735l173 163l96 -29l-240 -134h-29z" />
    <glyph glyph-name="Icircumflex" unicode="&#xce;" horiz-adv-x="361" 
d="M44 689v15h279v-15q-78 0 -78 -84v-490q0 -49 22 -74.5t56 -25.5v-15h-279v15q34 0 56 25.5t22 74.5v490q0 84 -78 84zM304 735l-118 89l-119 -89h-30l149 187l149 -187h-31z" />
    <glyph glyph-name="Idieresis" unicode="&#xcf;" horiz-adv-x="361" 
d="M271 778q-22 0 -37.5 15t-15.5 37t15.5 37.5t37.5 15.5t37.5 -15.5t15.5 -37.5t-15.5 -37t-37.5 -15zM150 830q0 -22 -15.5 -37t-37.5 -15t-37.5 15t-15.5 37t15.5 37.5t37.5 15.5t37.5 -15.5t15.5 -37.5zM44 689v15h279v-15q-78 0 -78 -84v-490q0 -49 22 -74.5t56 -25.5
v-15h-279v15q34 0 56 25.5t22 74.5v490q0 84 -78 84z" />
    <glyph glyph-name="Eth" unicode="&#xd0;" horiz-adv-x="732" 
d="M537 350q0 91 -18 156.5t-43 100t-63.5 54t-68 24t-67.5 4.5h-44v-328h145v-19h-145v-327h44q27 0 47 1.5t49 8.5t50 20t44 38t37 59.5t23.5 87.5t9.5 120zM685 350q0 -86 -24 -150.5t-61.5 -102t-93.5 -60t-109.5 -30t-119.5 -7.5h-239v15q32 0 51.5 31t19.5 82v214h-83
v19h83v215q0 48 -19.5 80.5t-51.5 32.5v15h239q408 0 408 -354z" />
    <glyph glyph-name="Ntilde" unicode="&#xd1;" horiz-adv-x="822" 
d="M455 758l-117 44q-20 4 -47.5 5t-58.5 -12.5t-43 -39.5l-12 5q18 46 44 75t50 38t45.5 12t34.5 -1l13 -3l117 -43q20 -5 48.5 -5.5t59 14.5t42.5 40l12 -7q-18 -46 -44.5 -75t-50.5 -38.5t-45.5 -12t-34.5 0.5zM508 704h294v-15q-144 1 -144 -237v-452h-44l-430 547v-295
q0 -237 133 -237v-15h-296v15q146 0 146 237v314l-39 50q-15 19 -29.5 33t-23.5 21t-21.5 11.5t-16 5.5t-15.5 1l-13 1v15h215l417 -527v275q0 238 -133 237v15z" />
    <glyph glyph-name="Ograve" unicode="&#xd2;" horiz-adv-x="755" 
d="M566 347q0 -133 -24 -210t-63.5 -104t-102.5 -27q-47 0 -80.5 15t-59.5 52t-39 105t-13 169q0 195 48 273t144 78q95 0 142.5 -78t47.5 -273zM711 347q0 156 -88.5 261t-246.5 105t-246.5 -105t-88.5 -261t88 -256t247 -100t247 100t88 256zM318 898l173 -163h-29
l-240 134z" />
    <glyph glyph-name="Oacute" unicode="&#xd3;" horiz-adv-x="755" 
d="M566 347q0 195 -47.5 273t-142.5 78q-96 0 -144 -78t-48 -273q0 -101 13 -169t39 -105t59.5 -52t80.5 -15q63 0 102.5 27t63.5 104t24 210zM711 347q0 -156 -88 -256t-247 -100t-247 100t-88 256t88.5 261t246.5 105t246.5 -105t88.5 -261zM235 735l173 163l96 -29
l-240 -134h-29z" />
    <glyph glyph-name="Ocircumflex" unicode="&#xd4;" horiz-adv-x="755" 
d="M566 347q0 -133 -24 -210t-63.5 -104t-102.5 -27q-47 0 -80.5 15t-59.5 52t-39 105t-13 169q0 195 48 273t144 78q95 0 142.5 -78t47.5 -273zM711 347q0 156 -88.5 261t-246.5 105t-246.5 -105t-88.5 -261t88 -256t247 -100t247 100t88 256zM493 735l-118 89l-119 -89
h-30l149 187l149 -187h-31z" />
    <glyph glyph-name="Otilde" unicode="&#xd5;" horiz-adv-x="755" 
d="M309 802q-20 4 -48 5t-59 -12.5t-43 -39.5l-12 4q18 46 44.5 75.5t50.5 38.5t45.5 12t34.5 -1l13 -3l117 -44q20 -4 48 -4.5t59 14.5t43 40l12 -7q-19 -46 -45 -75t-50 -38.5t-45.5 -12t-34.5 0.5l-13 3zM566 347q0 -133 -24 -210t-63.5 -104t-102.5 -27q-47 0 -80.5 15
t-59.5 52t-39 105t-13 169q0 195 48 273t144 78q95 0 142.5 -78t47.5 -273zM711 347q0 156 -88.5 261t-246.5 105t-246.5 -105t-88.5 -261t88 -256t247 -100t247 100t88 256z" />
    <glyph glyph-name="Odieresis" unicode="&#xd6;" horiz-adv-x="755" 
d="M411 830q0 22 15.5 37.5t37.5 15.5t37.5 -15.5t15.5 -37.5t-15.5 -37.5t-37.5 -15.5t-37.5 15.5t-15.5 37.5zM238 830q0 22 15 37.5t37 15.5t37.5 -15.5t15.5 -37.5t-15.5 -37.5t-37.5 -15.5t-37 15.5t-15 37.5zM566 347q0 195 -47.5 273t-142.5 78q-96 0 -144 -78
t-48 -273q0 -101 13 -169t39 -105t59.5 -52t80.5 -15q63 0 102.5 27t63.5 104t24 210zM711 347q0 -156 -88 -256t-247 -100t-247 100t-88 256t88.5 261t246.5 105t246.5 -105t88.5 -261z" />
    <glyph glyph-name="multiply" unicode="&#xd7;" horiz-adv-x="600" 
d="M356 254l185 -184l-56 -57l-185 185l-184 -185l-57 57l185 184l-185 185l57 57l184 -185l185 185l56 -57z" />
    <glyph glyph-name="Oslash" unicode="&#xd8;" horiz-adv-x="756" 
d="M377 6q63 0 102.5 27t63.5 104t24 210q0 158 -34 241l-302 -501q42 -81 146 -81zM185 347q0 -156 37 -240l302 501q-43 90 -147 90q-96 0 -144 -78t-48 -273zM573 654q67 -49 103 -129.5t36 -177.5q0 -156 -88 -256t-247 -100q-101 0 -178 44l-42 -70h-21l48 79
q-69 46 -105.5 125t-36.5 178q0 156 88.5 261t246.5 105q104 0 181 -49l48 81h21z" />
    <glyph glyph-name="Ugrave" unicode="&#xd9;" horiz-adv-x="736" 
d="M320 898l173 -163h-29l-240 134zM332 -9q44 0 84 11.5t78 37.5t60.5 77t22.5 121v284q0 23 0.5 37t8 42t20.5 44.5t41.5 30t68.5 13.5v15h-281v-15q36 0 62 -13.5t38 -30.5t18.5 -44.5t7.5 -42t1 -36.5v-284q0 -91 -50.5 -143t-121.5 -52q-78 0 -127 51.5t-49 140.5v366
q0 51 24 69.5t63 18.5v15h-284v-15q75 0 75 -87v-359q0 -118 68.5 -185t171.5 -67z" />
    <glyph glyph-name="Uacute" unicode="&#xda;" horiz-adv-x="736" 
d="M332 -9q-103 0 -171.5 67t-68.5 185v359q0 87 -75 87v15h284v-15q-39 0 -63 -18.5t-24 -69.5v-366q0 -89 49 -140.5t127 -51.5q71 0 121.5 52t50.5 143v284q0 22 -1 36.5t-7.5 42t-18.5 44.5t-38 30.5t-62 13.5v15h281v-15q-40 0 -68.5 -13.5t-41.5 -30t-20.5 -44.5
t-8 -42t-0.5 -37v-284q0 -70 -22.5 -121t-60.5 -77t-78 -37.5t-84 -11.5zM235 735l173 163l96 -29l-240 -134h-29z" />
    <glyph glyph-name="Ucircumflex" unicode="&#xdb;" horiz-adv-x="736" 
d="M496 735l-118 89l-119 -89h-30l149 187l149 -187h-31zM332 -9q44 0 84 11.5t78 37.5t60.5 77t22.5 121v284q0 23 0.5 37t8 42t20.5 44.5t41.5 30t68.5 13.5v15h-281v-15q36 0 62 -13.5t38 -30.5t18.5 -44.5t7.5 -42t1 -36.5v-284q0 -91 -50.5 -143t-121.5 -52
q-78 0 -127 51.5t-49 140.5v366q0 51 24 69.5t63 18.5v15h-284v-15q75 0 75 -87v-359q0 -118 68.5 -185t171.5 -67z" />
    <glyph glyph-name="Udieresis" unicode="&#xdc;" horiz-adv-x="736" 
d="M401 830q0 22 15.5 37.5t37.5 15.5t37.5 -15.5t15.5 -37.5t-15.5 -37.5t-37.5 -15.5t-37.5 15.5t-15.5 37.5zM228 830q0 22 15 37.5t37 15.5t37.5 -15.5t15.5 -37.5t-15.5 -37.5t-37.5 -15.5t-37 15.5t-15 37.5zM332 -9q-103 0 -171.5 67t-68.5 185v359q0 87 -75 87v15
h284v-15q-39 0 -63 -18.5t-24 -69.5v-366q0 -89 49 -140.5t127 -51.5q71 0 121.5 52t50.5 143v284q0 22 -1 36.5t-7.5 42t-18.5 44.5t-38 30.5t-62 13.5v15h281v-15q-40 0 -68.5 -13.5t-41.5 -30t-20.5 -44.5t-8 -42t-0.5 -37v-284q0 -70 -22.5 -121t-60.5 -77t-78 -37.5
t-84 -11.5z" />
    <glyph glyph-name="Yacute" unicode="&#xdd;" horiz-adv-x="732" 
d="M439 704h279v-15q-15 0 -26 -1.5t-34.5 -13.5t-45 -33.5t-52.5 -66t-63 -106.5l-71 -148v-203q0 -53 22.5 -77.5t57.5 -24.5v-15h-279v15q35 0 57.5 24.5t22.5 77.5v165l-192 329q-20 35 -41 53.5t-33.5 21.5t-31.5 4v14h288v-14q-12 0 -19 -0.5t-18.5 -6.5t-14.5 -17
t3.5 -34t25.5 -56l143 -238l71 147q6 13 12 28t14 40.5t8.5 47.5t-4.5 42.5t-25.5 33t-53.5 12.5v15zM257 735l173 163l96 -29l-240 -134h-29z" />
    <glyph glyph-name="Thorn" unicode="&#xde;" horiz-adv-x="628" 
d="M234 562v-371h27q30 0 46.5 0.5t40.5 4t38 10.5t30 20.5t24.5 33t14 48.5t5.5 67q0 34 -4 61t-12.5 46t-18 33t-25.5 22.5t-28.5 13.5t-34.5 7.5t-36.5 3t-39.5 0.5h-27zM261 176h-27v-57q0 -49 21 -76.5t54 -27.5v-15h-273v15q33 0 54.5 27.5t21.5 76.5v481
q0 45 -20.5 67t-55.5 22v15h273v-15q-34 0 -54.5 -22t-20.5 -67v-23h27q65 0 112 -4.5t91.5 -17t71.5 -35t43.5 -59t16.5 -86.5t-16.5 -86.5t-43.5 -58t-71.5 -34t-91.5 -16.5t-112 -4z" />
    <glyph glyph-name="germandbls" unicode="&#xdf;" horiz-adv-x="605" 
d="M581 202q0 -94 -55.5 -152.5t-176.5 -58.5q-73 0 -100 41q-20 29 -9 57q7 20 27 28.5t40 0.5q19 -7 28 -27t1 -40q-9 -19 -28 -28q-9 -3 3 -10t38 -7q109 0 107 206q0 50 -19 90t-47.5 62t-58.5 33.5t-58 11.5v15q49 0 80.5 32.5t31.5 123.5q0 45 -11.5 76.5t-24 46
t-33.5 21.5t-27.5 7.5t-18.5 0.5q-27 0 -47 -21t-29 -51t-13.5 -59.5t-4.5 -50.5l-1 -21v-529h-147v15q26 8 33 33t7 72v375q0 118 50.5 185t151.5 67q44 0 78 -6.5t67 -24t51.5 -53t18.5 -88.5q0 -44 -18 -77t-43 -49t-44 -23t-30 -7q23 0 50.5 -6t60 -22.5t59 -40t44 -62
t17.5 -86.5z" />
    <glyph glyph-name="agrave" unicode="&#xe0;" 
d="M298 241v-142q-21 -55 -76 -55q-28 0 -46 16t-22 30.5t-4 25.5q0 92 148 125zM481 66q-3 -9 -10 -14.5t-13 -5.5l-5 -1q-21 0 -32.5 16.5t-12.5 32.5l-2 17v160q0 97 -33.5 148.5t-118.5 51.5q-51 3 -95 -20q-53 -28 -78 -73q-15 -27 4 -55q12 -17 33.5 -20.5t38.5 8.5
q17 13 21 34t-9 38t-34 20q-8 1 4 15q10 12 30 22q56 27 92.5 -8.5t36.5 -113.5v-60q-146 -37 -184 -55q-64 -30 -72 -88q-1 -11 -1 -22q0 -29 12 -50t29 -30.5t33.5 -15t28.5 -5.5l12 -1q52 0 92 24t51 59q4 -37 27 -58t44 -23l21 -2q41 0 70 21.5t35 47.5zM218 704
l173 -163h-29l-240 134z" />
    <glyph glyph-name="aacute" unicode="&#xe1;" 
d="M298 241q-148 -33 -148 -125q0 -11 4 -25.5t22 -30.5t46 -16q55 0 76 55v142zM481 66l15 -6q-6 -26 -35 -47.5t-70 -21.5q-3 0 -9 0.5t-20.5 5t-26.5 12t-22.5 24.5t-13.5 41q-11 -35 -51 -59t-92 -24q-5 0 -12.5 0.5t-27.5 6t-35 15t-27.5 30.5t-12.5 50q0 30 10.5 51.5
t25 36t49 27.5t63 21.5t85.5 22.5l24 6v60q0 78 -36.5 113.5t-92.5 8.5q-34 -17 -36 -33q-1 -4 2 -4q21 -3 34 -20t9 -38t-21 -34q-17 -12 -38.5 -8.5t-33.5 20.5q-19 28 -4 55q25 45 78 73q20 10 43.5 15t37.5 5h14q85 0 118.5 -51.5t33.5 -148.5v-160q0 -3 0.5 -7.5
t3 -15.5t6.5 -20t14 -16t23 -7q22 0 28 21zM127 541l173 163l96 -29l-240 -134h-29z" />
    <glyph glyph-name="acircumflex" unicode="&#xe2;" 
d="M298 241v-142q-21 -55 -76 -55q-28 0 -46 16t-22 30.5t-4 25.5q0 92 148 125zM481 66q-3 -9 -10 -14.5t-13 -5.5l-5 -1q-21 0 -32.5 16.5t-12.5 32.5l-2 17v160q0 97 -33.5 148.5t-118.5 51.5q-51 3 -95 -20q-53 -28 -78 -73q-15 -27 4 -55q12 -17 33.5 -20.5t38.5 8.5
q17 13 21 34t-9 38t-34 20q-8 1 4 15q10 12 30 22q56 27 92.5 -8.5t36.5 -113.5v-60q-146 -37 -184 -55q-64 -30 -72 -88q-1 -11 -1 -22q0 -29 12 -50t29 -30.5t33.5 -15t28.5 -5.5l12 -1q52 0 92 24t51 59q4 -37 27 -58t44 -23l21 -2q41 0 70 21.5t35 47.5zM381 517
l-118 89l-119 -89h-30l149 187l149 -187h-31z" />
    <glyph glyph-name="atilde" unicode="&#xe3;" 
d="M307 554l-117 43q-20 5 -48 6t-59 -12.5t-43 -39.5l-12 4q18 46 44.5 75t50.5 38.5t45.5 12t34.5 -0.5l13 -3l117 -44q20 -5 48 -5t59 14.5t43 39.5l12 -6q-19 -46 -45 -75t-50 -38.5t-45.5 -12t-34.5 0.5zM298 241q-148 -33 -148 -125q0 -11 4 -25.5t22 -30.5t46 -16
q55 0 76 55v142zM481 66l15 -6q-6 -26 -35 -47.5t-70 -21.5q-3 0 -9 0.5t-20.5 5t-26.5 12t-22.5 24.5t-13.5 41q-11 -35 -51 -59t-92 -24q-5 0 -12.5 0.5t-27.5 6t-35 15t-27.5 30.5t-12.5 50q0 30 10.5 51.5t25 36t49 27.5t63 21.5t85.5 22.5l24 6v60q0 78 -36.5 113.5
t-92.5 8.5q-34 -17 -36 -33q-1 -4 2 -4q21 -3 34 -20t9 -38t-21 -34q-17 -12 -38.5 -8.5t-33.5 20.5q-19 28 -4 55q25 45 78 73q20 10 43.5 15t37.5 5h14q85 0 118.5 -51.5t33.5 -148.5v-160q0 -3 0.5 -7.5t3 -15.5t6.5 -20t14 -16t23 -7q22 0 28 21z" />
    <glyph glyph-name="adieresis" unicode="&#xe4;" 
d="M344 563q-22 0 -37 15.5t-15 37.5t15 37.5t37 15.5t37.5 -15.5t15.5 -37.5t-15.5 -37.5t-37.5 -15.5zM118 616q0 22 15 37.5t37 15.5t37.5 -15.5t15.5 -37.5t-15.5 -37.5t-37.5 -15.5t-37 15.5t-15 37.5zM298 241v-142q-21 -55 -76 -55q-28 0 -46 16t-22 30.5t-4 25.5
q0 92 148 125zM481 66q-3 -9 -10 -14.5t-13 -5.5l-5 -1q-21 0 -32.5 16.5t-12.5 32.5l-2 17v160q0 97 -33.5 148.5t-118.5 51.5q-51 3 -95 -20q-53 -28 -78 -73q-15 -27 4 -55q12 -17 33.5 -20.5t38.5 8.5q17 13 21 34t-9 38t-34 20q-8 1 4 15q10 12 30 22q56 27 92.5 -8.5
t36.5 -113.5v-60q-146 -37 -184 -55q-64 -30 -72 -88q-1 -11 -1 -22q0 -29 12 -50t29 -30.5t33.5 -15t28.5 -5.5l12 -1q52 0 92 24t51 59q4 -37 27 -58t44 -23l21 -2q41 0 70 21.5t35 47.5z" />
    <glyph glyph-name="aring" unicode="&#xe5;" 
d="M254 700q-26 0 -44.5 -18t-18.5 -44t18.5 -44t44.5 -18t44 18t18 44t-18 44t-44 18zM254 536q-43 0 -72.5 30t-29.5 72t29.5 72t72.5 30q42 0 71.5 -30t29.5 -72t-29.5 -72t-71.5 -30zM298 241v-142q-21 -55 -76 -55q-28 0 -46 16t-22 30.5t-4 25.5q0 92 148 125zM481 66
q-3 -9 -10 -14.5t-13 -5.5l-5 -1q-21 0 -32.5 16.5t-12.5 32.5l-2 17v160q0 97 -33.5 148.5t-118.5 51.5q-51 3 -95 -20q-53 -28 -78 -73q-15 -27 4 -55q12 -17 33.5 -20.5t38.5 8.5q17 13 21 34t-9 38t-34 20q-8 1 4 15q10 12 30 22q56 27 92.5 -8.5t36.5 -113.5v-60
q-146 -37 -184 -55q-64 -30 -72 -88q-1 -11 -1 -22q0 -29 12 -50t29 -30.5t33.5 -15t28.5 -5.5l12 -1q52 0 92 24t51 59q4 -37 27 -58t44 -23l21 -2q41 0 70 21.5t35 47.5z" />
    <glyph glyph-name="ae" unicode="&#xe6;" horiz-adv-x="722" 
d="M395 254h189q0 101 -23.5 151.5t-65.5 50.5q-45 0 -72.5 -57.5t-27.5 -144.5zM649 128l15 -8q-35 -129 -176 -129q-58 0 -104 29.5t-67 73.5q-10 -44 -54.5 -73.5t-106.5 -29.5q-5 0 -12.5 0.5t-27.5 6t-35 15t-27.5 30.5t-12.5 50q0 19 3 33.5t12.5 27.5t17.5 22.5
t27.5 19.5t33.5 16t44 15.5t49.5 14.5l59.5 16v60q0 78 -35 113t-90 8q-34 -16 -33 -30q0 -4 3 -4q18 -3 33 -22q12 -17 8.5 -38t-21.5 -34q-17 -12 -38 -8.5t-33 20.5q-19 28 -4 55q21 43 76 72q20 10 41.5 15.5t33.5 5.5h12q79 0 114 -70q65 70 140 70q98 0 142 -55.5
t44 -176.5h-287q4 -84 33 -127t87 -52q41 -6 79.5 15t55.5 53zM307 111q-15 36 -19 92v39q-138 -39 -138 -126q0 -8 2 -18t8.5 -23.5t21.5 -22t37 -8.5q33 0 56 21.5t32 45.5z" />
    <glyph glyph-name="ccedilla" unicode="&#xe7;" horiz-adv-x="491" 
d="M296 456q-18 0 -38.5 -8t-45.5 -28.5t-41 -65t-16 -107.5q0 -85 38.5 -130t97.5 -53q44 -6 90 15t63 50l12 -7q-12 -49 -60.5 -90t-131.5 -41h-13l-19 -54q64 15 98 -13t28 -71q-4 -32 -23.5 -51.5t-39 -25t-40.5 -5.5q-45 0 -69 21q-11 11 -8 28q9 26 35 19
q24 -8 19 -34q-1 -8 -9 -12q-1 -1 1 -3.5t10 -4t21 -1.5q25 0 40 15.5t14 40.5q0 26 -24.5 52.5t-76.5 16.5l29 83q-81 11 -136.5 79.5t-55.5 160.5q0 96 68 167.5t183 71.5q92 0 134 -52q24 -28 10 -58q-8 -21 -29.5 -31t-43.5 -2q-22 9 -31 30t0 43q7 21 29 30q8 2 -7 11
q-23 14 -62 14z" />
    <glyph glyph-name="egrave" unicode="&#xe8;" horiz-adv-x="507" 
d="M362 255h-214q0 82 33 141.5t77 59.5q42 0 73 -52.5t31 -148.5zM436 127q-16 -35 -63 -54.5t-92 -12.5q-57 9 -93 53t-40 127h318q0 231 -204 231q-99 0 -162.5 -68t-63.5 -175q0 -96 62 -166.5t155 -70.5q85 0 134.5 41t62.5 88zM219 704l173 -163h-29l-240 134z" />
    <glyph glyph-name="eacute" unicode="&#xe9;" horiz-adv-x="507" 
d="M148 255h214q0 96 -31 148.5t-73 52.5q-44 0 -77 -59.5t-33 -141.5zM436 127l14 -7q-13 -47 -62.5 -88t-134.5 -41q-93 0 -155 70.5t-62 166.5q0 107 63.5 175t162.5 68q204 0 204 -231h-318q4 -83 40 -127t93 -53q45 -7 92 12.5t63 54.5zM120 541l173 163l96 -29
l-240 -134h-29z" />
    <glyph glyph-name="ecircumflex" unicode="&#xea;" horiz-adv-x="507" 
d="M362 255h-214q0 82 33 141.5t77 59.5q42 0 73 -52.5t31 -148.5zM436 127q-16 -35 -63 -54.5t-92 -12.5q-57 9 -93 53t-40 127h318q0 231 -204 231q-99 0 -162.5 -68t-63.5 -175q0 -96 62 -166.5t155 -70.5q85 0 134.5 41t62.5 88zM369 517l-118 89l-119 -89h-30l149 187
l149 -187h-31z" />
    <glyph glyph-name="edieresis" unicode="&#xeb;" horiz-adv-x="507" 
d="M344 563q-22 0 -37.5 15.5t-15.5 37.5t15.5 37.5t37.5 15.5t37.5 -15.5t15.5 -37.5t-15.5 -37.5t-37.5 -15.5zM258 456q-44 0 -77 -59.5t-33 -141.5h214q0 96 -31 148.5t-73 52.5zM281 60q45 -7 92 12.5t63 54.5l14 -7q-13 -47 -62.5 -88t-134.5 -41q-93 0 -155 70.5
t-62 166.5q0 107 63.5 175t162.5 68q204 0 204 -231h-318q4 -83 40 -127t93 -53zM170 563q-22 0 -37 15.5t-15 37.5t15 37.5t37 15.5t37.5 -15.5t15.5 -37.5t-15.5 -37.5t-37.5 -15.5z" />
    <glyph glyph-name="igrave" unicode="&#xec;" horiz-adv-x="264" 
d="M226 15q-25 7 -33 27t-8 65v364l-156 -34v-15q30 -13 40 -26t10 -39v-250q0 -23 -1 -35t-4.5 -25t-12 -20.5t-22.5 -11.5v-15h187v15zM86 704l173 -163h-29l-240 134z" />
    <glyph glyph-name="iacute" unicode="&#xed;" horiz-adv-x="264" 
d="M226 15v-15h-187v15q26 8 33 28t7 64v250q0 26 -10 39t-40 26v15l156 34v-364q0 -45 8 -65t33 -27zM-1 541l173 163l96 -29l-240 -134h-29z" />
    <glyph glyph-name="icircumflex" unicode="&#xee;" horiz-adv-x="264" 
d="M226 15q-25 7 -33 27t-8 65v364l-156 -34v-15q30 -13 40 -26t10 -39v-250q0 -23 -1 -35t-4.5 -25t-12 -20.5t-22.5 -11.5v-15h187v15zM245 517l-118 89l-119 -89h-30l149 187l149 -187h-31z" />
    <glyph glyph-name="idieresis" unicode="&#xef;" horiz-adv-x="264" 
d="M214 563q-22 0 -37 15.5t-15 37.5t15 37.5t37 15.5t37.5 -15.5t15.5 -37.5t-15.5 -37.5t-37.5 -15.5zM41 563q-22 0 -37.5 15.5t-15.5 37.5t15.5 37.5t37.5 15.5t37 -15.5t15 -37.5t-15 -37.5t-37 -15.5zM226 15v-15h-187v15q26 8 33 28t7 64v250q0 26 -10 39t-40 26v15
l156 34v-364q0 -45 8 -65t33 -27z" />
    <glyph glyph-name="eth" unicode="&#xf0;" horiz-adv-x="559" 
d="M387 333q-22 39 -52.5 57.5t-59.5 18.5q-50 0 -79.5 -56t-30.5 -153q-2 -110 24 -152t80 -42q65 0 91.5 74t26.5 251v2zM519 323q0 -154 -63.5 -243t-186.5 -89q-99 0 -166 57.5t-65 167.5q2 93 51 157t146 64q110 0 152 -75q-2 154 -52 245l-164 -84l-13 13l169 87
q-52 75 -151 75v15q119 0 206 -62l102 54l15 -13l-101 -53q54 -50 87.5 -132t33.5 -184z" />
    <glyph glyph-name="ntilde" unicode="&#xf1;" horiz-adv-x="519" 
d="M307 554l-117 43q-20 5 -48 6t-59 -12.5t-43 -39.5l-12 4q18 46 44.5 75t50.5 38.5t45.5 12t34.5 -0.5l13 -3l117 -44q20 -5 48 -5t59 14.5t43 39.5l12 -6q-19 -46 -45 -75t-50 -38.5t-45.5 -12t-34.5 0.5zM499 15v-15h-187v15q26 8 33 28t7 64v205q0 44 -24.5 71
t-67.5 27q-33 0 -62 -27t-32 -57v-220q0 -44 8 -64t33 -27v-15h-186v15q26 8 32.5 27t6.5 64v252q0 26 -9.5 38.5t-40.5 25.5v15l156 34v-106q16 44 64 75t96 31q64 0 98 -35t34 -121v-208q0 -45 8 -65.5t33 -26.5z" />
    <glyph glyph-name="ograve" unicode="&#xf2;" horiz-adv-x="548" 
d="M384 231q0 -131 -25 -178t-84 -47q-39 0 -61.5 18t-35 68t-12.5 139t12.5 139t35 68t61.5 18q59 0 84 -47t25 -178zM510 231q0 103 -62 171.5t-173 68.5q-110 0 -172 -68.5t-62 -171.5t62 -171.5t172 -68.5t172.5 68.5t62.5 171.5zM238 704l173 -163h-29l-240 134z" />
    <glyph glyph-name="oacute" unicode="&#xf3;" horiz-adv-x="548" 
d="M384 231q0 131 -25 178t-84 47q-39 0 -61.5 -18t-35 -68t-12.5 -139t12.5 -139t35 -68t61.5 -18q59 0 84 47t25 178zM510 231q0 -103 -62.5 -171.5t-172.5 -68.5t-172 68.5t-62 171.5t62 171.5t172 68.5q111 0 173 -68.5t62 -171.5zM136 541l173 163l96 -29l-240 -134
h-29z" />
    <glyph glyph-name="ocircumflex" unicode="&#xf4;" horiz-adv-x="548" 
d="M384 231q0 -131 -25 -178t-84 -47q-39 0 -61.5 18t-35 68t-12.5 139t12.5 139t35 68t61.5 18q59 0 84 -47t25 -178zM510 231q0 103 -62 171.5t-173 68.5q-110 0 -172 -68.5t-62 -171.5t62 -171.5t172 -68.5t172.5 68.5t62.5 171.5zM396 517l-118 89l-119 -89h-30l149 187
l149 -187h-31z" />
    <glyph glyph-name="otilde" unicode="&#xf5;" horiz-adv-x="548" 
d="M204 597q-20 5 -47.5 6t-58.5 -12.5t-43 -39.5l-12 4q18 46 44 75t50 38.5t45.5 12t34.5 -0.5l13 -3l117 -44q20 -5 48.5 -5t59 14.5t42.5 39.5l12 -6q-18 -46 -44.5 -75t-50.5 -38.5t-45.5 -12t-34.5 0.5l-13 3zM384 231q0 -131 -25 -178t-84 -47q-39 0 -61.5 18t-35 68
t-12.5 139t12.5 139t35 68t61.5 18q59 0 84 -47t25 -178zM510 231q0 103 -62 171.5t-173 68.5q-110 0 -172 -68.5t-62 -171.5t62 -171.5t172 -68.5t172.5 68.5t62.5 171.5z" />
    <glyph glyph-name="odieresis" unicode="&#xf6;" horiz-adv-x="548" 
d="M363 563q-22 0 -37.5 15.5t-15.5 37.5t15.5 37.5t37.5 15.5t37.5 -15.5t15.5 -37.5t-15.5 -37.5t-37.5 -15.5zM189 563q-22 0 -37 15.5t-15 37.5t15 37.5t37 15.5t37.5 -15.5t15.5 -37.5t-15.5 -37.5t-37.5 -15.5zM384 231q0 -131 -25 -178t-84 -47q-39 0 -61.5 18
t-35 68t-12.5 139t12.5 139t35 68t61.5 18q59 0 84 -47t25 -178zM510 231q0 103 -62 171.5t-173 68.5q-110 0 -172 -68.5t-62 -171.5t62 -171.5t172 -68.5t172.5 68.5t62.5 171.5z" />
    <glyph glyph-name="divide" unicode="&#xf7;" horiz-adv-x="625" 
d="M312 432q-25 0 -43 18t-18 43t18 43.5t43 18.5q26 0 44 -18t18 -44q0 -25 -18 -43t-44 -18zM581 237h-536v79h536v-79zM312 -1q-25 0 -43 18t-18 43t18 43t43 18q26 0 44 -17.5t18 -43.5t-18 -43.5t-44 -17.5z" />
    <glyph glyph-name="oslash" unicode="&#xf8;" horiz-adv-x="548" 
d="M384 230q0 88 -18 140l-177 -298q12 -37 32 -51.5t54 -14.5q59 0 84 46.5t25 177.5zM88 -67l56 93q-50 31 -76.5 84.5t-26.5 119.5q0 104 62 172.5t172 68.5q66 0 120 -28l49 82h16l-53 -89q50 -31 76.5 -85t26.5 -121q0 -103 -62 -171t-173 -68q-67 0 -119 27l-51 -85
h-17zM183 90l178 299q-12 37 -32 52t-54 15q-58 0 -83.5 -47.5t-25.5 -178.5q0 -91 17 -140z" />
    <glyph glyph-name="ugrave" unicode="&#xf9;" horiz-adv-x="543" 
d="M523 29q-32 4 -41.5 14t-9.5 45v383l-153 -19v-15q34 -3 40.5 -13.5t6.5 -51.5v-10v-239q-14 -31 -40.5 -51t-54.5 -20q-94 0 -94 94v325l-161 -19v-15q42 -4 49 -14.5t7 -60.5v-219q0 -85 35.5 -118.5t98.5 -33.5q49 0 96.5 31.5t63.5 72.5v-86q0 -2 0.5 -5.5t7 -8.5
t18.5 -3l131 23v14zM238 704l173 -163h-29l-240 134z" />
    <glyph glyph-name="uacute" unicode="&#xfa;" horiz-adv-x="543" 
d="M523 29v-14l-131 -23q-12 -2 -18.5 2.5t-7.5 9.5v5v86q-16 -41 -63.5 -72.5t-96.5 -31.5q-63 0 -98.5 33.5t-35.5 118.5v219q0 50 -7 60.5t-49 14.5v15l161 19v-325q0 -94 94 -94q28 0 54.5 20t40.5 51v239q0 53 -6 62q-8 10 -41 13v15l153 19v-383q0 -35 9.5 -45
t41.5 -14zM149 541l173 163l96 -29l-240 -134h-29z" />
    <glyph glyph-name="ucircumflex" unicode="&#xfb;" horiz-adv-x="543" 
d="M523 29q-32 4 -41.5 14t-9.5 45v383l-153 -19v-15q34 -3 40.5 -13.5t6.5 -51.5v-10v-239q-14 -31 -40.5 -51t-54.5 -20q-94 0 -94 94v325l-161 -19v-15q42 -4 49 -14.5t7 -60.5v-219q0 -85 35.5 -118.5t98.5 -33.5q49 0 96.5 31.5t63.5 72.5v-86q0 -2 0.5 -5.5t7 -8.5
t18.5 -3l131 23v14zM389 517l-118 89l-119 -89h-30l149 187l149 -187h-31z" />
    <glyph glyph-name="udieresis" unicode="&#xfc;" horiz-adv-x="543" 
d="M353 563q-22 0 -37.5 15.5t-15.5 37.5t15.5 37.5t37.5 15.5t37 -15.5t15 -37.5t-15 -37.5t-37 -15.5zM179 563q-22 0 -37.5 15.5t-15.5 37.5t15.5 37.5t37.5 15.5t37.5 -15.5t15.5 -37.5t-15.5 -37.5t-37.5 -15.5zM523 29v-14l-131 -23q-12 -2 -18.5 2.5t-7.5 9.5v5v86
q-16 -41 -63.5 -72.5t-96.5 -31.5q-63 0 -98.5 33.5t-35.5 118.5v219q0 50 -7 60.5t-49 14.5v15l161 19v-325q0 -94 94 -94q28 0 54.5 20t40.5 51v239q0 53 -6 62q-8 10 -41 13v15l153 19v-383q0 -35 9.5 -45t41.5 -14z" />
    <glyph glyph-name="yacute" unicode="&#xfd;" horiz-adv-x="536" 
d="M326 462h194v-15q-14 0 -24 -3.5t-27 -17.5t-36.5 -48.5t-41.5 -88.5l-154 -413q-24 -65 -68 -101q-33 -25 -69 -9q-23 10 -32 34t1 47q11 23 34.5 32t46.5 -1q22 -9 31 -36q3 -13 18 1q13 11 22 36l42 114l-187 410q-19 44 -67 44v15h222v-15q-26 0 -33 -16.5t-1 -32.5
l6 -17l114 -246l60 158q3 6 6.5 16.5t8.5 37.5t2.5 47.5t-19.5 37t-49 15.5v15zM133 541l173 163l96 -29l-240 -134h-29z" />
    <glyph glyph-name="thorn" unicode="&#xfe;" horiz-adv-x="579" 
d="M410 215q0 117 -32.5 169.5t-97.5 52.5q-46 0 -74.5 -31t-33.5 -81v-185q5 -68 38.5 -101t80.5 -33q119 0 119 209zM533 227q0 -114 -66.5 -175t-173.5 -61q-71 0 -121 34v-189q0 -44 7.5 -62t33.5 -24v-15h-187v15q26 8 33 25.5t7 60.5v791q0 26 -9.5 36.5t-40.5 18.5
v15l156 34v-339q21 39 64.5 59t85.5 20q93 0 152 -67t59 -177z" />
    <glyph glyph-name="ydieresis" unicode="&#xff;" horiz-adv-x="536" 
d="M354 563q-22 0 -37 15.5t-15 37.5t15 37.5t37 15.5t37.5 -15.5t15.5 -37.5t-15.5 -37.5t-37.5 -15.5zM326 462h194v-15q-14 0 -24 -3.5t-27 -17.5t-36.5 -48.5t-41.5 -88.5l-154 -413q-24 -65 -68 -101q-33 -25 -69 -9q-23 10 -32 34t1 47q11 23 34.5 32t46.5 -1
q22 -9 31 -36q3 -13 18 1q13 11 22 36l42 114l-187 410q-19 44 -67 44v15h222v-15q-26 0 -33 -16.5t-1 -32.5l6 -17l114 -246l60 158q3 6 6.5 16.5t8.5 37.5t2.5 47.5t-19.5 37t-49 15.5v15zM180 563q-22 0 -37 15.5t-15 37.5t15 37.5t37 15.5t37.5 -15.5t15.5 -37.5
t-15.5 -37.5t-37.5 -15.5z" />
    <glyph glyph-name="Abreve" unicode="&#x102;" horiz-adv-x="698" 
d="M172 220h239l-124 312zM683 15v-15h-257v15q70 0 23 110l-32 80h-248q-6 -16 -9.5 -29t-8.5 -39t-2 -45t11.5 -38.5t32 -29.5t58.5 -9v-15h-235v15q16 0 25 4.5t26.5 24.5t41 70t56.5 134l171 456h13l251 -612q5 -13 10 -23.5t11 -18t9 -13.5t9.5 -9.5t8.5 -6t9 -3.5
t8 -1.5t9 -0.5zM462 910h13q0 -63 -31.5 -103.5t-98.5 -40.5q-68 0 -101 40.5t-33 103.5h14q0 -78 120 -78q117 0 117 78z" />
    <glyph glyph-name="abreve" unicode="&#x103;" 
d="M298 241q-148 -33 -148 -125q0 -11 4 -25.5t22 -30.5t46 -16q55 0 76 55v142zM481 66l15 -6q-6 -26 -35 -47.5t-70 -21.5q-3 0 -9 0.5t-20.5 5t-26.5 12t-22.5 24.5t-13.5 41q-11 -35 -51 -59t-92 -24q-5 0 -12.5 0.5t-27.5 6t-35 15t-27.5 30.5t-12.5 50q0 30 10.5 51.5
t25 36t49 27.5t63 21.5t85.5 22.5l24 6v60q0 78 -36.5 113.5t-92.5 8.5q-34 -17 -36 -33q-1 -4 2 -4q21 -3 34 -20t9 -38t-21 -34q-17 -12 -38.5 -8.5t-33.5 20.5q-19 28 -4 55q25 45 78 73q20 10 43.5 15t37.5 5h14q85 0 118.5 -51.5t33.5 -148.5v-160q0 -3 0.5 -7.5
t3 -15.5t6.5 -20t14 -16t23 -7q22 0 28 21zM380 704h13q0 -63 -31.5 -103.5t-98.5 -40.5q-68 0 -101 40.5t-33 103.5h14q0 -78 120 -78q117 0 117 78z" />
    <glyph glyph-name="Aogonek" unicode="&#x104;" horiz-adv-x="698" 
d="M683 15v-15h-69q-39 -22 -58.5 -53t-11.5 -57q5 -20 20.5 -29.5t28.5 -8.5h13q16 1 26 13.5t10 28.5h14q0 -33 -13 -53.5t-50 -25.5q-24 -3 -43.5 0t-30 10.5t-17.5 15t-10 13.5l-2 6q-26 87 85 140h-149v15q70 0 23 110l-32 80h-248q-6 -16 -9.5 -29t-8.5 -39t-2 -45
t11.5 -38.5t32 -29.5t58.5 -9v-15h-235v15q16 0 25 4.5t26.5 24.5t41 70t56.5 134l171 456h13l251 -612q5 -13 10 -23.5t11 -18t9 -13.5t9.5 -9.5t8.5 -6t9 -3.5t8 -1.5t9 -0.5zM172 220h239l-124 312z" />
    <glyph glyph-name="aogonek" unicode="&#x105;" 
d="M481 66l15 -6q-5 -22 -28.5 -42t-56.5 -25q-32 -23 -47.5 -50.5t-8.5 -51.5q5 -20 20.5 -29.5t28.5 -9.5l13 1q16 1 26 13.5t10 28.5h14q0 -33 -13 -53.5t-50 -25.5q-24 -3 -43.5 0t-30 10.5t-17.5 15t-9 13.5l-3 6q-24 80 69 133q-64 13 -71 80q-11 -35 -51 -59t-92 -24
q-5 0 -12.5 0.5t-27.5 6t-35 15t-27.5 30.5t-12.5 50q0 30 10.5 51.5t25 36t49 27.5t63 21.5t85.5 22.5l24 6v60q0 78 -36.5 113.5t-92.5 8.5q-34 -17 -36 -33q-1 -4 2 -4q21 -3 34 -20t9 -38t-21 -34q-17 -12 -38.5 -8.5t-33.5 20.5q-19 28 -4 55q25 45 78 73
q20 10 43.5 15t37.5 5h14q85 0 118.5 -51.5t33.5 -148.5v-160q0 -3 0.5 -7.5t3 -15.5t6.5 -20t14 -16t23 -7q22 0 28 21zM298 99v142q-148 -33 -148 -125q0 -11 4 -25.5t22 -30.5t46 -16q55 0 76 55z" />
    <glyph glyph-name="Cacute" unicode="&#x106;" horiz-adv-x="681" 
d="M610 209h15l13 -156q-54 -36 -110 -49t-140 -13q-157 0 -252 100.5t-95 260.5t95 260.5t252 100.5q86 0 146 -12.5t104 -48.5l-13 -156h-15q-57 202 -222 202q-44 0 -76.5 -14t-60 -50t-42 -107t-14.5 -175q0 -85 10.5 -147.5t27 -100t42.5 -60t52.5 -30.5t60.5 -8
q79 0 143.5 54.5t78.5 148.5zM224 735l173 163l96 -29l-240 -134h-29z" />
    <glyph glyph-name="cacute" unicode="&#x107;" horiz-adv-x="491" 
d="M444 128l12 -7q-13 -48 -61 -89t-131 -41q-91 0 -155 71t-64 170q0 95 68 167t183 72q89 0 134 -52q24 -29 10 -58q-8 -21 -29.5 -31t-43.5 -2t-30.5 29.5t-0.5 42.5q8 23 29 31q8 3 -8 12q-23 13 -61 13q-18 0 -38.5 -8.5t-45.5 -28.5t-41 -65t-16 -108q0 -84 38.5 -129
t97.5 -54q44 -6 90 15t63 50zM130 541l173 163l96 -29l-240 -134h-29z" />
    <glyph glyph-name="Ccaron" unicode="&#x10c;" horiz-adv-x="681" 
d="M610 209h15l13 -156q-54 -36 -110 -49t-140 -13q-157 0 -252 100.5t-95 260.5t95 260.5t252 100.5q86 0 146 -12.5t104 -48.5l-13 -156h-15q-57 202 -222 202q-44 0 -76.5 -14t-60 -50t-42 -107t-14.5 -175q0 -85 10.5 -147.5t27 -100t42.5 -60t52.5 -30.5t60.5 -8
q79 0 143.5 54.5t78.5 148.5zM365 833l118 89h31l-149 -187l-149 187h30z" />
    <glyph glyph-name="ccaron" unicode="&#x10d;" horiz-adv-x="491" 
d="M444 128l12 -7q-13 -48 -61 -89t-131 -41q-91 0 -155 71t-64 170q0 95 68 167t183 72q89 0 134 -52q24 -29 10 -58q-8 -21 -29.5 -31t-43.5 -2t-30.5 29.5t-0.5 42.5q8 23 29 31q8 3 -8 12q-23 13 -61 13q-18 0 -38.5 -8.5t-45.5 -28.5t-41 -65t-16 -108q0 -84 38.5 -129
t97.5 -54q44 -6 90 15t63 50zM265 615l118 89h31l-149 -187l-149 187h30z" />
    <glyph glyph-name="Dcaron" unicode="&#x10e;" horiz-adv-x="768" 
d="M541 350q0 91 -18 156.5t-43 100t-63.5 54t-68 24t-67.5 4.5h-44v-674h44q27 0 47 1.5t49 8.5t49.5 20t43.5 38t37.5 59.5t24 87.5t9.5 120zM689 350q0 -86 -24 -150.5t-61.5 -102t-93.5 -60t-109.5 -30t-119.5 -7.5h-240v15q32 0 51.5 31t19.5 82v448q0 48 -19.5 80.5
t-51.5 32.5v15h240q408 0 408 -354zM299 833l118 89h31l-149 -187l-149 187h30z" />
    <glyph glyph-name="dcaron" unicode="&#x10f;" horiz-adv-x="695" 
d="M572 704h84q0 -37 -12.5 -71t-30 -56.5t-35 -39.5t-30.5 -25l-12 -8l-10 13q5 4 12.5 14.5t20.5 58.5t13 114zM552 27v-15l-128 -20q-12 -2 -19 2.5t-8 9.5l-1 6v58q-22 -38 -65.5 -57.5t-84.5 -19.5q-94 0 -153 68t-59 178q0 115 66.5 174.5t173.5 59.5q69 0 122 -33
v199q0 26 -10 38t-41 20v15l156 32v-654q0 -36 10 -47.5t41 -13.5zM396 142v158q0 78 -35.5 117t-84.5 39q-119 0 -119 -207q0 -118 31 -172t95 -54q50 0 81.5 33t31.5 86z" />
    <glyph glyph-name="Dcroat" unicode="&#x110;" horiz-adv-x="739" 
d="M537 350q0 91 -18 156.5t-43 100t-63.5 54t-68 24t-67.5 4.5h-44v-328h145v-19h-145v-327h44q27 0 47 1.5t49 8.5t50 20t44 38t37 59.5t23.5 87.5t9.5 120zM685 350q0 -86 -24 -150.5t-61.5 -102t-93.5 -60t-109.5 -30t-119.5 -7.5h-239v15q32 0 51.5 31t19.5 82v214h-83
v19h83v215q0 48 -19.5 80.5t-51.5 32.5v15h239q408 0 408 -354z" />
    <glyph glyph-name="dcroat" unicode="&#x111;" horiz-adv-x="600" 
d="M396 142v158q0 78 -35.5 117t-84.5 39q-119 0 -119 -207q0 -118 31 -172t95 -54q50 0 81.5 33t31.5 86zM286 564v18h110v55q0 26 -10 38t-41 20v15l156 32v-160h100v-18h-100v-476q0 -36 10 -47.5t41 -13.5v-15l-128 -20q-12 -2 -19 2.5t-8 9.5l-1 6v58
q-22 -38 -65.5 -57.5t-84.5 -19.5q-94 0 -153 68t-59 178q0 115 66.5 174.5t173.5 59.5q69 0 122 -33v126h-110z" />
    <glyph glyph-name="Eogonek" unicode="&#x118;" horiz-adv-x="653" 
d="M547 213h15v-213h-31q-40 -22 -60.5 -53.5t-12.5 -58.5q5 -20 20.5 -29.5t28.5 -8.5h13q16 1 26 13.5t10 28.5h14q0 -33 -13 -53.5t-50 -25.5q-24 -3 -43.5 0t-30 10.5t-17.5 15t-10 13.5l-2 6q-26 89 89 142h-464v15q56 0 56 112v455q0 107 -56 107v15h520v-185h-15
q-4 40 -23 71t-49 48.5t-58.5 29t-63.5 15.5t-51.5 5t-34.5 1h-45v-326h50q10 0 21 0.5t35.5 6t42.5 15t34 30.5t18 50h15v-220h-15q-2 29 -18 50t-34 31t-43 15.5t-35.5 6t-20.5 0.5h-50v-333h41q21 0 36 1t52 5.5t66 17.5t60.5 33.5t53 57t29.5 83.5z" />
    <glyph glyph-name="eogonek" unicode="&#x119;" horiz-adv-x="507" 
d="M258 456q-44 0 -77 -59.5t-33 -141.5h214q0 96 -31 148.5t-73 52.5zM281 60q45 -7 92 12.5t63 54.5l14 -7q-11 -42 -51.5 -80t-109.5 -47q-37 -22 -55.5 -52t-12.5 -56q6 -20 21.5 -29.5t28.5 -8.5l13 1q16 1 25.5 13.5t9.5 28.5h15q0 -70 -64 -80q-38 -4 -63.5 7.5
t-32.5 24.5l-6 14q-26 83 76 135h-5q-88 6 -145.5 75.5t-57.5 161.5q0 107 63.5 175t162.5 68q204 0 204 -231h-318q4 -83 40 -127t93 -53z" />
    <glyph glyph-name="Ecaron" unicode="&#x11a;" horiz-adv-x="653" 
d="M547 213h15v-213h-533v15q56 0 56 112v455q0 107 -56 107v15h520v-185h-15q-4 40 -23 71t-49 48.5t-58.5 29t-63.5 15.5t-51.5 5t-34.5 1h-45v-326h50q10 0 21 0.5t35.5 6t42.5 15t34 30.5t18 50h15v-220h-15q-2 29 -18 50t-34 31t-43 15.5t-35.5 6t-20.5 0.5h-50v-333
h41q21 0 36 1t52 5.5t66 17.5t60.5 33.5t53 57t29.5 83.5zM311 833l118 89h31l-149 -187l-149 187h30z" />
    <glyph glyph-name="ecaron" unicode="&#x11b;" horiz-adv-x="507" 
d="M148 255h214q0 96 -31 148.5t-73 52.5q-44 0 -77 -59.5t-33 -141.5zM436 127l14 -7q-13 -47 -62.5 -88t-134.5 -41q-93 0 -155 70.5t-62 166.5q0 107 63.5 175t162.5 68q204 0 204 -231h-318q4 -83 40 -127t93 -53q45 -7 92 12.5t63 54.5zM257 615l118 89h31l-149 -187
l-149 187h30z" />
    <glyph glyph-name="dotlessi" unicode="&#x131;" horiz-adv-x="263" 
d="M225 15v-15h-186v15q26 8 33 28t7 64v250q0 26 -10.5 39t-40.5 26v15l156 34v-364q0 -45 8 -65t33 -27z" />
    <glyph glyph-name="Lacute" unicode="&#x139;" horiz-adv-x="640" 
d="M564 217h14v-217h-533v15q63 0 63 109v478q0 87 -71 87v15h277v-15q-83 0 -83 -89v-585h36q23 0 40 1t54 6t66 18.5t59.5 34t51 57.5t26.5 85zM152 735l173 163l96 -29l-240 -134h-29z" />
    <glyph glyph-name="lacute" unicode="&#x13a;" horiz-adv-x="265" 
d="M220 15v-15h-187v15q26 8 33 28t7 64v527q0 27 -10 40t-40 21v15l156 32v-635q0 -45 8 -65.5t33 -26.5zM-16 764l173 163l96 -29l-240 -134h-29z" />
    <glyph glyph-name="Lcaron" unicode="&#x13d;" horiz-adv-x="637" 
d="M349 704h84q0 -37 -12.5 -71t-29.5 -56.5t-34.5 -39.5t-30.5 -25l-12 -8l-11 13q5 4 12.5 14.5t20.5 58.5t13 114zM564 217h14v-217h-533v15q63 0 63 109v478q0 87 -71 87v15h277v-15q-83 0 -83 -89v-585h36q23 0 40 1t54 6t66 18.5t59.5 34t51 57.5t26.5 85z" />
    <glyph glyph-name="lcaron" unicode="&#x13e;" horiz-adv-x="392" 
d="M252 704h84q0 -37 -12.5 -71t-30 -56.5t-34.5 -39.5t-29 -25l-13 -8l-11 13q5 4 12.5 14.5t20.5 58.5t13 114zM220 15v-15h-187v15q26 8 33 28t7 64v527q0 27 -10 40t-40 21v15l156 32v-635q0 -45 8 -65.5t33 -26.5z" />
    <glyph glyph-name="Lslash" unicode="&#x141;" horiz-adv-x="646" 
d="M588 218h15v-218h-534v15q31 0 47 31.5t16 84.5v153l-122 -68v19l122 68v299q0 87 -71 87v15h278v-15q-84 0 -84 -89v-227l199 112v-19l-199 -112v-339h36q73 0 129.5 16.5t87 39.5t50 53t25 52.5t5.5 41.5z" />
    <glyph glyph-name="lslash" unicode="&#x142;" horiz-adv-x="312" 
d="M12 266v19l90 56v295q0 27 -10 39.5t-40 21.5v14l156 35v-337l87 55v-19l-87 -55v-283q0 -45 7.5 -65.5t32.5 -26.5v-15h-186v15q26 8 33 28t7 64v215z" />
    <glyph glyph-name="Nacute" unicode="&#x143;" horiz-adv-x="840" 
d="M508 704h294v-15q-145 1 -145 -236v-453h-43l-431 549v-296q0 -238 134 -238v-15h-296v15q30 0 54 11.5t39.5 27.5t26 41t16 45t8 46.5t3 38.5t0.5 28v312l-40 51q-15 19 -29.5 33t-23.5 21t-21.5 11.5t-16 5.5t-15.5 1l-13 1v15h215l418 -527v276q0 19 -1 34t-4 47
t-12 55.5t-22.5 48t-38 38t-56.5 13.5v15zM273 735l173 163l96 -29l-240 -134h-29z" />
    <glyph glyph-name="nacute" unicode="&#x144;" horiz-adv-x="519" 
d="M499 15v-15h-187v15q26 8 33 28t7 64v205q0 44 -24.5 71t-67.5 27q-33 0 -62 -27t-32 -57v-220q0 -44 8 -64t33 -27v-15h-186v15q26 8 32.5 27t6.5 64v252q0 26 -9.5 38.5t-40.5 25.5v15l156 34v-106q16 44 64 75t96 31q64 0 98 -35t34 -121v-208q0 -45 8 -65.5t33 -26.5
zM144 541l173 163l96 -29l-240 -134h-29z" />
    <glyph glyph-name="Ncaron" unicode="&#x147;" horiz-adv-x="840" 
d="M508 704h294v-15q-145 1 -145 -236v-453h-43l-431 549v-296q0 -238 134 -238v-15h-296v15q30 0 54 11.5t39.5 27.5t26 41t16 45t8 46.5t3 38.5t0.5 28v312l-40 51q-15 19 -29.5 33t-23.5 21t-21.5 11.5t-16 5.5t-15.5 1l-13 1v15h215l418 -527v276q0 19 -1 34t-4 47
t-12 55.5t-22.5 48t-38 38t-56.5 13.5v15zM404 833l118 89h31l-149 -187l-149 187h30z" />
    <glyph glyph-name="ncaron" unicode="&#x148;" horiz-adv-x="519" 
d="M499 15v-15h-187v15q26 8 33 28t7 64v205q0 44 -24.5 71t-67.5 27q-33 0 -62 -27t-32 -57v-220q0 -44 8 -64t33 -27v-15h-186v15q26 8 32.5 27t6.5 64v252q0 26 -9.5 38.5t-40.5 25.5v15l156 34v-106q16 44 64 75t96 31q64 0 98 -35t34 -121v-208q0 -45 8 -65.5t33 -26.5
zM262 615l118 89h31l-149 -187l-149 187h30z" />
    <glyph glyph-name="Ohungarumlaut" unicode="&#x150;" horiz-adv-x="775" 
d="M566 347q0 195 -47.5 273t-142.5 78q-96 0 -144 -78t-48 -273q0 -101 13 -169t39 -105t59.5 -52t80.5 -15q63 0 102.5 27t63.5 104t24 210zM711 347q0 -156 -88 -256t-247 -100t-247 100t-88 256t88.5 261t246.5 105t246.5 -105t88.5 -261zM380 735l170 164l99 -30
l-240 -134h-29zM205 735l170 164l99 -30l-240 -134h-29z" />
    <glyph glyph-name="ohungarumlaut" unicode="&#x151;" horiz-adv-x="548" 
d="M384 231q0 131 -25 178t-84 47q-39 0 -61.5 -18t-35 -68t-12.5 -139t12.5 -139t35 -68t61.5 -18q59 0 84 47t25 178zM510 231q0 -103 -62.5 -171.5t-172.5 -68.5t-172 68.5t-62 171.5t62 171.5t172 68.5q111 0 173 -68.5t62 -171.5zM275 541l170 164l99 -30l-240 -134
h-29zM100 541l170 164l99 -30l-240 -134h-29z" />
    <glyph glyph-name="OE" unicode="&#x152;" horiz-adv-x="966" 
d="M461 118v464q0 39 -8.5 64t-25.5 35.5t-32 13.5t-38 3q-62 0 -98 -30.5t-55 -107.5t-19 -213t19 -211t54.5 -102.5t98.5 -27.5q23 0 37.5 3t32 13t26 34t8.5 62zM887 213h15v-213h-473q-47 -9 -72 -9q-157 0 -236 98.5t-79 257.5q0 103 32 183.5t104.5 131.5t178.5 51
q31 0 69 -9h463v-185h-15q-26 170 -249 170h-40v-326h40q113 0 120 102h15v-220h-15q-1 22 -8.5 39t-16 27.5t-22 18.5t-23 11t-23 5t-17 2h-10.5h-40v-333h36q238 0 266 198z" />
    <glyph glyph-name="oe" unicode="&#x153;" horiz-adv-x="784" 
d="M462 251h184q0 100 -25 152.5t-64 52.5q-44 0 -69.5 -58t-25.5 -147zM713 128l16 -8q-38 -129 -170 -129q-84 0 -149 75q-59 -75 -156 -75q-108 0 -161 66t-53 172q0 107 53 174.5t161 67.5q102 0 158 -80q65 80 145 80q94 0 140 -57.5t46 -177.5h-281q2 -83 30 -125
t85 -51q41 -6 80.5 15.5t55.5 52.5zM254 456q-52 0 -70.5 -46.5t-18.5 -180.5q0 -92 8 -139t26.5 -65.5t54.5 -18.5q52 0 70.5 44.5t18.5 178.5q0 133 -19 180t-70 47z" />
    <glyph glyph-name="Racute" unicode="&#x154;" horiz-adv-x="687" 
d="M431 513q0 37 -5.5 65.5t-13 47t-24 31.5t-28 19t-36.5 9t-38 3.5t-43 0.5h-31v-352h31q26 0 39 0.5t35 2.5t33 6.5t26.5 12.5t23.5 21t16 31t11.5 44t3.5 58zM680 15v-15h-84h-45.5t-34 3.5t-26 4.5t-18.5 12.5t-15 17t-12 28.5t-13 36.5t-14 51.5l-19 64
q-10 36 -31 59.5t-46.5 32t-38 10.5t-24.5 2h-47v-209q0 -98 70 -98v-15h-258v15q67 0 67 104v487q0 45 -16.5 64t-50.5 19v15h219q65 0 110.5 -4t89 -15.5t69 -32t41 -55.5t15.5 -84q0 -91 -49.5 -132.5t-141.5 -49.5q28 1 51 -6.5t49 -29t49 -68.5t41 -119q9 -35 33 -57
t43 -28.5t37 -7.5zM171 735l173 163l96 -29l-240 -134h-29z" />
    <glyph glyph-name="racute" unicode="&#x155;" horiz-adv-x="425" 
d="M297 467q41 10 69 -16q19 -19 19 -45.5t-19 -45.5t-45.5 -19.5t-46.5 18.5q-19 20 -17 44q1 10 -20 1q-39 -18 -66 -67v-229q0 -45 7.5 -65.5t33.5 -27.5v-15h-188v15q26 8 33 28t7 65v250q0 26 -10 39.5t-40 24.5v15l157 34v-108q51 85 126 104zM72 541l173 163l96 -29
l-240 -134h-29z" />
    <glyph glyph-name="Rcaron" unicode="&#x158;" horiz-adv-x="687" 
d="M431 513q0 37 -5.5 65.5t-13 47t-24 31.5t-28 19t-36.5 9t-38 3.5t-43 0.5h-31v-352h31q26 0 39 0.5t35 2.5t33 6.5t26.5 12.5t23.5 21t16 31t11.5 44t3.5 58zM680 15v-15h-84h-45.5t-34 3.5t-26 4.5t-18.5 12.5t-15 17t-12 28.5t-13 36.5t-14 51.5l-19 64
q-10 36 -31 59.5t-46.5 32t-38 10.5t-24.5 2h-47v-209q0 -98 70 -98v-15h-258v15q67 0 67 104v487q0 45 -16.5 64t-50.5 19v15h219q65 0 110.5 -4t89 -15.5t69 -32t41 -55.5t15.5 -84q0 -91 -49.5 -132.5t-141.5 -49.5q28 1 51 -6.5t49 -29t49 -68.5t41 -119q9 -35 33 -57
t43 -28.5t37 -7.5zM282 833l118 89h31l-149 -187l-149 187h30z" />
    <glyph glyph-name="rcaron" unicode="&#x159;" horiz-adv-x="397" 
d="M297 467q41 10 69 -16q19 -19 19 -45.5t-19 -45.5t-45.5 -19.5t-46.5 18.5q-19 20 -17 44q1 10 -20 1q-39 -18 -66 -67v-229q0 -45 7.5 -65.5t33.5 -27.5v-15h-188v15q26 8 33 28t7 65v250q0 26 -10 39.5t-40 24.5v15l157 34v-108q51 85 126 104zM183 616l118 89h31
l-149 -187l-149 187h30z" />
    <glyph glyph-name="Sacute" unicode="&#x15a;" horiz-adv-x="586" 
d="M505 73q-2 -3 -6 -8.5t-20 -20t-37 -25t-58.5 -19.5t-81.5 -9q-50 0 -94.5 6t-73 15t-49.5 17.5t-30 14.5l-9 6v192h15q7 -41 20.5 -76.5t40 -74.5t72.5 -62t108 -23t93 42.5t16 101t-73 99.5l-159 102q-215 137 -111 285q2 3 6 8.5t20.5 18.5t37 23t56.5 18.5t78 8.5
q70 0 130.5 -12t85.5 -24l26 -12v-168h-15q-6 34 -19 64.5t-38 63.5t-68.5 53t-101.5 20q-40 0 -69.5 -23t-39 -56t10 -74.5t69.5 -73.5l160 -105q99 -66 127.5 -143.5t-19.5 -149.5zM142 735l173 163l96 -29l-240 -134h-29z" />
    <glyph glyph-name="sacute" unicode="&#x15b;" horiz-adv-x="435" 
d="M358 43q-4 -6 -12.5 -14.5t-43 -23t-77.5 -14.5q-54 0 -98.5 10.5t-62.5 21.5l-17 11v131h15q4 -21 9 -37.5t17.5 -41t28.5 -40.5t44.5 -28t63.5 -12q42 0 59 26.5t3.5 62t-50.5 59.5l-101 61q-147 94 -73 202q4 6 12.5 15t43 24t79.5 15q51 0 92 -7.5t56 -15.5l16 -8
v-117h-15q-28 133 -149 133q-39 0 -57.5 -23t-7 -57t53.5 -60l101 -63q68 -42 87.5 -99.5t-17.5 -110.5zM99 541l173 163l96 -29l-240 -134h-29z" />
    <glyph glyph-name="Scedilla" unicode="&#x15e;" horiz-adv-x="586" 
d="M505 73q-2 -3 -6 -8.5t-20 -20t-37 -25t-58.5 -19.5t-81.5 -9h-10l-19 -55q64 15 97.5 -13t28.5 -71q-4 -32 -24 -51.5t-39.5 -25t-40.5 -5.5q-43 0 -68 21q-13 11 -8 28q3 11 13 16.5t21 2.5q11 -4 17 -13.5t3 -20.5q-3 -9 -9 -12q-1 -1 0.5 -3t9.5 -4t21 -2
q25 0 40 15.5t15 40.5q0 26 -25 52.5t-77 16.5l29 84q-71 2 -129 16.5t-80 27.5l-22 14v192h15q7 -41 20.5 -76.5t40 -74.5t72.5 -62t108 -23t93 42.5t16 101t-73 99.5l-159 102q-215 137 -111 285q2 3 6 8.5t20.5 18.5t37 23t56.5 18.5t78 8.5q70 0 130.5 -12t85.5 -24
l26 -12v-168h-15q-6 34 -19 64.5t-38 63.5t-68.5 53t-101.5 20q-40 0 -69.5 -23t-39 -56t10 -74.5t69.5 -73.5l160 -105q99 -66 127.5 -143.5t-19.5 -149.5z" />
    <glyph glyph-name="scedilla" unicode="&#x15f;" horiz-adv-x="435" 
d="M358 43q-4 -6 -12.5 -14.5t-43 -23t-77.5 -14.5h-15l-19 -55q64 15 97.5 -13t28.5 -71q-4 -32 -24 -51.5t-39.5 -25t-40.5 -5.5q-44 0 -68 21q-13 11 -8 28q3 11 13 16.5t21 2.5q11 -4 17 -13.5t3 -20.5q-3 -9 -9 -12q-1 -1 0.5 -3t9.5 -4t21 -2q25 0 40 15.5t15 40.5
q0 26 -25 52.5t-77 16.5l29 84q-44 3 -81 13.5t-52 19.5l-15 9v131h15q4 -21 9 -37.5t17.5 -41t28.5 -40.5t44.5 -28t63.5 -12q42 0 59 26.5t3.5 62t-50.5 59.5l-101 61q-147 94 -73 202q4 6 12.5 15t43 24t79.5 15q51 0 92 -7.5t56 -15.5l16 -8v-117h-15q-28 133 -149 133
q-39 0 -57.5 -23t-7 -57t53.5 -60l101 -63q68 -42 87.5 -99.5t-17.5 -110.5z" />
    <glyph glyph-name="Scaron" unicode="&#x160;" horiz-adv-x="586" 
d="M505 73q-2 -3 -6 -8.5t-20 -20t-37 -25t-58.5 -19.5t-81.5 -9q-50 0 -94.5 6t-73 15t-49.5 17.5t-30 14.5l-9 6v192h15q7 -41 20.5 -76.5t40 -74.5t72.5 -62t108 -23t93 42.5t16 101t-73 99.5l-159 102q-215 137 -111 285q2 3 6 8.5t20.5 18.5t37 23t56.5 18.5t78 8.5
q70 0 130.5 -12t85.5 -24l26 -12v-168h-15q-6 34 -19 64.5t-38 63.5t-68.5 53t-101.5 20q-40 0 -69.5 -23t-39 -56t10 -74.5t69.5 -73.5l160 -105q99 -66 127.5 -143.5t-19.5 -149.5zM278 833l118 89h31l-149 -187l-149 187h30z" />
    <glyph glyph-name="scaron" unicode="&#x161;" horiz-adv-x="435" 
d="M205 593l118 89h31l-149 -187l-149 187h30zM358 43q-4 -6 -12.5 -14.5t-43 -23t-77.5 -14.5q-54 0 -98.5 10.5t-62.5 21.5l-17 11v131h15q4 -21 9 -37.5t17.5 -41t28.5 -40.5t44.5 -28t63.5 -12q42 0 59 26.5t3.5 62t-50.5 59.5l-101 61q-147 94 -73 202q4 6 12.5 15
t43 24t79.5 15q51 0 92 -7.5t56 -15.5l16 -8v-117h-15q-28 133 -149 133q-39 0 -57.5 -23t-7 -57t53.5 -60l101 -63q68 -42 87.5 -99.5t-17.5 -110.5z" />
    <glyph glyph-name="uni0162" unicode="&#x162;" horiz-adv-x="676" 
d="M19 704h635v-189h-15q-2 48 -23.5 83.5t-48 52t-59.5 26t-48 11t-24 1.5h-39v-580q0 -47 22.5 -70.5t56.5 -23.5v-15h-127l-20 -59q64 15 97.5 -13t28.5 -71q-4 -32 -24 -51.5t-39.5 -25t-40.5 -5.5q-44 0 -68 21q-13 11 -8 28q3 11 13 16.5t21 2.5q11 -4 17 -13.5
t3 -20.5q-3 -9 -9 -12q-1 -1 0.5 -3t9.5 -4t21 -2q25 0 40 15.5t15 40.5q0 26 -25 52.5t-77 16.5l30 87h-138v15q34 0 56.5 23.5t22.5 70.5v580h-39q-9 0 -20.5 -1t-37 -5.5t-47.5 -16.5t-44.5 -29.5t-37 -49.5t-15.5 -72h-15v189z" />
    <glyph glyph-name="uni0163" unicode="&#x163;" horiz-adv-x="336" 
d="M192 -9q-18 0 -26 2l-22 -57q65 15 99 -13t29 -71q-10 -74 -104 -77q-48 0 -68 17q-13 11 -8 28q3 11 13 16.5t21 1.5q11 -3 17.5 -13t2.5 -20q-4 -13 -14 -16q-4 -2 6.5 -6t29.5 -5q27 0 41 17.5t14 44.5t-24 53t-76 16l30 86q-83 18 -83 149v297h-50l-2 21h52v138
l107 17v-155h118l-3 -21h-115v-294q0 -50 20 -72.5t61 -22.5q42 0 65 35l6 -3q-13 -36 -53.5 -64.5t-83.5 -28.5z" />
    <glyph glyph-name="Tcaron" unicode="&#x164;" horiz-adv-x="676" 
d="M19 704h635v-189h-15q-2 48 -23.5 83.5t-48 52t-59.5 26t-48 11t-24 1.5h-39v-580q0 -47 22.5 -70.5t56.5 -23.5v-15h-280v15q34 0 56.5 23.5t22.5 70.5v580h-39q-9 0 -20.5 -1t-37 -5.5t-47.5 -16.5t-44.5 -29.5t-37 -49.5t-15.5 -72h-15v189zM338 833l118 89h31
l-149 -187l-149 187h30z" />
    <glyph glyph-name="tcaron" unicode="&#x165;" horiz-adv-x="357" 
d="M248 704h84q0 -37 -12.5 -71t-30 -56.5t-35 -39.5t-30.5 -25l-12 -8l-11 13q5 4 13 14.5t21 58.5t13 114zM311 90l13 -8q-14 -36 -51 -63.5t-82 -27.5q-61 0 -91 33.5t-30 119.5v303h-50l-3 15h53v138l106 17v-155h119l-4 -15h-115v-300q0 -96 75 -96q20 0 36.5 12
t23.5 27z" />
    <glyph glyph-name="Uring" unicode="&#x16e;" horiz-adv-x="752" 
d="M332 -9q-103 0 -171.5 67t-68.5 185v359q0 87 -75 87v15h284v-15q-39 0 -63 -18.5t-24 -69.5v-366q0 -89 49 -140.5t127 -51.5q71 0 121.5 52t50.5 143v284q0 22 -1 36.5t-7.5 42t-18.5 44.5t-38 30.5t-62 13.5v15h281v-15q-40 0 -68.5 -13.5t-41.5 -30t-20.5 -44.5
t-8 -42t-0.5 -37v-284q0 -70 -22.5 -121t-60.5 -77t-78 -37.5t-84 -11.5zM298 880q0 -24 17 -41t41 -17q25 0 41.5 17t16.5 41q0 25 -16.5 42t-41.5 17q-24 0 -41 -17t-17 -42zM261 880q0 40 28 67.5t67 27.5t67 -27.5t28 -67.5q0 -38 -28 -66t-67 -28t-67 28t-28 66z" />
    <glyph glyph-name="uring" unicode="&#x16f;" horiz-adv-x="543" 
d="M523 29v-14l-131 -23q-12 -2 -18.5 2.5t-7.5 9.5v5v86q-16 -41 -63.5 -72.5t-96.5 -31.5q-63 0 -98.5 33.5t-35.5 118.5v219q0 50 -7 60.5t-49 14.5v15l161 19v-325q0 -94 94 -94q28 0 54.5 20t40.5 51v239q0 53 -6 62q-8 10 -41 13v15l153 19v-383q0 -35 9.5 -45
t41.5 -14zM208 615q0 -24 17 -41t41 -17q25 0 41.5 17t16.5 41q0 25 -16.5 42t-41.5 17q-24 0 -41 -17t-17 -42zM171 615q0 40 28 67.5t67 27.5t67 -27.5t28 -67.5q0 -38 -28 -66t-67 -28t-67 28t-28 66z" />
    <glyph glyph-name="Uhungarumlaut" unicode="&#x170;" horiz-adv-x="752" 
d="M332 -9q-103 0 -171.5 67t-68.5 185v359q0 87 -75 87v15h284v-15q-39 0 -63 -18.5t-24 -69.5v-366q0 -89 49 -140.5t127 -51.5q71 0 121.5 52t50.5 143v284q0 22 -1 36.5t-7.5 42t-18.5 44.5t-38 30.5t-62 13.5v15h281v-15q-40 0 -68.5 -13.5t-41.5 -30t-20.5 -44.5
t-8 -42t-0.5 -37v-284q0 -70 -22.5 -121t-60.5 -77t-78 -37.5t-84 -11.5zM383 735l170 164l99 -30l-240 -134h-29zM208 735l170 164l99 -30l-240 -134h-29z" />
    <glyph glyph-name="uhungarumlaut" unicode="&#x171;" horiz-adv-x="543" 
d="M523 29v-14l-131 -23q-12 -2 -18.5 2.5t-7.5 9.5v5v86q-16 -41 -63.5 -72.5t-96.5 -31.5q-63 0 -98.5 33.5t-35.5 118.5v219q0 50 -7 60.5t-49 14.5v15l161 19v-325q0 -94 94 -94q28 0 54.5 20t40.5 51v239q0 53 -6 62q-8 10 -41 13v15l153 19v-383q0 -35 9.5 -45
t41.5 -14zM265 541l170 164l99 -30l-240 -134h-29zM90 541l170 164l99 -30l-240 -134h-29z" />
    <glyph glyph-name="Ydieresis" unicode="&#x178;" horiz-adv-x="732" 
d="M401 830q0 22 15.5 37.5t36.5 15.5q22 0 38 -15.5t16 -37.5t-15.5 -37t-38.5 -15q-21 0 -36.5 15t-15.5 37zM439 704h279v-15q-15 0 -26 -1.5t-34.5 -13.5t-45 -33.5t-52.5 -66t-63 -106.5l-71 -148v-203q0 -53 22.5 -77.5t57.5 -24.5v-15h-279v15q35 0 57.5 24.5
t22.5 77.5v165l-192 329q-20 36 -41.5 54.5t-33 21t-31.5 3.5v14h288v-14q-12 0 -19 -0.5t-18.5 -6.5t-14.5 -17t3.5 -34t25.5 -56l143 -238l71 147q6 13 12 28t14 40.5t8.5 47.5t-4.5 42.5t-25.5 33t-53.5 12.5v15zM227 830q0 22 15.5 37.5t37.5 15.5t37 -15.5t15 -37.5
t-15 -37t-37 -15t-37.5 15t-15.5 37z" />
    <glyph glyph-name="Zacute" unicode="&#x179;" horiz-adv-x="581" 
d="M191 15h36q125 0 202 65.5t98 152.5h17l-25 -233h-495l388 689h-48q-120 0 -196.5 -48t-100.5 -139h-19l18 202h489zM168 735l173 163l96 -29l-240 -134h-29z" />
    <glyph glyph-name="zacute" unicode="&#x17a;" horiz-adv-x="448" 
d="M409 462l-245 -447q184 0 214 137h15l-9 -152h-355l259 447q-100 0 -153.5 -28.5t-67.5 -88.5h-15l5 132h352zM117 541l173 163l96 -29l-240 -134h-29z" />
    <glyph glyph-name="Zdotaccent" unicode="&#x17b;" horiz-adv-x="581" 
d="M191 15h36q125 0 202 65.5t98 152.5h17l-25 -233h-495l388 689h-48q-120 0 -196.5 -48t-100.5 -139h-19l18 202h489zM315 790q-23 0 -40 16.5t-17 39.5t17 39.5t40 16.5t39.5 -16.5t16.5 -39.5t-16.5 -39.5t-39.5 -16.5z" />
    <glyph glyph-name="zdotaccent" unicode="&#x17c;" horiz-adv-x="448" 
d="M409 462l-245 -447q184 0 214 137h15l-9 -152h-355l259 447q-100 0 -153.5 -28.5t-67.5 -88.5h-15l5 132h352zM231 570q-23 0 -40 16.5t-17 39.5t17 39.5t40 16.5t39.5 -16.5t16.5 -39.5t-16.5 -39.5t-39.5 -16.5z" />
    <glyph glyph-name="Zcaron" unicode="&#x17d;" horiz-adv-x="581" 
d="M191 15h36q125 0 202 65.5t98 152.5h17l-25 -233h-495l388 689h-48q-120 0 -196.5 -48t-100.5 -139h-19l18 202h489zM313 833l118 89h31l-149 -187l-149 187h30z" />
    <glyph glyph-name="zcaron" unicode="&#x17e;" horiz-adv-x="448" 
d="M233 593l118 89h31l-149 -187l-149 187h30zM409 462l-245 -447q184 0 214 137h15l-9 -152h-355l259 447q-100 0 -153.5 -28.5t-67.5 -88.5h-15l5 132h352z" />
    <glyph glyph-name="florin" unicode="&#x192;" horiz-adv-x="660" 
d="M618 626q-10 -20 -31 -27.5t-40 2.5q-20 10 -27.5 31t2.5 41q11 20 31 26q7 2 1 10q-8 11 -38 11q-29 0 -53.5 -48t-34.5 -96l-10 -48l-20 -145h117l-6 -16h-112l-37 -269q-24 -184 -74 -261t-150 -76q-40 0 -66 15.5t-37 32.5q-18 29 -3 60q10 20 31 27.5t41 -2.5
q20 -9 27 -30.5t-3 -41.5q-10 -19 -31 -26q-7 -2 -2 -9q8 -11 42 -11q28 0 52.5 49t34.5 98l11 49l53 395h-76l1 16h75q19 156 77 254t152 98q35 0 62.5 -16t37.5 -32q18 -31 3 -61z" />
    <glyph glyph-name="uni0218" unicode="&#x218;" horiz-adv-x="586" 
d="M256 -292l-9 11q52 38 58 87q2 23 -8 24q-31 4 -48 21q-20 20 -20.5 49t19.5 50q21 21 50.5 21t49.5 -21q20 -20 21.5 -52t-8.5 -61t-27 -55q-30 -48 -78 -74zM505 73q-2 -3 -6 -8.5t-20 -20t-37 -25t-58.5 -19.5t-81.5 -9q-50 0 -94.5 6t-73 15t-49.5 17.5t-30 14.5
l-9 6v192h15q7 -41 20.5 -76.5t40 -74.5t72.5 -62t108 -23t93 42.5t16 101t-73 99.5l-159 102q-215 137 -111 285q2 3 6 8.5t20.5 18.5t37 23t56.5 18.5t78 8.5q70 0 130.5 -12t85.5 -24l26 -12v-168h-15q-6 34 -19 64.5t-38 63.5t-68.5 53t-101.5 20q-40 0 -69.5 -23
t-39 -56t10 -74.5t69.5 -73.5l160 -105q99 -66 127.5 -143.5t-19.5 -149.5z" />
    <glyph glyph-name="uni0219" unicode="&#x219;" horiz-adv-x="435" 
d="M180 -292l-9 11q52 38 58 87q2 23 -8 24q-31 4 -48 21q-20 20 -20.5 49t19.5 50q21 21 50.5 21t49.5 -21q20 -20 21.5 -52t-8.5 -61t-27 -55q-30 -48 -78 -74zM358 43q-4 -6 -12.5 -14.5t-43 -23t-77.5 -14.5q-54 0 -98.5 10.5t-62.5 21.5l-17 11v131h15q4 -21 9 -37.5
t17.5 -41t28.5 -40.5t44.5 -28t63.5 -12q42 0 59 26.5t3.5 62t-50.5 59.5l-101 61q-147 94 -73 202q4 6 12.5 15t43 24t79.5 15q51 0 92 -7.5t56 -15.5l16 -8v-117h-15q-28 133 -149 133q-39 0 -57.5 -23t-7 -57t53.5 -60l101 -63q68 -42 87.5 -99.5t-17.5 -110.5z" />
    <glyph glyph-name="uni021A" unicode="&#x21a;" horiz-adv-x="676" 
d="M288 -292l-9 11q52 38 58 87q2 23 -8 24q-31 4 -48 21q-20 20 -20.5 49t19.5 50q21 21 50.5 21t49.5 -21q20 -20 21.5 -52t-8.5 -61t-27 -55q-30 -48 -78 -74zM19 704h635v-189h-15q-2 48 -23.5 83.5t-48 52t-59.5 26t-48 11t-24 1.5h-39v-580q0 -47 22.5 -70.5
t56.5 -23.5v-15h-280v15q34 0 56.5 23.5t22.5 70.5v580h-39q-9 0 -20.5 -1t-37 -5.5t-47.5 -16.5t-44.5 -29.5t-37 -49.5t-15.5 -72h-15v189z" />
    <glyph glyph-name="uni021B" unicode="&#x21b;" horiz-adv-x="335" 
d="M140 -292l-9 11q52 38 58 87q2 23 -8 24q-31 4 -48 21q-20 20 -20.5 49t19.5 50q21 21 50.5 21t49.5 -21q20 -20 21.5 -52t-8.5 -61t-27 -55q-30 -48 -78 -74zM311 90l13 -8q-14 -36 -51 -63.5t-82 -27.5q-61 0 -91 33.5t-30 119.5v303h-50l-3 15h53v138l106 17v-155h119
l-4 -15h-115v-300q0 -96 75 -96q20 0 36.5 12t23.5 27z" />
    <glyph glyph-name="circumflex" unicode="&#x2c6;" horiz-adv-x="298" 
d="M149 621l-119 -90h-30l149 188l149 -188h-30z" />
    <glyph glyph-name="caron" unicode="&#x2c7;" horiz-adv-x="300" 
d="M149 631l118 89h31l-149 -187l-149 187h30z" />
    <glyph glyph-name="uni02C9" unicode="&#x2c9;" horiz-adv-x="305" 
d="M330 588h-355v66h355v-66z" />
    <glyph glyph-name="breve" unicode="&#x2d8;" horiz-adv-x="262" 
d="M250 704h13q0 -63 -31.5 -103.5t-98.5 -40.5q-68 0 -101 40.5t-33 103.5h14q0 -78 120 -78q117 0 117 78z" />
    <glyph glyph-name="dotaccent" unicode="&#x2d9;" horiz-adv-x="270" 
d="M137 589q-23 0 -40 16.5t-17 39.5t17 39.5t40 16.5t39.5 -16.5t16.5 -39.5t-16.5 -39.5t-39.5 -16.5z" />
    <glyph glyph-name="ring" unicode="&#x2da;" horiz-adv-x="276" 
d="M82 637q0 -24 17 -41t41 -17q25 0 41.5 17t16.5 41q0 25 -16.5 42t-41.5 17q-24 0 -41 -17t-17 -42zM45 637q0 40 28 67.5t67 27.5t67 -27.5t28 -67.5q0 -38 -28 -66t-67 -28t-67 28t-28 66z" />
    <glyph glyph-name="ogonek" unicode="&#x2db;" horiz-adv-x="274" 
d="M162 -127q5 -20 20.5 -29.5t28.5 -9.5l13 1q16 1 26 13.5t10 28.5h14q0 -33 -13 -53.5t-50 -25.5q-24 -3 -43.5 0t-30 10.5t-17.5 15t-10 13.5l-2 6q-31 104 135 160v-14q-44 -22 -66.5 -55t-14.5 -61z" />
    <glyph glyph-name="tilde" unicode="&#x2dc;" horiz-adv-x="431" 
d="M260 557l-117 43q-20 5 -48 6t-59 -13t-43 -40l-12 5q18 46 44.5 75t50.5 38t45.5 12t34.5 -1l13 -3l117 -43q20 -5 48 -5.5t59 14.5t43 40l12 -7q-19 -46 -45 -75t-50 -38t-45.5 -12t-34.5 1z" />
    <glyph glyph-name="hungarumlaut" unicode="&#x2dd;" horiz-adv-x="533" 
d="M262 557l170 164l99 -30l-240 -134h-29zM87 557l170 164l99 -30l-240 -134h-29z" />
    <glyph glyph-name="uni03A9" unicode="&#x3a9;" horiz-adv-x="711" 
d="M667 157h15l-29 -157h-258q6 30 27 77l41 89.5t36.5 117t16.5 161.5q0 73 -10 125.5t-25 81t-38 44.5t-42.5 20t-45.5 4t-45.5 -4t-42.5 -20t-37.5 -44.5t-24.5 -81t-10 -125.5q0 -86 16.5 -161t36.5 -117.5l40.5 -89t26.5 -77.5h-257l-29 157h15q23 -56 100 -56h112
q-4 12 -16 24t-32.5 29.5t-32.5 30.5q-109 115 -109 265q0 124 75 204.5t214 80.5t214 -80.5t75 -204.5q0 -151 -108 -265q-13 -13 -33 -30.5t-32.5 -30t-16.5 -23.5h112q78 0 101 56z" />
    <glyph glyph-name="uni03BC" unicode="&#x3bc;" horiz-adv-x="539" 
d="M518 29v-15l-131 -22q-12 -2 -18.5 2t-6.5 10l-1 5v86q-17 -48 -75 -80t-114 -17v-161q0 -36 10 -48.5t42 -15.5v-15l-130 -22q-12 -2 -19 2t-7 10l-1 5v609q0 49 -7 60t-49 15v15l161 19v-329q3 -90 94 -90q28 0 54.5 20t40.5 51v239q0 53 -6 62q-8 10 -41 13v15l153 19
v-384q0 -35 9 -44.5t42 -13.5z" />
    <glyph glyph-name="pi" unicode="&#x3c0;" horiz-adv-x="580" 
d="M516 61l14 -7q-13 -61 -88 -61q-38 0 -59 22.5t-23 44.5l-3 23v301h-121l-12 -207q-2 -37 -18.5 -73t-39 -61t-44.5 -45t-38 -30l-15 -9l-8 11q45 35 74 96t32 117l12 201h-5q-103 -5 -152 -70l-13 8q2 6 6 15t18.5 33t32.5 42t47.5 33.5t63.5 16.5h252q64 0 90.5 11.5
t30.5 51.5h13q0 -71 -24.5 -106t-92.5 -35h-7v-276q0 -27 9.5 -43.5t18.5 -20t17 -3.5q11 0 19 5t11 10z" />
    <glyph glyph-name="uni2010" unicode="&#x2010;" horiz-adv-x="447" 
d="M64 294h315v-78h-315v78z" />
    <glyph glyph-name="endash" unicode="&#x2013;" horiz-adv-x="561" 
d="M0 282h561v-60h-561v60z" />
    <glyph glyph-name="emdash" unicode="&#x2014;" horiz-adv-x="1055" 
d="M0 282h1055v-60h-1055v60z" />
    <glyph glyph-name="quoteleft" unicode="&#x2018;" horiz-adv-x="253" 
d="M175 730l9 -11q-52 -38 -58 -87q-2 -23 8 -24q31 -4 48 -21q20 -20 20.5 -49t-19.5 -50q-21 -21 -50.5 -21t-49.5 21q-20 20 -21.5 52t8.5 61t27 55q30 48 78 74z" />
    <glyph glyph-name="quoteright" unicode="&#x2019;" horiz-adv-x="255" 
d="M86 452l-9 11q52 38 58 87q2 23 -8 24q-31 4 -48 21q-20 20 -20.5 49t19.5 50q21 21 50.5 21t49.5 -21q20 -20 21.5 -52t-8.5 -61t-27 -55q-30 -48 -78 -74z" />
    <glyph glyph-name="quotesinglbase" unicode="&#x201a;" horiz-adv-x="256" 
d="M85 -128l-9 11q52 38 58 87q2 23 -8 24q-31 4 -48 21q-20 20 -20.5 49t19.5 50q21 21 50.5 21t49.5 -21q20 -20 21.5 -52t-8.5 -61t-27 -55q-30 -48 -78 -74z" />
    <glyph glyph-name="quotedblleft" unicode="&#x201c;" horiz-adv-x="485" 
d="M393 718l9 -11q-52 -38 -58 -87q-2 -23 8 -24q31 -4 48 -21q20 -20 20.5 -49t-19.5 -50q-21 -21 -50.5 -21t-49.5 21q-20 20 -21.5 52t8.5 61t27 55q30 48 78 74zM168 718l9 -11q-52 -38 -58 -87q-2 -23 8 -24q31 -4 48 -21q21 -20 21.5 -49t-20.5 -50q-20 -21 -50 -21
t-50 21q-20 20 -21 52t9 61t26 55q29 47 78 74z" />
    <glyph glyph-name="quotedblright" unicode="&#x201d;" horiz-adv-x="479" 
d="M86 456l-9 11q52 38 58 87q2 23 -8 24q-31 4 -48 21q-20 20 -20.5 49t19.5 50q21 21 50.5 21t49.5 -21q20 -20 21.5 -52t-8.5 -61t-27 -55q-30 -48 -78 -74zM311 456l-9 11q52 38 58 87q2 23 -8 24q-31 4 -48 21q-21 20 -21.5 49t20.5 50q20 21 50 21t50 -21
q20 -20 21 -52t-9 -61t-26 -55q-29 -47 -78 -74z" />
    <glyph glyph-name="quotedblbase" unicode="&#x201e;" horiz-adv-x="475" 
d="M84 -128l-9 11q52 38 58 87q2 23 -8 24q-31 4 -48 21q-20 20 -20.5 49t19.5 50q21 21 50.5 21t49.5 -21q20 -20 21.5 -52t-8.5 -61t-27 -55q-30 -48 -78 -74zM309 -128l-9 11q52 38 58 87q2 23 -8 24q-31 4 -48 21q-21 20 -21.5 49t20.5 50q20 21 50 21t50 -21
q20 -20 21 -52t-9 -61t-26 -55q-29 -47 -78 -74z" />
    <glyph glyph-name="dagger" unicode="&#x2020;" horiz-adv-x="407" 
d="M203 645q-19 0 -32.5 13.5t-13.5 32.5q0 18 13.5 31.5t32.5 13.5q18 0 31.5 -13.5t13.5 -31.5q0 -19 -13.5 -32.5t-31.5 -13.5zM115 451q18 -12 36 -41l-4 -4q-9 11 -22.5 19t-21.5 8.5t-10 -2.5q-2 -18 -11 -26q-11 -12 -27 -12t-28 11q-11 12 -11.5 28t11.5 27
q29 31 88 -8zM211 403q-2 -54 41 -111q-45 -244 -45 -557h-8q0 308 -45 557q19 26 29 54t11 42v15q0 29 -10.5 73.5t-10.5 68.5v6.5t1.5 15t4 18.5t9 14.5t15.5 6.5q14 0 21.5 -15t7.5 -31v-15q0 -24 -10.5 -67.5t-10.5 -74.5zM378 459q12 -11 12 -27t-12 -28
q-11 -11 -27.5 -11t-27.5 12q-10 9 -12 26q-2 3 -9.5 2.5t-21 -8.5t-22.5 -19l-5 4q16 25 38 41q13 9 27.5 15t31.5 5.5t28 -12.5z" />
    <glyph glyph-name="daggerdbl" unicode="&#x2021;" 
d="M258 352q0 -25 13.5 -57t41.5 -50q-28 -19 -41.5 -50.5t-13.5 -54.5q0 -34 13.5 -74t13.5 -68v-8t-1.5 -17t-5 -21.5t-11 -17.5t-17.5 -8q-17 0 -26 18t-10 36v18q0 28 13 67t13 75q0 24 -13.5 56t-42.5 49q29 20 42.5 51.5t13.5 55.5q0 33 -13 73t-13 69q1 1 0 7.5
t1 17.5t5 21.5t10.5 18t18.5 7.5q17 0 25.5 -18t9.5 -36v-18q0 -28 -13 -67.5t-13 -74.5zM378 412q-2 3 -11.5 2.5t-25.5 -9.5t-27 -22l-5 3q18 32 44 49q15 11 32.5 18t38 6.5t33.5 -14.5q13 -13 13 -32t-13 -33q-14 -14 -33.5 -14t-32.5 14q-13 13 -13 32zM249 614
q-23 0 -38.5 15.5t-15.5 37.5q0 23 16 39t38 16t38 -16t16 -39q0 -22 -15.5 -37.5t-38.5 -15.5zM250 -120q22 0 37.5 -16t15.5 -38t-15.5 -38t-37.5 -16q-23 0 -39 15.5t-16 38.5q0 22 16 38t39 16zM107 380q-13 -14 -32.5 -14t-33.5 14q-13 14 -13 33t13 32
q13 14 33.5 14.5t38 -6.5t32.5 -18q23 -16 44 -49l-6 -3q-11 13 -26.5 22t-24.5 9.5t-11 -2.5q-2 -20 -14 -32zM391 115q13 14 32.5 14t33.5 -14q13 -14 13 -33.5t-13 -32.5t-33.5 -13.5t-37.5 6.5t-33 17q-27 20 -44 50l5 4q11 -14 27 -23t25 -9t12 2q0 19 13 32zM121 83
q2 -2 11 -2t25 9t26 23l6 -4q-19 -32 -44 -50q-16 -10 -33 -17t-37.5 -6.5t-33.5 13.5t-13 32.5t13 33.5t33 14t33 -14q12 -12 14 -32z" />
    <glyph glyph-name="bullet" unicode="&#x2022;" horiz-adv-x="473" 
d="M231 232q-46 0 -78 32t-32 77q0 46 32 78t78 32t78.5 -32t32.5 -78q0 -45 -32.5 -77t-78.5 -32z" />
    <glyph glyph-name="ellipsis" unicode="&#x2026;" horiz-adv-x="792" 
d="M701 63q0 -29 -21 -50t-51 -21t-51 21t-21 50q0 31 21 52t51 21t51 -21t21 -52zM465 63q0 -29 -21 -50t-51 -21t-51 21t-21 50q0 31 21 52t51 21t51 -21t21 -52zM230 63q0 -29 -21 -50t-51 -21t-51 21t-21 50q0 31 21 52t51 21t51 -21t21 -52z" />
    <glyph glyph-name="perthousand" unicode="&#x2030;" horiz-adv-x="1100" 
d="M93 496q0 -99 13 -130t48 -31t47.5 30.5t12.5 130.5t-13 134t-47 34q-35 0 -48 -33.5t-13 -134.5zM290 496q0 -176 -136 -176q-137 0 -137 176q0 183 137 183q136 0 136 -183zM601 40q35 0 47.5 30.5t12.5 130.5t-13 133.5t-47 33.5q-35 0 -48 -33t-13 -134
q0 -99 13 -130t48 -31zM601 383q136 0 136 -182q0 -176 -136 -176t-136 176q0 182 136 182zM120 0l456 704h59l-456 -704h-59zM931 40q36 0 48.5 30.5t12.5 130.5t-13.5 133.5t-47.5 33.5t-47 -33.5t-13 -133.5q0 -99 13 -130t47 -31zM931 383q136 0 136 -182
q0 -176 -136 -176t-136 176q0 182 136 182z" />
    <glyph glyph-name="guilsinglleft" unicode="&#x2039;" horiz-adv-x="339" 
d="M281 505v-33l-136 -206l136 -201v-32l-231 233z" />
    <glyph glyph-name="guilsinglright" unicode="&#x203a;" horiz-adv-x="339" 
d="M48 472v33l231 -239l-231 -233v32l135 201z" />
    <glyph glyph-name="fraction" unicode="&#x2044;" horiz-adv-x="343" 
d="M458 734h55l-605 -734h-54z" />
    <glyph glyph-name="Euro" unicode="&#x20ac;" horiz-adv-x="609" 
d="M243 419h223l-11 -16h-213v-51v-49h207l-10 -16h-196q4 -111 23.5 -174t48.5 -85t76 -22q59 0 102 41.5t43 121.5h15v-133q-37 -26 -71 -35.5t-90 -9.5q-124 0 -188.5 79t-78.5 217h-104l11 16h91q-1 16 -1 49q0 32 1 51h-102l11 16h93q31 294 268 294q60 0 92.5 -9.5
t67.5 -35.5v-133h-15q0 80 -42 121.5t-103 41.5q-71 0 -106.5 -59.5t-41.5 -219.5z" />
    <glyph glyph-name="afii61289" unicode="&#x2113;" horiz-adv-x="350" 
d="M191 336v182q0 198 50 192q14 -1 25 -16q21 -27 30 -83.5t-7 -126.5t-63 -115zM331 92l-14 5q-16 -50 -54 -56q-38 -7 -58.5 29t-16.5 108l2 111l53 50q45 42 65.5 115.5t11 144t-43.5 107.5q-20 22 -45 29.5t-50.5 -2.5t-47 -36t-35 -78t-13.5 -121v-227l-63 -50v-44
l63 48v-31q0 -114 38 -158.5t104 -44.5q36 0 68 29t36 72z" />
    <glyph glyph-name="trademark" unicode="&#x2122;" horiz-adv-x="699" 
d="M637 474q0 -42 35 -42v-15h-114v15q30 0 30 42v184l-97 -245h-14l-106 239v-125q0 -72 25 -89q10 -6 23 -6v-15h-119v15q55 0 55 95v145q-11 17 -42 17v15h92l99 -216l84 216h81v-15q-32 0 -32 -36v-179zM13 704h258v-82h-15q0 19 -7.5 32.5t-17 20t-22.5 10t-18 4
t-9 0.5h-15v-219q0 -38 32 -38v-15h-114v15q32 0 32 38v219h-16q-7 0 -15 -1.5t-23 -6.5t-25 -20.5t-10 -38.5h-15v82z" />
    <glyph glyph-name="Omega" unicode="&#x2126;" horiz-adv-x="711" 
d="M667 157h15l-29 -157h-258q6 30 27 77l41 89.5t36.5 117t16.5 161.5q0 73 -10 125.5t-25 81t-38 44.5t-42.5 20t-45.5 4t-45.5 -4t-42.5 -20t-37.5 -44.5t-24.5 -81t-10 -125.5q0 -86 16.5 -161t36.5 -117.5l40.5 -89t26.5 -77.5h-257l-29 157h15q23 -56 100 -56h112
q-4 12 -16 24t-32.5 29.5t-32.5 30.5q-109 115 -109 265q0 124 75 204.5t214 80.5t214 -80.5t75 -204.5q0 -151 -108 -265q-13 -13 -33 -30.5t-32.5 -30t-16.5 -23.5h112q78 0 101 56z" />
    <glyph glyph-name="estimated" unicode="&#x212e;" horiz-adv-x="892" 
d="M176 608v-213h544v208q-114 103 -275 103q-156 0 -269 -98zM445 735q171 0 292 -108t121 -260h-682v-240q113 -98 269 -98q169 0 283 111h41q-58 -65 -142.5 -102.5t-181.5 -37.5q-171 0 -292 107.5t-121 259.5t121 260t292 108z" />
    <glyph glyph-name="partialdiff" unicode="&#x2202;" horiz-adv-x="538" 
d="M373 333q-9 35 -38.5 59t-56.5 24q-45 0 -79 -52.5t-43 -155.5q-11 -117 10 -159.5t77 -42.5q101 0 130 327zM495 333q-12 -156 -75 -249t-177 -93q-104 0 -158 60t-44 174q8 96 57 164.5t137 68.5q41 0 85 -23.5t57 -71.5q11 138 -2 221.5t-42.5 114t-77.5 30.5
q-57 0 -103.5 -51.5t-41.5 -108.5l-16 -5l-31 96q26 38 78 61t114 23q126 0 190.5 -110.5t49.5 -300.5z" />
    <glyph glyph-name="Delta" unicode="&#x2206;" horiz-adv-x="714" 
d="M79 40h452l-226 527zM375 738l294 -706l-15 -32h-616l-6 26l1 2l287 692z" />
    <glyph glyph-name="product" unicode="&#x220f;" horiz-adv-x="781" 
d="M654 590v-543q0 -56 23.5 -86.5t60.5 -30.5v-15h-304v15q37 0 60.5 30.5t23.5 86.5v540q0 51 -22.5 76t-61.5 25h-95q-38 0 -59.5 -25t-21.5 -76v-540q0 -56 22.5 -86.5t58.5 -30.5v-15h-301v15q37 0 60.5 30.5t23.5 86.5v543q0 50 -22.5 74.5t-61.5 24.5v15h700v-15
q-39 0 -61.5 -24.5t-22.5 -74.5z" />
    <glyph glyph-name="summation" unicode="&#x2211;" horiz-adv-x="668" 
d="M192 689l207 -361l-244 -411h98q83 0 147.5 17.5t101 40.5t64 59.5t38 61.5t20.5 59h16l-27 -253h-537l196 338l-251 464h580l21 -218h-17q-26 91 -119.5 147t-206.5 56h-87z" />
    <glyph glyph-name="minus" unicode="&#x2212;" horiz-adv-x="626" 
d="M581 216h-533v78h533v-78z" />
    <glyph glyph-name="uni2215" unicode="&#x2215;" horiz-adv-x="345" 
d="M458 734h57l-605 -734h-56z" />
    <glyph glyph-name="uni2219" unicode="&#x2219;" horiz-adv-x="266" 
d="M134 243q-24 0 -40 16t-16 39q0 24 16 40t40 16q23 0 39.5 -16t16.5 -40q0 -23 -16.5 -39t-39.5 -16z" />
    <glyph glyph-name="radical" unicode="&#x221a;" horiz-adv-x="565" 
d="M355 36l143 829l44 -12l-180 -1031l-18 -7l-195 456q-17 40 -44 59t-55 8l-5 13l148 63z" />
    <glyph glyph-name="infinity" unicode="&#x221e;" horiz-adv-x="783" 
d="M673 408q47 -48 47 -116.5t-47 -116.5q-49 -49 -116 -49t-116 49l-57 60l-58 -60q-49 -49 -116 -49q-68 0 -117 49q-46 48 -45.5 116.5t45.5 117.5q48 48 117 48t116 -49l58 -60l57 60q49 49 116 49q69 0 116 -49zM150 353q-25 -25 -25 -62q2 -38 25 -61q26 -26 60 -26
q32 0 60 25l59 63q-59 61 -60 63q-23 23 -59 23t-60 -25zM617 230q25 25 25 61q0 37 -25 62q-24 25 -60 25q-38 0 -60 -25l-58 -62q57 -59 58 -61q26 -26 60 -26q32 0 60 26z" />
    <glyph glyph-name="integral" unicode="&#x222b;" horiz-adv-x="383" 
d="M355 737q-7 -19 -24.5 -26.5t-36.5 -0.5t-27 25t-1 36q8 20 27 25q5 1 -4 8t-25 7q-3 0 -6 -0.5t-10 -4t-11.5 -11t-11.5 -22t-9 -36t-3.5 -53t3.5 -74.5l35 -441q32 -379 -135 -379q-59 0 -84 35q-18 25 -8 53q7 19 25 27t36 0q19 -7 27 -25t1 -37q-8 -18 -25 -24
q-6 -2 3 -8.5t26 -6.5q4 0 8.5 1.5t16 11t16.5 30.5t10 59.5t-3 98.5l-35 440q-32 380 134 380q55 0 85 -35q8 -10 9.5 -25.5t-3.5 -27.5z" />
    <glyph glyph-name="approxequal" unicode="&#x2248;" horiz-adv-x="518" 
d="M306 311l-117 43q-20 5 -48 6t-59 -13t-43 -40l-12 5q18 46 44.5 75t50.5 38.5t45.5 12t34.5 -0.5l13 -3l117 -44q20 -5 48 -5t59 14.5t43 39.5l12 -6q-19 -46 -45 -75.5t-50 -38.5t-45.5 -12t-34.5 1zM306 131l-117 43q-20 5 -48 6t-59 -13t-43 -40l-12 5q18 46 44.5 75
t50.5 38t45.5 12t34.5 -1l13 -3l117 -43q20 -5 48 -5.5t59 14.5t43 40l12 -7q-19 -46 -45 -75t-50 -38t-45.5 -12t-34.5 1z" />
    <glyph glyph-name="notequal" unicode="&#x2260;" horiz-adv-x="527" 
d="M480 346h-148l-59 -129h207v-63h-238l-58 -126l-58 26l46 100h-126v63h156l59 129h-215v64h246l63 136l57 -27l-50 -109h118v-64z" />
    <glyph glyph-name="lessequal" unicode="&#x2264;" horiz-adv-x="532" 
d="M191 344l288 -150v-89l-423 217v46l423 217v-90zM47 58h432v-73h-432v73z" />
    <glyph glyph-name="greaterequal" unicode="&#x2265;" horiz-adv-x="532" 
d="M55 194l288 150l-288 151v90l423 -217v-46l-423 -217v89zM55 58h432v-73h-432v73z" />
    <glyph glyph-name="lozenge" unicode="&#x25ca;" horiz-adv-x="559" 
d="M428 327l-150 291l-151 -291l151 -291zM301 733l208 -406l-208 -406h-45l-208 406l208 406h45z" />
    <glyph glyph-name="zero.taboldstyle" unicode="&#xf643;" horiz-adv-x="564" 
d="M394 229q0 94 -11.5 143.5t-33 66.5t-61.5 17t-62 -17t-33.5 -66.5t-11.5 -143.5q0 -93 11.5 -141.5t33 -65t62.5 -16.5q40 0 61.5 16t33 65t11.5 142zM520 229q0 -119 -60 -178.5t-172 -59.5t-172 60t-60 178q0 117 60.5 179.5t171.5 62.5q112 0 172 -61t60 -181z" />
    <glyph glyph-name="one.taboldstyle" unicode="&#xf644;" horiz-adv-x="491" 
d="M204 93v271q0 37 -18.5 46t-61.5 -3l-1 14l180 50h7v-378q0 -22 5.5 -37.5t12 -23.5t19 -12t20.5 -4.5t22 -0.5v-15h-273v15q26 0 42 3t31 21.5t15 53.5z" />
    <glyph glyph-name="two.taboldstyle" unicode="&#xf645;" 
d="M420 153h15l-43 -153h-320l103 110q83 79 109.5 138t13.5 111q-12 52 -56 74.5t-86 2.5q-31 -15 -31 -27q1 -2 3 -2q21 2 36 -12q16 -14 16.5 -34.5t-13.5 -35.5t-35 -15.5t-36 13.5q-22 22 -13 51q8 36 69 75q18 12 56.5 17.5t81 2.5t77.5 -29t42 -72q7 -50 -17.5 -93
t-58.5 -67.5l-81 -57t-68 -54.5l153 3q55 0 83 54z" />
    <glyph glyph-name="three.taboldstyle" unicode="&#xf646;" horiz-adv-x="539" 
d="M91 -211q-29 29 -17 67q7 26 31 39.5t50 5.5q27 -8 39.5 -32t4.5 -51q-8 -24 -34 -35q-5 -2 3 -10t34 -15.5t62 -7.5q72 0 103.5 53t24.5 134q-2 21 -11 43.5t-28.5 48.5t-59 45t-92.5 24v16q57 14 91.5 47t42 70.5t-3.5 73.5t-38 59t-67.5 24t-77 -22t-49.5 -64l-16 3
q5 46 25.5 80t42.5 50t50.5 25t41 10t21.5 1q56 0 101 -32.5t64 -79.5t-0.5 -106.5t-83.5 -107.5q70 -22 110 -69.5t42 -99.5q3 -63 -20 -112t-60.5 -75.5t-76.5 -40t-75 -13.5q-120 0 -174 54z" />
    <glyph glyph-name="four.taboldstyle" unicode="&#xf647;" horiz-adv-x="577" 
d="M299 13v307l-173 -260q-11 -17 -14.5 -27t1 -14t10 -5t16.5 -1h160zM521 -48h-100v-84q0 -42 6 -67.5t19 -35.5t24 -12.5t31 -2.5v-15h-282v15q20 0 31 2.5t24 12.5t19 34.5t6 63.5v89h-250v16l332 501l40 -7v-449h100v-61z" />
    <glyph glyph-name="five.taboldstyle" unicode="&#xf648;" horiz-adv-x="553" 
d="M503 -23q4 -79 -33 -135.5t-94 -81.5t-127 -25q-98 0 -160 52q-29 29 -19 69q8 26 32.5 39.5t51.5 6.5q26 -8 39.5 -32t5.5 -51q-7 -26 -32 -38q-10 -5 6 -16q24 -15 76 -15q94 0 139.5 59t23.5 134q-6 21 -20 41.5t-40 43t-63.5 35t-92 18.5t-124.5 -8l67 389h346
l-35 -112h-313l-29 -171q106 17 179.5 7.5t121 -44.5t70 -76.5t24.5 -88.5z" />
    <glyph glyph-name="six.taboldstyle" unicode="&#xf649;" horiz-adv-x="571" 
d="M404 216q0 101 -30 159t-75 58q-44 0 -83 -34.5t-39 -81.5q0 -155 26.5 -233t86.5 -78q58 0 86 48.5t28 161.5zM527 234q0 -114 -65.5 -178.5t-171.5 -64.5q-123 0 -184 84.5t-61 238.5q0 172 83.5 285.5t203.5 113.5q97 0 132 -63q18 -31 -4 -63q-14 -21 -38.5 -25
t-45.5 10q-20 14 -24.5 39t10.5 45q15 21 38 23q6 1 -6 8q-19 10 -55 11q-35 1 -62 -13.5t-50.5 -50.5t-36.5 -105.5t-13 -169.5q20 57 65.5 84.5t97.5 27.5q51 0 89 -21.5t58.5 -57.5t30 -75.5t9.5 -82.5z" />
    <glyph glyph-name="seven.taboldstyle" unicode="&#xf64a;" horiz-adv-x="551" 
d="M78 462h451l-64 -108q-86 -154 -115 -296.5t-29 -313.5h-123q4 165 55 293t197 317h-289q-62 0 -90 -58h-15z" />
    <glyph glyph-name="eight.taboldstyle" unicode="&#xf64b;" horiz-adv-x="559" 
d="M402 553q-1 79 -36 112t-87 33q-44 0 -74.5 -30t-30.5 -82q0 -56 38 -95t122 -72q30 12 49.5 47.5t18.5 86.5zM292 -9q-248 0 -248 165q0 62 48.5 113t114.5 70q-133 80 -133 191q0 88 58.5 135.5t146.5 47.5q91 0 145.5 -40.5t54.5 -110.5q0 -47 -36 -92.5t-93 -59.5
q78 -39 127.5 -95t49.5 -119q0 -106 -64 -155.5t-171 -49.5zM262 307q-20 10 -39 22q-31 -15 -58 -56.5t-27 -112.5q0 -72 42 -113t112 -41q51 0 89 33t37 99q-1 54 -41 92t-115 77z" />
    <glyph glyph-name="nine.taboldstyle" unicode="&#xf64c;" horiz-adv-x="553" 
d="M161 243q0 -101 30 -157.5t75 -56.5q44 0 83 31.5t39 77.5q0 318 -113 318q-58 0 -86 -50t-28 -163zM38 224q0 123 64 185t173 62q123 0 184 -88t61 -243q0 -191 -72 -298t-212 -107q-103 0 -144 69q-8 14 -7 33.5t11 35.5q16 22 43 27t49 -11q22 -15 26.5 -42t-11.5 -49
q-17 -23 -42 -25q-7 -1 8 -9q22 -13 59 -14q66 -2 98.5 25.5t46.5 100t15 219.5q-13 -36 -41 -60.5t-58.5 -34t-63.5 -9.5q-67 0 -111 37.5t-60 87t-16 108.5z" />
    <glyph glyph-name="dollar.taboldstyle" unicode="&#xf653;" horiz-adv-x="568" 
d="M288 6q77 1 108 46.5t12.5 102.5t-70.5 94l-50 32v-275zM265 452v246q-39 0 -68.5 -23t-38.5 -56.5t10.5 -74.5t68.5 -73zM397 365q99 -65 127.5 -143t-19.5 -149q-20 -24 -39.5 -38.5t-66 -29t-111.5 -14.5v-122h-23v122q-68 3 -122.5 18t-75.5 28l-21 13v192h8
q6 -37 19.5 -71t37 -70.5t63.5 -62t91 -32.5v289l-86 56q-215 137 -111 285q2 3 6 8t20.5 18.5t37 23.5t56.5 18.5t77 8.5v122h23v-122q64 -2 119 -14t78 -23l23 -11v-168h-8q-6 31 -19.5 61t-37 61.5t-64 53t-91.5 24.5v-260z" />
    <glyph glyph-name="cent.taboldstyle" unicode="&#xf654;" horiz-adv-x="524" 
d="M185 246q0 -80 34.5 -124.5t88.5 -57.5v391q-46 -9 -84.5 -57.5t-38.5 -151.5zM474 128l12 -7q-11 -44 -51.5 -83.5t-108.5 -46.5v-109h-18v109q-108 1 -170.5 69.5t-62.5 170.5q0 59 26 111t80.5 88.5t126.5 40.5v122h18v-122q91 0 134 -53q24 -28 10 -58
q-8 -21 -30 -31t-43 -1q-22 8 -31 29.5t0 42.5q7 21 29 30q8 3 -8 12q-23 14 -61 14v-395q44 -4 88 17.5t60 49.5z" />
    <glyph glyph-name="dollar.oldstyle" unicode="&#xf724;" horiz-adv-x="568" 
d="M288 6q77 1 108 46.5t12.5 102.5t-70.5 94l-50 32v-275zM265 452v246q-39 0 -68.5 -23t-38.5 -56.5t10.5 -74.5t68.5 -73zM397 365q99 -65 127.5 -143t-19.5 -149q-20 -24 -39.5 -38.5t-66 -29t-111.5 -14.5v-122h-23v122q-68 3 -122.5 18t-75.5 28l-21 13v192h8
q6 -37 19.5 -71t37 -70.5t63.5 -62t91 -32.5v289l-86 56q-215 137 -111 285q2 3 6 8t20.5 18.5t37 23.5t56.5 18.5t77 8.5v122h23v-122q64 -2 119 -14t78 -23l23 -11v-168h-8q-6 31 -19.5 61t-37 61.5t-64 53t-91.5 24.5v-260z" />
    <glyph glyph-name="zero.oldstyle" unicode="&#xf730;" horiz-adv-x="564" 
d="M394 229q0 94 -11.5 143.5t-33 66.5t-61.5 17t-62 -17t-33.5 -66.5t-11.5 -143.5q0 -93 11.5 -141.5t33 -65t62.5 -16.5q40 0 61.5 16t33 65t11.5 142zM520 229q0 -119 -60 -178.5t-172 -59.5t-172 60t-60 178q0 117 60.5 179.5t171.5 62.5q112 0 172 -61t60 -181z" />
    <glyph glyph-name="one.oldstyle" unicode="&#xf731;" horiz-adv-x="491" 
d="M204 93v271q0 37 -18.5 46t-61.5 -3l-1 14l180 50h7v-378q0 -22 5.5 -37.5t12 -23.5t19 -12t20.5 -4.5t22 -0.5v-15h-273v15q26 0 42 3t31 21.5t15 53.5z" />
    <glyph glyph-name="two.oldstyle" unicode="&#xf732;" 
d="M420 153h15l-43 -153h-320l103 110q83 79 109.5 138t13.5 111q-12 52 -56 74.5t-86 2.5q-31 -15 -31 -27q1 -2 3 -2q21 2 36 -12q16 -14 16.5 -34.5t-13.5 -35.5t-35 -15.5t-36 13.5q-22 22 -13 51q8 36 69 75q18 12 56.5 17.5t81 2.5t77.5 -29t42 -72q7 -50 -17.5 -93
t-58.5 -67.5l-81 -57t-68 -54.5l153 3q55 0 83 54z" />
    <glyph glyph-name="three.oldstyle" unicode="&#xf733;" horiz-adv-x="539" 
d="M91 -211q-29 29 -17 67q7 26 31 39.5t50 5.5q27 -8 39.5 -32t4.5 -51q-8 -24 -34 -35q-5 -2 3 -10t34 -15.5t62 -7.5q72 0 103.5 53t24.5 134q-2 21 -11 43.5t-28.5 48.5t-59 45t-92.5 24v16q57 14 91.5 47t42 70.5t-3.5 73.5t-38 59t-67.5 24t-77 -22t-49.5 -64l-16 3
q5 46 25.5 80t42.5 50t50.5 25t41 10t21.5 1q56 0 101 -32.5t64 -79.5t-0.5 -106.5t-83.5 -107.5q70 -22 110 -69.5t42 -99.5q3 -63 -20 -112t-60.5 -75.5t-76.5 -40t-75 -13.5q-120 0 -174 54z" />
    <glyph glyph-name="four.oldstyle" unicode="&#xf734;" horiz-adv-x="577" 
d="M299 13v307l-173 -260q-11 -17 -14.5 -27t1 -14t10 -5t16.5 -1h160zM521 -48h-100v-84q0 -42 6 -67.5t19 -35.5t24 -12.5t31 -2.5v-15h-282v15q20 0 31 2.5t24 12.5t19 34.5t6 63.5v89h-250v16l332 501l40 -7v-449h100v-61z" />
    <glyph glyph-name="five.oldstyle" unicode="&#xf735;" horiz-adv-x="553" 
d="M503 -23q4 -79 -33 -135.5t-94 -81.5t-127 -25q-98 0 -160 52q-29 29 -19 69q8 26 32.5 39.5t51.5 6.5q26 -8 39.5 -32t5.5 -51q-7 -26 -32 -38q-10 -5 6 -16q24 -15 76 -15q94 0 139.5 59t23.5 134q-6 21 -20 41.5t-40 43t-63.5 35t-92 18.5t-124.5 -8l67 389h346
l-35 -112h-313l-29 -171q106 17 179.5 7.5t121 -44.5t70 -76.5t24.5 -88.5z" />
    <glyph glyph-name="six.oldstyle" unicode="&#xf736;" horiz-adv-x="571" 
d="M404 216q0 101 -30 159t-75 58q-44 0 -83 -34.5t-39 -81.5q0 -155 26.5 -233t86.5 -78q58 0 86 48.5t28 161.5zM527 234q0 -114 -65.5 -178.5t-171.5 -64.5q-123 0 -184 84.5t-61 238.5q0 172 83.5 285.5t203.5 113.5q97 0 132 -63q18 -31 -4 -63q-14 -21 -38.5 -25
t-45.5 10q-20 14 -24.5 39t10.5 45q15 21 38 23q6 1 -6 8q-19 10 -55 11q-35 1 -62 -13.5t-50.5 -50.5t-36.5 -105.5t-13 -169.5q20 57 65.5 84.5t97.5 27.5q51 0 89 -21.5t58.5 -57.5t30 -75.5t9.5 -82.5z" />
    <glyph glyph-name="seven.oldstyle" unicode="&#xf737;" horiz-adv-x="551" 
d="M78 462h451l-64 -108q-86 -154 -115 -296.5t-29 -313.5h-123q4 165 55 293t197 317h-289q-62 0 -90 -58h-15z" />
    <glyph glyph-name="eight.oldstyle" unicode="&#xf738;" horiz-adv-x="559" 
d="M402 553q-1 79 -36 112t-87 33q-44 0 -74.5 -30t-30.5 -82q0 -56 38 -95t122 -72q30 12 49.5 47.5t18.5 86.5zM292 -9q-248 0 -248 165q0 62 48.5 113t114.5 70q-133 80 -133 191q0 88 58.5 135.5t146.5 47.5q91 0 145.5 -40.5t54.5 -110.5q0 -47 -36 -92.5t-93 -59.5
q78 -39 127.5 -95t49.5 -119q0 -106 -64 -155.5t-171 -49.5zM262 307q-20 10 -39 22q-31 -15 -58 -56.5t-27 -112.5q0 -72 42 -113t112 -41q51 0 89 33t37 99q-1 54 -41 92t-115 77z" />
    <glyph glyph-name="nine.oldstyle" unicode="&#xf739;" horiz-adv-x="553" 
d="M161 243q0 -101 30 -157.5t75 -56.5q44 0 83 31.5t39 77.5q0 318 -113 318q-58 0 -86 -50t-28 -163zM38 224q0 123 64 185t173 62q123 0 184 -88t61 -243q0 -191 -72 -298t-212 -107q-103 0 -144 69q-8 14 -7 33.5t11 35.5q16 22 43 27t49 -11q22 -15 26.5 -42t-11.5 -49
q-17 -23 -42 -25q-7 -1 8 -9q22 -13 59 -14q66 -2 98.5 25.5t46.5 100t15 219.5q-13 -36 -41 -60.5t-58.5 -34t-63.5 -9.5q-67 0 -111 37.5t-60 87t-16 108.5z" />
    <glyph glyph-name="cent.oldstyle" unicode="&#xf7a2;" horiz-adv-x="524" 
d="M185 246q0 -80 34.5 -124.5t88.5 -57.5v391q-46 -9 -84.5 -57.5t-38.5 -151.5zM474 128l12 -7q-11 -44 -51.5 -83.5t-108.5 -46.5v-109h-18v109q-108 1 -170.5 69.5t-62.5 170.5q0 59 26 111t80.5 88.5t126.5 40.5v122h18v-122q91 0 134 -53q24 -28 10 -58
q-8 -21 -30 -31t-43 -1q-22 8 -31 29.5t0 42.5q7 21 29 30q8 3 -8 12q-23 14 -61 14v-395q44 -4 88 17.5t60 49.5z" />
    <glyph glyph-name="fi" unicode="&#xfb01;" horiz-adv-x="558" 
d="M520 8v-8h-187v8q26 8 33 28t7 65v272q0 31 -12 52.5t-38 21.5h-134v-348q0 -43 10 -64t35 -27v-8h-190v8q26 7 33 27t7 64v348h-64l-2 15h66v17q0 144 60.5 205t184.5 61q50 0 88 -21t49 -52q14 -44 -2 -71q-13 -22 -38.5 -28.5t-47.5 7.5t-28 38.5t7 46.5q14 24 39 27
q15 3 2 16q-21 22 -69 22q-140 0 -140 -231v-37h134h156v-361q0 -45 8 -66t33 -27z" />
    <glyph glyph-name="fl" unicode="&#xfb02;" horiz-adv-x="542" 
d="M528 15v-15h-186v15q26 8 32.5 25t6.5 61v538q0 53 -52 67q-17 5 -32.5 6.5t-38.5 -7t-38.5 -29.5t-27.5 -68t-12 -116v-30h107l-3 -15h-104v-348q0 -42 9.5 -60t35.5 -24v-15h-191v15q27 7 33.5 24t6.5 60v348h-64l-2 15h66v60q0 110 47.5 166.5t124.5 56.5
q60 0 106 -29l135 30v-645q0 -44 7.5 -62t33.5 -24z" />
    <glyph glyph-name="NULL" horiz-adv-x="0" 
 />
    <glyph glyph-name="CR" horiz-adv-x="278" 
 />
    <glyph glyph-name="two.superior" horiz-adv-x="266" 
d="M206 454h13l-20 -75h-168l103 152q43 68 10 108q-23 27 -59 18q-31 -8 -41 -41l-14 3q3 39 25.5 60t42.5 23l21 2q34 0 56.5 -22t22.5 -53q0 -36 -51 -104l-66 -96h83q27 0 42 25z" />
    <glyph glyph-name="one.superior" horiz-adv-x="221" 
d="M139 433q0 -38 38 -38v-15h-132v15q43 0 43 38v186q0 12 -5 17t-11.5 3t-12.5 -4.5t-9 -5.5l-11 15l85 61h15v-272z" />
    <glyph glyph-name="a.superior" horiz-adv-x="300" 
d="M155 579q-78 -18 -78 -61q0 -6 2.5 -13t12 -15t24.5 -8t25.5 11t13.5 24v62zM248 493l11 -4q-3 -14 -17 -25t-37 -11h-5t-11 2.5t-14.5 6t-12 11.5t-6.5 19q-5 -16 -26.5 -27.5t-48.5 -11.5q-7 0 -17 1.5t-26.5 14.5t-16.5 37q0 37 26 52.5t99 33.5q6 1 9 2v30
q0 40 -19.5 56t-49.5 3q-16 -8 -16 -15q11 0 18 -10q13 -20 -7 -37q-22 -14 -37 6q-10 13 -2 28q9 24 39 39q11 5 23.5 7.5t19.5 2.5h8q44 0 62 -27t18 -77v-84q0 -4 0.5 -10t6.5 -15.5t17 -9.5q10 0 12 12z" />
    <glyph glyph-name="three.superior" horiz-adv-x="271" 
d="M231 480q2 -54 -33 -80.5t-75 -26.5q-46 0 -78 26q-13 12 -8 31q3 12 14 18t23 3q12 -4 18 -15t3 -23q-5 -13 -14 -17q-5 -1 4 -4q12 -5 38 -5q31 0 47 22.5t11 54.5q-9 62 -86 70v15q34 8 50 28.5t12.5 42t-20.5 35.5q-19 17 -46 9t-36 -36l-15 2q2 21 11.5 36t20 22
t24 11t19 4.5t9.5 0.5q25 0 46 -14.5t30 -36t0 -48t-37 -48.5q32 -9 49 -30.5t19 -46.5z" />
    <glyph glyph-name="o.superior" horiz-adv-x="320" 
d="M143 469q14 0 23 2.5t19 12.5t14.5 33t4.5 60q0 38 -5 62t-15 34.5t-19 13.5t-22 3q-14 0 -22.5 -3t-18.5 -13t-15 -34.5t-5 -62.5q0 -37 5 -60.5t15.5 -33t19 -12t21.5 -2.5zM143 705q115 0 115 -128q0 -64 -27.5 -93.5t-87.5 -29.5q-115 0 -115 123q0 65 28 96.5
t87 31.5z" />
    </font>
</defs>
</svg>
